Mill.ufo
<glyph name="exclam" format="1">
  <advance width="281"/>
  <unicode hex="0021"/>
  <outline>
    <contour>
      <point x="141" y="938" type="curve" smooth="yes"/>
      <point x="146" y="938"/>
      <point x="150" y="936"/>
      <point x="154" y="932" type="curve" smooth="yes"/>
      <point x="158" y="928"/>
      <point x="160" y="924"/>
      <point x="160" y="920" type="curve" smooth="yes"/>
      <point x="160" y="919" type="line"/>
      <point x="160" y="239" type="line" smooth="yes"/>
      <point x="160" y="234"/>
      <point x="158" y="230"/>
      <point x="154" y="226" type="curve" smooth="yes"/>
      <point x="150" y="222"/>
      <point x="146" y="220"/>
      <point x="141" y="220" type="curve" smooth="yes"/>
      <point x="136" y="220"/>
      <point x="132" y="222"/>
      <point x="129" y="226" type="curve" smooth="yes"/>
      <point x="125" y="230"/>
      <point x="124" y="234"/>
      <point x="124" y="239" type="curve" smooth="yes"/>
      <point x="124" y="919" type="line"/>
      <point x="124" y="920" type="line" smooth="yes"/>
      <point x="124" y="924"/>
      <point x="125" y="928"/>
      <point x="129" y="932" type="curve" smooth="yes"/>
      <point x="132" y="936"/>
      <point x="136" y="938"/>
    </contour>
    <contour>
      <point x="142" y="109" type="curve"/>
      <point x="142" y="109" type="line"/>
      <point x="157" y="108"/>
      <point x="170" y="102"/>
      <point x="180" y="92" type="curve" smooth="yes"/>
      <point x="190" y="81"/>
      <point x="195" y="68"/>
      <point x="195" y="53" type="curve" smooth="yes"/>
      <point x="195" y="39"/>
      <point x="190" y="26"/>
      <point x="180" y="16" type="curve" smooth="yes"/>
      <point x="170" y="6"/>
      <point x="158" y="0"/>
      <point x="143" y="-0" type="curve" smooth="yes"/>
      <point x="142" y="-0" type="line"/>
      <point x="141" y="-0" type="line"/>
      <point x="139" y="-0" type="line" smooth="yes"/>
      <point x="125" y="0"/>
      <point x="112" y="6"/>
      <point x="102" y="16" type="curve" smooth="yes"/>
      <point x="92" y="26"/>
      <point x="87" y="39"/>
      <point x="87" y="53" type="curve" smooth="yes"/>
      <point x="87" y="68"/>
      <point x="93" y="81"/>
      <point x="103" y="92" type="curve"/>
      <point x="114" y="102"/>
      <point x="127" y="108"/>
    </contour>
    <contour>
      <point x="141" y="75" type="line" smooth="yes"/>
      <point x="135" y="75"/>
      <point x="131" y="73"/>
      <point x="127" y="69" type="curve" smooth="yes"/>
      <point x="123" y="65"/>
      <point x="121" y="60"/>
      <point x="121" y="54" type="curve" smooth="yes"/>
      <point x="121" y="48"/>
      <point x="123" y="43"/>
      <point x="127" y="39" type="curve" smooth="yes"/>
      <point x="131" y="35"/>
      <point x="135" y="33"/>
      <point x="141" y="33" type="curve" smooth="yes"/>
      <point x="142" y="33" type="line" smooth="yes"/>
      <point x="148" y="33"/>
      <point x="152" y="35"/>
      <point x="156" y="39" type="curve" smooth="yes"/>
      <point x="160" y="43"/>
      <point x="162" y="48"/>
      <point x="162" y="54" type="curve" smooth="yes"/>
      <point x="162" y="60"/>
      <point x="160" y="65"/>
      <point x="156" y="69" type="curve" smooth="yes"/>
      <point x="152" y="73"/>
      <point x="148" y="75"/>
      <point x="142" y="75" type="curve" smooth="yes"/>
    </contour>
  </outline>
</glyph>
<glyph name="quotedbl" format="1">
  <advance width="429"/>
  <unicode hex="0022"/>
  <outline>
    <contour>
      <point x="150" y="1218" type="curve" smooth="yes"/>
      <point x="152" y="1218"/>
      <point x="155" y="1217"/>
      <point x="161" y="1217" type="curve"/>
      <point x="176" y="1213"/>
      <point x="188" y="1204"/>
      <point x="196" y="1191" type="curve" smooth="yes"/>
      <point x="204" y="1178"/>
      <point x="206" y="1164"/>
      <point x="202" y="1149" type="curve" smooth="yes"/>
      <point x="199" y="1135"/>
      <point x="192" y="1125"/>
      <point x="180" y="1117" type="curve" smooth="yes"/>
      <point x="168" y="1109"/>
      <point x="155" y="1106"/>
      <point x="141" y="1108" type="curve"/>
      <point x="168" y="991" type="line"/>
      <point x="168" y="988" type="line" smooth="yes"/>
      <point x="168" y="983"/>
      <point x="166" y="979"/>
      <point x="163" y="975" type="curve" smooth="yes"/>
      <point x="159" y="971"/>
      <point x="155" y="970"/>
      <point x="151" y="970" type="curve" smooth="yes"/>
      <point x="141" y="970"/>
      <point x="136" y="974"/>
      <point x="134" y="983" type="curve" smooth="yes"/>
      <point x="95" y="1149" type="line"/>
      <point x="95" y="1150" type="line"/>
      <point x="93,7639" y="1155,56"/>
      <point x="92,9098" y="1160,74"/>
      <point x="92,9098" y="1165,78" type="curve" smooth="yes"/>
      <point x="92,9098" y="1168,89"/>
      <point x="93,2361" y="1171,94"/>
      <point x="94" y="1175" type="curve" smooth="yes"/>
      <point x="97" y="1188"/>
      <point x="104" y="1199"/>
      <point x="114" y="1207" type="curve" smooth="yes"/>
      <point x="124" y="1215"/>
      <point x="136" y="1218"/>
    </contour>
    <contour>
      <point x="285" y="1217" type="curve" smooth="yes"/>
      <point x="296" y="1217" type="line"/>
      <point x="311" y="1213"/>
      <point x="322" y="1204"/>
      <point x="330" y="1191" type="curve" smooth="yes"/>
      <point x="335,668" y="1181,79"/>
      <point x="338,324" y="1172,08"/>
      <point x="338,324" y="1161,86" type="curve" smooth="yes"/>
      <point x="338,324" y="1157,66"/>
      <point x="337,875" y="1153,37"/>
      <point x="337" y="1149" type="curve"/>
      <point x="333" y="1135"/>
      <point x="326" y="1124"/>
      <point x="314" y="1116" type="curve" smooth="yes"/>
      <point x="302" y="1108"/>
      <point x="289" y="1105"/>
      <point x="275" y="1107" type="curve"/>
      <point x="303" y="991" type="line"/>
      <point x="303" y="989" type="line" smooth="yes"/>
      <point x="303" y="988"/>
      <point x="304" y="987"/>
      <point x="304" y="987" type="curve"/>
      <point x="304" y="982"/>
      <point x="302" y="978"/>
      <point x="298" y="975" type="curve" smooth="yes"/>
      <point x="294" y="971"/>
      <point x="290" y="970"/>
      <point x="286" y="970" type="curve" smooth="yes"/>
      <point x="276" y="970"/>
      <point x="271" y="974"/>
      <point x="269" y="983" type="curve" smooth="yes"/>
      <point x="230" y="1148" type="line"/>
      <point x="229" y="1149" type="line"/>
      <point x="227" y="1157"/>
      <point x="227" y="1166"/>
      <point x="229" y="1175" type="curve" smooth="yes"/>
      <point x="232" y="1188"/>
      <point x="239" y="1198"/>
      <point x="250" y="1206" type="curve" smooth="yes"/>
      <point x="260" y="1214"/>
      <point x="272" y="1217"/>
    </contour>
    <contour>
      <point x="149" y="1183" type="curve"/>
      <point x="138" y="1183"/>
      <point x="131" y="1177"/>
      <point x="129" y="1167" type="curve" smooth="yes"/>
      <point x="128,5" y="1165"/>
      <point x="128,25" y="1163,25"/>
      <point x="128,25" y="1161,62" type="curve" smooth="yes"/>
      <point x="128,25" y="1160"/>
      <point x="128,5" y="1158,5"/>
      <point x="129" y="1157" type="curve"/>
      <point x="130" y="1157" type="line"/>
      <point x="130" y="1155" type="line"/>
      <point x="133" y="1142" type="line"/>
      <point x="135" y="1143"/>
      <point x="137" y="1144"/>
      <point x="139" y="1144" type="curve" smooth="yes"/>
      <point x="139" y="1144"/>
      <point x="140" y="1143"/>
      <point x="142" y="1143" type="curve" smooth="yes"/>
      <point x="144" y="1143" type="line"/>
      <point x="145,771" y="1142,29"/>
      <point x="147,542" y="1141,96"/>
      <point x="149,314" y="1141,96" type="curve" smooth="yes"/>
      <point x="159" y="1145" type="line" smooth="yes"/>
      <point x="163" y="1148"/>
      <point x="166" y="1152"/>
      <point x="167" y="1158" type="curve" smooth="yes"/>
      <point x="168" y="1163"/>
      <point x="167" y="1168"/>
      <point x="165" y="1173" type="curve"/>
      <point x="162" y="1177"/>
      <point x="158" y="1180"/>
      <point x="153" y="1182" type="curve"/>
      <point x="151" y="1182" type="line" smooth="yes"/>
      <point x="150" y="1182"/>
      <point x="149" y="1183"/>
    </contour>
    <contour>
      <point x="284" y="1183" type="line"/>
      <point x="273" y="1183"/>
      <point x="266" y="1177"/>
      <point x="264" y="1167" type="curve" smooth="yes"/>
      <point x="263,5" y="1165"/>
      <point x="263,25" y="1163,25"/>
      <point x="263,25" y="1161,62" type="curve" smooth="yes"/>
      <point x="263,25" y="1160"/>
      <point x="263,5" y="1158,5"/>
      <point x="264" y="1157" type="curve"/>
      <point x="264" y="1156" type="line"/>
      <point x="265" y="1155" type="line"/>
      <point x="267" y="1142" type="line"/>
      <point x="269" y="1143"/>
      <point x="272" y="1144"/>
      <point x="275" y="1144" type="curve"/>
      <point x="276" y="1143" type="line"/>
      <point x="279" y="1143" type="line"/>
      <point x="280,771" y="1142,29"/>
      <point x="282,542" y="1141,96"/>
      <point x="284,314" y="1141,96" type="curve" smooth="yes"/>
      <point x="294" y="1145" type="line"/>
      <point x="298,3" y="1148,22"/>
      <point x="303,375" y="1153,42"/>
      <point x="303,375" y="1160,75" type="curve" smooth="yes"/>
      <point x="303,375" y="1164,5"/>
      <point x="302,25" y="1168,25"/>
      <point x="300" y="1172" type="curve" smooth="yes"/>
      <point x="296" y="1177"/>
      <point x="292" y="1180"/>
      <point x="288" y="1182" type="curve"/>
      <point x="285" y="1182" type="line"/>
    </contour>
  </outline>
</glyph>
<glyph name="numbersign" format="1">
  <advance width="664"/>
  <unicode hex="0023"/>
  <outline>
    <contour>
      <point x="333" y="1094" type="curve" smooth="yes"/>
      <point x="337" y="1094"/>
      <point x="341" y="1092"/>
      <point x="345" y="1089" type="curve" smooth="yes"/>
      <point x="349" y="1085"/>
      <point x="351" y="1081"/>
      <point x="351" y="1076" type="curve"/>
      <point x="350" y="1074" type="line"/>
      <point x="350" y="1072" type="line"/>
      <point x="274" y="715" type="line"/>
      <point x="464" y="715" type="line"/>
      <point x="542" y="1081" type="line" smooth="yes"/>
      <point x="544" y="1089"/>
      <point x="550" y="1094"/>
      <point x="560" y="1094" type="curve" smooth="yes"/>
      <point x="564" y="1094"/>
      <point x="568" y="1092"/>
      <point x="572" y="1089" type="curve" smooth="yes"/>
      <point x="576" y="1085"/>
      <point x="578" y="1081"/>
      <point x="578" y="1076" type="curve"/>
      <point x="577" y="1074" type="line"/>
      <point x="577" y="1072" type="line"/>
      <point x="501" y="715" type="line"/>
      <point x="560" y="715" type="line" smooth="yes"/>
      <point x="564" y="715"/>
      <point x="568" y="714"/>
      <point x="572" y="710" type="curve" smooth="yes"/>
      <point x="576" y="707"/>
      <point x="578" y="703"/>
      <point x="578" y="698" type="curve" smooth="yes"/>
      <point x="578" y="693"/>
      <point x="576" y="689"/>
      <point x="572" y="685" type="curve" smooth="yes"/>
      <point x="568" y="681"/>
      <point x="564" y="679"/>
      <point x="560" y="679" type="curve" smooth="yes"/>
      <point x="493" y="679" type="line"/>
      <point x="436" y="413" type="line"/>
      <point x="560" y="413" type="line" smooth="yes"/>
      <point x="564" y="413"/>
      <point x="568" y="412"/>
      <point x="572" y="408" type="curve" smooth="yes"/>
      <point x="576" y="404"/>
      <point x="578" y="400"/>
      <point x="578" y="395" type="curve" smooth="yes"/>
      <point x="578" y="391"/>
      <point x="576" y="387"/>
      <point x="572" y="383" type="curve" smooth="yes"/>
      <point x="568" y="379"/>
      <point x="564" y="377"/>
      <point x="560" y="377" type="curve" smooth="yes"/>
      <point x="428" y="377" type="line"/>
      <point x="350" y="14" type="line" smooth="yes"/>
      <point x="348" y="4"/>
      <point x="342" y="-0"/>
      <point x="333" y="-0" type="curve" smooth="yes"/>
      <point x="328" y="-0"/>
      <point x="324" y="1"/>
      <point x="320" y="5" type="curve" smooth="yes"/>
      <point x="316" y="9"/>
      <point x="315" y="13"/>
      <point x="315" y="17" type="curve" smooth="yes"/>
      <point x="315" y="21" type="line"/>
      <point x="392" y="377" type="line"/>
      <point x="202" y="377" type="line"/>
      <point x="123" y="14" type="line" smooth="yes"/>
      <point x="121" y="4"/>
      <point x="115" y="-0"/>
      <point x="106" y="-0" type="curve" smooth="yes"/>
      <point x="101" y="-0"/>
      <point x="97" y="1"/>
      <point x="93" y="5" type="curve" smooth="yes"/>
      <point x="89" y="9"/>
      <point x="88" y="13"/>
      <point x="88" y="17" type="curve" smooth="yes"/>
      <point x="88" y="21" type="line"/>
      <point x="165" y="377" type="line"/>
      <point x="106" y="377" type="line"/>
      <point x="105" y="377" type="line" smooth="yes"/>
      <point x="100" y="377"/>
      <point x="96" y="379"/>
      <point x="93" y="383" type="curve" smooth="yes"/>
      <point x="89" y="387"/>
      <point x="88" y="391"/>
      <point x="88" y="395" type="curve" smooth="yes"/>
      <point x="88" y="400"/>
      <point x="89" y="404"/>
      <point x="93" y="408" type="curve" smooth="yes"/>
      <point x="96" y="412"/>
      <point x="100" y="414"/>
      <point x="105" y="414" type="curve" smooth="yes"/>
      <point x="106" y="414" type="line"/>
      <point x="173" y="414" type="line"/>
      <point x="230" y="680" type="line"/>
      <point x="106" y="680" type="line"/>
      <point x="105" y="680" type="line" smooth="yes"/>
      <point x="100" y="680"/>
      <point x="96" y="681"/>
      <point x="93" y="685" type="curve" smooth="yes"/>
      <point x="89" y="689"/>
      <point x="88" y="693"/>
      <point x="88" y="698" type="curve" smooth="yes"/>
      <point x="88" y="703"/>
      <point x="89" y="707"/>
      <point x="93" y="711" type="curve" smooth="yes"/>
      <point x="96" y="714"/>
      <point x="100" y="716"/>
      <point x="105" y="716" type="curve" smooth="yes"/>
      <point x="106" y="716" type="line"/>
      <point x="237" y="716" type="line"/>
      <point x="315" y="1081" type="line" smooth="yes"/>
      <point x="317" y="1089"/>
      <point x="323" y="1094"/>
    </contour>
    <contour>
      <point x="265" y="679" type="line"/>
      <point x="208" y="413" type="line"/>
      <point x="398" y="413" type="line"/>
      <point x="456" y="679" type="line"/>
    </contour>
  </outline>
</glyph>
<glyph name="dollar" format="1">
  <advance width="882"/>
  <unicode hex="0024"/>
  <outline>
    <contour>
      <point x="356" y="1245" type="curve" smooth="yes"/>
      <point x="361" y="1245"/>
      <point x="365" y="1243"/>
      <point x="369" y="1239" type="curve" smooth="yes"/>
      <point x="372" y="1235"/>
      <point x="374" y="1231"/>
      <point x="374" y="1227" type="curve" smooth="yes"/>
      <point x="374" y="1086" type="line"/>
      <point x="395" y="1090"/>
      <point x="417" y="1093"/>
      <point x="441" y="1094" type="curve" smooth="yes"/>
      <point x="455" y="1094"/>
      <point x="472" y="1092"/>
      <point x="490" y="1089" type="curve"/>
      <point x="490" y="1227" type="line" smooth="yes"/>
      <point x="490" y="1232"/>
      <point x="491" y="1236"/>
      <point x="495" y="1240" type="curve" smooth="yes"/>
      <point x="498" y="1243"/>
      <point x="502" y="1245"/>
      <point x="507" y="1245" type="curve" smooth="yes"/>
      <point x="508" y="1245" type="line" smooth="yes"/>
      <point x="512" y="1245"/>
      <point x="516" y="1243"/>
      <point x="520" y="1239" type="curve" smooth="yes"/>
      <point x="524" y="1235"/>
      <point x="526" y="1231"/>
      <point x="526" y="1227" type="curve" smooth="yes"/>
      <point x="526" y="1081" type="line"/>
      <point x="583" y="1062"/>
      <point x="630" y="1028"/>
      <point x="667" y="978" type="curve" smooth="yes"/>
      <point x="704" y="929"/>
      <point x="723" y="873"/>
      <point x="723" y="811" type="curve" smooth="yes"/>
      <point x="723" y="806"/>
      <point x="721" y="802"/>
      <point x="718" y="798" type="curve"/>
      <point x="714" y="795"/>
      <point x="710" y="793"/>
      <point x="705" y="793" type="curve" smooth="yes"/>
      <point x="700" y="793"/>
      <point x="696" y="795"/>
      <point x="693" y="798" type="curve" smooth="yes"/>
      <point x="689" y="802"/>
      <point x="688" y="806"/>
      <point x="688" y="811" type="curve" smooth="yes"/>
      <point x="688" y="864"/>
      <point x="673" y="911"/>
      <point x="643" y="953" type="curve" smooth="yes"/>
      <point x="613" y="996"/>
      <point x="574" y="1025"/>
      <point x="526" y="1043" type="curve"/>
      <point x="526" y="705" type="line"/>
      <point x="605" y="686"/>
      <point x="670" y="644"/>
      <point x="722" y="579" type="curve" smooth="yes"/>
      <point x="773" y="515"/>
      <point x="799" y="441"/>
      <point x="799" y="357" type="curve" smooth="yes"/>
      <point x="799" y="274"/>
      <point x="773" y="200"/>
      <point x="722" y="135" type="curve"/>
      <point x="670" y="71"/>
      <point x="605" y="29"/>
      <point x="526" y="9" type="curve"/>
      <point x="526" y="-134" type="line" smooth="yes"/>
      <point x="526" y="-138"/>
      <point x="524" y="-142"/>
      <point x="520" y="-146" type="curve" smooth="yes"/>
      <point x="516" y="-149"/>
      <point x="512" y="-151"/>
      <point x="508" y="-151" type="curve" smooth="yes"/>
      <point x="503" y="-151"/>
      <point x="499" y="-149"/>
      <point x="495" y="-146" type="curve" smooth="yes"/>
      <point x="491" y="-142"/>
      <point x="490" y="-138"/>
      <point x="490" y="-134" type="curve" smooth="yes"/>
      <point x="490" y="2" type="line"/>
      <point x="475" y="0"/>
      <point x="459" y="-0"/>
      <point x="441" y="-0" type="curve" smooth="yes"/>
      <point x="419" y="-0"/>
      <point x="397" y="1"/>
      <point x="374" y="5" type="curve"/>
      <point x="374" y="-134" type="line" smooth="yes"/>
      <point x="374" y="-138"/>
      <point x="372" y="-142"/>
      <point x="369" y="-146" type="curve"/>
      <point x="365" y="-149"/>
      <point x="361" y="-151"/>
      <point x="356" y="-151" type="curve" smooth="yes"/>
      <point x="351" y="-151"/>
      <point x="347" y="-149"/>
      <point x="344" y="-146" type="curve" smooth="yes"/>
      <point x="340" y="-142"/>
      <point x="339" y="-138"/>
      <point x="339" y="-134" type="curve" smooth="yes"/>
      <point x="339" y="14" type="line"/>
      <point x="264" y="36"/>
      <point x="203" y="79"/>
      <point x="155" y="142" type="curve" smooth="yes"/>
      <point x="107" y="206"/>
      <point x="83" y="277"/>
      <point x="83" y="357" type="curve" smooth="yes"/>
      <point x="83" y="358" type="line" smooth="yes"/>
      <point x="83" y="363"/>
      <point x="84" y="367"/>
      <point x="88" y="371" type="curve" smooth="yes"/>
      <point x="91" y="375"/>
      <point x="95" y="376"/>
      <point x="100" y="376" type="curve" smooth="yes"/>
      <point x="105" y="376"/>
      <point x="109" y="375"/>
      <point x="113" y="371" type="curve" smooth="yes"/>
      <point x="116" y="367"/>
      <point x="118" y="363"/>
      <point x="118" y="358" type="curve" smooth="yes"/>
      <point x="118" y="357" type="line" smooth="yes"/>
      <point x="118" y="287"/>
      <point x="138" y="223"/>
      <point x="179" y="167" type="curve" smooth="yes"/>
      <point x="220" y="111"/>
      <point x="273" y="73"/>
      <point x="339" y="51" type="curve"/>
      <point x="339" y="662" type="line"/>
      <point x="314" y="654"/>
      <point x="291" y="644"/>
      <point x="271" y="631" type="curve"/>
      <point x="286" y="617"/>
      <point x="302" y="605"/>
      <point x="320" y="595" type="curve"/>
      <point x="326" y="593"/>
      <point x="329" y="588"/>
      <point x="329" y="580" type="curve" smooth="yes"/>
      <point x="329" y="575"/>
      <point x="327" y="571"/>
      <point x="323" y="567" type="curve" smooth="yes"/>
      <point x="319" y="564"/>
      <point x="315" y="562"/>
      <point x="311" y="562" type="curve" smooth="yes"/>
      <point x="307" y="562"/>
      <point x="304" y="563"/>
      <point x="302" y="564" type="curve" smooth="yes"/>
      <point x="277" y="578"/>
      <point x="254" y="597"/>
      <point x="233" y="619" type="curve" smooth="yes"/>
      <point x="230" y="623"/>
      <point x="228" y="625"/>
      <point x="228" y="625" type="curve" smooth="yes"/>
      <point x="182" y="679"/>
      <point x="159" y="741"/>
      <point x="159" y="811" type="curve" smooth="yes"/>
      <point x="159" y="870"/>
      <point x="175" y="923"/>
      <point x="208" y="971" type="curve" smooth="yes"/>
      <point x="241" y="1019"/>
      <point x="285" y="1053"/>
      <point x="339" y="1075" type="curve"/>
      <point x="339" y="1227" type="line" smooth="yes"/>
      <point x="339" y="1231"/>
      <point x="340" y="1235"/>
      <point x="344" y="1239" type="curve" smooth="yes"/>
      <point x="347" y="1243"/>
      <point x="351" y="1245"/>
    </contour>
    <contour>
      <point x="441" y="1059" type="curve" smooth="yes"/>
      <point x="420" y="1059"/>
      <point x="398" y="1055"/>
      <point x="374" y="1049" type="curve"/>
      <point x="374" y="709" type="line"/>
      <point x="397" y="713"/>
      <point x="419" y="715"/>
      <point x="441" y="715" type="curve" smooth="yes"/>
      <point x="459" y="715"/>
      <point x="475" y="714"/>
      <point x="490" y="712" type="curve"/>
      <point x="490" y="1054" type="line"/>
      <point x="474" y="1057"/>
      <point x="457" y="1059"/>
    </contour>
    <contour>
      <point x="339" y="1036" type="line"/>
      <point x="295" y="1016"/>
      <point x="260" y="985"/>
      <point x="234" y="945" type="curve" smooth="yes"/>
      <point x="207" y="905"/>
      <point x="194" y="860"/>
      <point x="194" y="811" type="curve" smooth="yes"/>
      <point x="194" y="753"/>
      <point x="211" y="702"/>
      <point x="247" y="658" type="curve"/>
      <point x="277" y="677"/>
      <point x="307" y="691"/>
      <point x="339" y="700" type="curve"/>
    </contour>
    <contour>
      <point x="441" y="679" type="curve" smooth="yes"/>
      <point x="418" y="679"/>
      <point x="396" y="677"/>
      <point x="374" y="672" type="curve"/>
      <point x="374" y="41" type="line"/>
      <point x="393" y="37"/>
      <point x="415" y="35"/>
      <point x="441" y="35" type="curve" smooth="yes"/>
      <point x="459" y="35"/>
      <point x="475" y="36"/>
      <point x="490" y="38" type="curve"/>
      <point x="490" y="675" type="line"/>
      <point x="472" y="678"/>
      <point x="455" y="679"/>
    </contour>
    <contour>
      <point x="526" y="668" type="curve"/>
      <point x="526" y="46" type="line"/>
      <point x="595" y="65"/>
      <point x="652" y="103"/>
      <point x="696" y="160" type="curve" smooth="yes"/>
      <point x="740" y="218"/>
      <point x="763" y="283"/>
      <point x="763" y="357" type="curve" smooth="yes"/>
      <point x="763" y="431"/>
      <point x="740" y="497"/>
      <point x="696" y="554" type="curve" smooth="yes"/>
      <point x="652" y="612"/>
      <point x="595" y="650"/>
    </contour>
  </outline>
</glyph>
<glyph name="percent" format="1">
  <advance width="878"/>
  <unicode hex="0025"/>
  <outline>
    <contour>
      <point x="778" y="1093" type="curve" smooth="yes"/>
      <point x="779" y="1093" type="line" smooth="yes"/>
      <point x="784" y="1093"/>
      <point x="788" y="1091"/>
      <point x="791" y="1087" type="curve" smooth="yes"/>
      <point x="795" y="1083"/>
      <point x="796" y="1079"/>
      <point x="796" y="1075" type="curve" smooth="yes"/>
      <point x="796" y="1071"/>
      <point x="796" y="1067"/>
      <point x="794" y="1065" type="curve" smooth="yes"/>
      <point x="113" y="7" type="line" smooth="yes"/>
      <point x="110" y="1"/>
      <point x="105" y="-0"/>
      <point x="98" y="-0" type="curve" smooth="yes"/>
      <point x="93" y="-0"/>
      <point x="89" y="0"/>
      <point x="86" y="4" type="curve"/>
      <point x="82" y="7"/>
      <point x="81" y="11"/>
      <point x="81" y="16" type="curve" smooth="yes"/>
      <point x="81" y="19"/>
      <point x="82" y="22"/>
      <point x="84" y="26" type="curve" smooth="yes"/>
      <point x="765" y="1085" type="line"/>
      <point x="767" y="1090"/>
      <point x="772" y="1093"/>
    </contour>
    <contour>
      <point x="288" y="1092" type="curve" smooth="yes"/>
      <point x="324" y="1092"/>
      <point x="354" y="1079"/>
      <point x="380" y="1053" type="curve" smooth="yes"/>
      <point x="405" y="1027"/>
      <point x="418" y="997"/>
      <point x="418" y="961" type="curve" smooth="yes"/>
      <point x="418" y="925"/>
      <point x="405" y="895"/>
      <point x="380" y="870" type="curve" smooth="yes"/>
      <point x="354" y="844"/>
      <point x="324" y="832"/>
      <point x="288" y="832" type="curve" smooth="yes"/>
      <point x="252" y="832"/>
      <point x="222" y="844"/>
      <point x="196" y="870" type="curve" smooth="yes"/>
      <point x="170" y="895"/>
      <point x="157" y="925"/>
      <point x="157" y="961" type="curve" smooth="yes"/>
      <point x="157" y="997"/>
      <point x="170" y="1027"/>
      <point x="196" y="1053" type="curve" smooth="yes"/>
      <point x="222" y="1079"/>
      <point x="252" y="1092"/>
    </contour>
    <contour>
      <point x="288" y="1059" type="curve" smooth="yes"/>
      <point x="261" y="1059"/>
      <point x="238" y="1049"/>
      <point x="219" y="1030" type="curve" smooth="yes"/>
      <point x="200" y="1011"/>
      <point x="191" y="988"/>
      <point x="191" y="961" type="curve" smooth="yes"/>
      <point x="191" y="934"/>
      <point x="200" y="911"/>
      <point x="219" y="893" type="curve" smooth="yes"/>
      <point x="238" y="874"/>
      <point x="261" y="865"/>
      <point x="288" y="865" type="curve" smooth="yes"/>
      <point x="314" y="865"/>
      <point x="337" y="874"/>
      <point x="356" y="893" type="curve" smooth="yes"/>
      <point x="375" y="911"/>
      <point x="385" y="934"/>
      <point x="385" y="961" type="curve" smooth="yes"/>
      <point x="385" y="988"/>
      <point x="375" y="1011"/>
      <point x="356" y="1030" type="curve" smooth="yes"/>
      <point x="337" y="1049"/>
      <point x="314" y="1059"/>
    </contour>
    <contour>
      <point x="590" y="260" type="curve" smooth="yes"/>
      <point x="626" y="260"/>
      <point x="656" y="247"/>
      <point x="682" y="221" type="curve" smooth="yes"/>
      <point x="707" y="195"/>
      <point x="720" y="165"/>
      <point x="720" y="129" type="curve" smooth="yes"/>
      <point x="720" y="93"/>
      <point x="707" y="63"/>
      <point x="682" y="38" type="curve" smooth="yes"/>
      <point x="656" y="12"/>
      <point x="626" y="0"/>
      <point x="590" y="0" type="curve" smooth="yes"/>
      <point x="554" y="0"/>
      <point x="524" y="12"/>
      <point x="498" y="38" type="curve" smooth="yes"/>
      <point x="472" y="63"/>
      <point x="459" y="93"/>
      <point x="459" y="129" type="curve" smooth="yes"/>
      <point x="459" y="165"/>
      <point x="472" y="195"/>
      <point x="498" y="221" type="curve" smooth="yes"/>
      <point x="524" y="247"/>
      <point x="554" y="260"/>
    </contour>
    <contour>
      <point x="590" y="227" type="curve" smooth="yes"/>
      <point x="563" y="227"/>
      <point x="540" y="217"/>
      <point x="521" y="198" type="curve" smooth="yes"/>
      <point x="502" y="179"/>
      <point x="493" y="156"/>
      <point x="493" y="130" type="curve" smooth="yes"/>
      <point x="493" y="103"/>
      <point x="502" y="80"/>
      <point x="521" y="61" type="curve" smooth="yes"/>
      <point x="540" y="42"/>
      <point x="563" y="33"/>
      <point x="590" y="33" type="curve" smooth="yes"/>
      <point x="617" y="33"/>
      <point x="640" y="42"/>
      <point x="659" y="61" type="curve" smooth="yes"/>
      <point x="677" y="80"/>
      <point x="687" y="103"/>
      <point x="687" y="130" type="curve" smooth="yes"/>
      <point x="687" y="156"/>
      <point x="677" y="179"/>
      <point x="659" y="198" type="curve" smooth="yes"/>
      <point x="640" y="217"/>
      <point x="617" y="227"/>
    </contour>
  </outline>
</glyph>
<glyph name="ampersand" format="1">
  <advance width="1000"/>
  <unicode hex="0026"/>
  <outline>
    <contour>
      <point x="446" y="1094" type="curve" smooth="yes"/>
      <point x="523" y="1094"/>
      <point x="589" y="1066"/>
      <point x="644" y="1011" type="curve" smooth="yes"/>
      <point x="700" y="955"/>
      <point x="727" y="889"/>
      <point x="727" y="812" type="curve" smooth="yes"/>
      <point x="727" y="740"/>
      <point x="703" y="677"/>
      <point x="655" y="623" type="curve" smooth="yes"/>
      <point x="651" y="619"/>
      <point x="647" y="617"/>
      <point x="642" y="617" type="curve" smooth="yes"/>
      <point x="638" y="617"/>
      <point x="635" y="618"/>
      <point x="632" y="620" type="curve" smooth="yes"/>
      <point x="576" y="660"/>
      <point x="513" y="680"/>
      <point x="445" y="680" type="curve" smooth="yes"/>
      <point x="409" y="680"/>
      <point x="376" y="675"/>
      <point x="345" y="665" type="curve"/>
      <point x="343" y="663"/>
      <point x="341" y="663"/>
      <point x="338" y="663" type="curve" smooth="yes"/>
      <point x="334" y="663"/>
      <point x="330" y="664"/>
      <point x="326" y="668" type="curve" smooth="yes"/>
      <point x="323" y="672"/>
      <point x="321" y="676"/>
      <point x="321" y="681" type="curve" smooth="yes"/>
      <point x="321" y="685"/>
      <point x="323" y="688"/>
      <point x="325" y="692" type="curve"/>
      <point x="328" y="695"/>
      <point x="331" y="697"/>
      <point x="334" y="698" type="curve" smooth="yes"/>
      <point x="371" y="710"/>
      <point x="408" y="716"/>
      <point x="445" y="716" type="curve" smooth="yes"/>
      <point x="515" y="716"/>
      <point x="579" y="697"/>
      <point x="639" y="659" type="curve"/>
      <point x="675" y="703"/>
      <point x="692" y="754"/>
      <point x="692" y="812" type="curve" smooth="yes"/>
      <point x="692" y="880"/>
      <point x="668" y="938"/>
      <point x="620" y="986" type="curve" smooth="yes"/>
      <point x="572" y="1034"/>
      <point x="513" y="1059"/>
      <point x="445" y="1059" type="curve" smooth="yes"/>
      <point x="419" y="1059"/>
      <point x="393" y="1055"/>
      <point x="368" y="1047" type="curve" smooth="yes"/>
      <point x="345" y="1039"/>
      <point x="323" y="1027"/>
      <point x="302" y="1012" type="curve" smooth="yes"/>
      <point x="270" y="989"/>
      <point x="245" y="960"/>
      <point x="226" y="925" type="curve" smooth="yes"/>
      <point x="208" y="890"/>
      <point x="198" y="852"/>
      <point x="198" y="812" type="curve" smooth="yes"/>
      <point x="198" y="778"/>
      <point x="205" y="746"/>
      <point x="217" y="716" type="curve"/>
      <point x="225" y="700"/>
      <point x="243" y="676"/>
      <point x="271" y="644" type="curve"/>
      <point x="309" y="605" type="line"/>
      <point x="729" y="204" type="line"/>
      <point x="752" y="241"/>
      <point x="779" y="288"/>
      <point x="810" y="345" type="curve" smooth="yes"/>
      <point x="884" y="480" type="line"/>
      <point x="886" y="486"/>
      <point x="892" y="490"/>
      <point x="900" y="490" type="curve" smooth="yes"/>
      <point x="904" y="490"/>
      <point x="908" y="488"/>
      <point x="912" y="485" type="curve" smooth="yes"/>
      <point x="916" y="481"/>
      <point x="918" y="477"/>
      <point x="918" y="472" type="curve" smooth="yes"/>
      <point x="918" y="468"/>
      <point x="917" y="465"/>
      <point x="915" y="463" type="curve" smooth="yes"/>
      <point x="892" y="420"/>
      <point x="868" y="375"/>
      <point x="842" y="328" type="curve" smooth="yes"/>
      <point x="802" y="256"/>
      <point x="774" y="207"/>
      <point x="757" y="179" type="curve"/>
      <point x="912" y="31" type="line" smooth="yes"/>
      <point x="916" y="27"/>
      <point x="918" y="22"/>
      <point x="918" y="18" type="curve" smooth="yes"/>
      <point x="918" y="13"/>
      <point x="916" y="9"/>
      <point x="912" y="5" type="curve" smooth="yes"/>
      <point x="908" y="1"/>
      <point x="904" y="0"/>
      <point x="899" y="0" type="curve" smooth="yes"/>
      <point x="894" y="0"/>
      <point x="890" y="1"/>
      <point x="887" y="5" type="curve" smooth="yes"/>
      <point x="736" y="149" type="line"/>
      <point x="703" y="103"/>
      <point x="661" y="66"/>
      <point x="610" y="40" type="curve" smooth="yes"/>
      <point x="559" y="13"/>
      <point x="504" y="0"/>
      <point x="446" y="0" type="curve" smooth="yes"/>
      <point x="380" y="0"/>
      <point x="320" y="16"/>
      <point x="266" y="48" type="curve" smooth="yes"/>
      <point x="211" y="80"/>
      <point x="168" y="123"/>
      <point x="136" y="178" type="curve" smooth="yes"/>
      <point x="104" y="233"/>
      <point x="88" y="293"/>
      <point x="88" y="358" type="curve" smooth="yes"/>
      <point x="88" y="414"/>
      <point x="100" y="467"/>
      <point x="125" y="517" type="curve" smooth="yes"/>
      <point x="149" y="566"/>
      <point x="183" y="607"/>
      <point x="227" y="641" type="curve"/>
      <point x="209" y="661"/>
      <point x="196" y="681"/>
      <point x="186" y="701" type="curve"/>
      <point x="185" y="701" type="line"/>
      <point x="171" y="735"/>
      <point x="164" y="772"/>
      <point x="164" y="812" type="curve" smooth="yes"/>
      <point x="164" y="858"/>
      <point x="174" y="901"/>
      <point x="195" y="941" type="curve" smooth="yes"/>
      <point x="216" y="981"/>
      <point x="245" y="1015"/>
      <point x="281" y="1041" type="curve"/>
      <point x="281" y="1041"/>
      <point x="281" y="1042"/>
      <point x="282" y="1042" type="curve" smooth="yes"/>
      <point x="284" y="1042" type="line"/>
      <point x="305" y="1058"/>
      <point x="330" y="1070"/>
      <point x="359" y="1080" type="curve" smooth="yes"/>
      <point x="387" y="1089"/>
      <point x="416" y="1094"/>
    </contour>
    <contour>
      <point x="251" y="615" type="curve"/>
      <point x="211" y="584"/>
      <point x="180" y="546"/>
      <point x="157" y="502" type="curve" smooth="yes"/>
      <point x="134" y="457"/>
      <point x="123" y="409"/>
      <point x="123" y="358" type="curve" smooth="yes"/>
      <point x="123" y="299"/>
      <point x="137" y="245"/>
      <point x="166" y="196" type="curve"/>
      <point x="194" y="146"/>
      <point x="233" y="107"/>
      <point x="283" y="79" type="curve" smooth="yes"/>
      <point x="333" y="50"/>
      <point x="387" y="36"/>
      <point x="446" y="36" type="curve" smooth="yes"/>
      <point x="498" y="36"/>
      <point x="548" y="48"/>
      <point x="594" y="72" type="curve" smooth="yes"/>
      <point x="640" y="96"/>
      <point x="678" y="128"/>
      <point x="708" y="170" type="curve"/>
      <point x="708" y="170"/>
      <point x="708" y="171"/>
      <point x="709" y="172" type="curve" smooth="yes"/>
      <point x="710" y="174" type="line"/>
      <point x="286" y="579" type="line" smooth="yes"/>
      <point x="275" y="589"/>
      <point x="263" y="601"/>
    </contour>
  </outline>
</glyph>
<glyph name="parenleft" format="1">
  <advance width="386"/>
  <unicode hex="0028"/>
  <outline>
    <contour>
      <point x="290" y="1217" type="curve" smooth="yes"/>
      <point x="294" y="1217"/>
      <point x="298" y="1215"/>
      <point x="302" y="1212" type="curve" smooth="yes"/>
      <point x="306" y="1208"/>
      <point x="308" y="1204"/>
      <point x="308" y="1200" type="curve" smooth="yes"/>
      <point x="308" y="1196"/>
      <point x="307" y="1194"/>
      <point x="305" y="1192" type="curve" smooth="yes"/>
      <point x="280" y="1145"/>
      <point x="259" y="1101"/>
      <point x="242" y="1060" type="curve" smooth="yes"/>
      <point x="205" y="973"/>
      <point x="176" y="880"/>
      <point x="155" y="779" type="curve" smooth="yes"/>
      <point x="135" y="681"/>
      <point x="124" y="580"/>
      <point x="124" y="478" type="curve" smooth="yes"/>
      <point x="124" y="376"/>
      <point x="135" y="276"/>
      <point x="155" y="177" type="curve" smooth="yes"/>
      <point x="176" y="76"/>
      <point x="205" y="-17"/>
      <point x="242" y="-103" type="curve" smooth="yes"/>
      <point x="258" y="-141"/>
      <point x="279" y="-185"/>
      <point x="305" y="-233" type="curve" smooth="yes"/>
      <point x="307" y="-235"/>
      <point x="308" y="-238"/>
      <point x="308" y="-241" type="curve" smooth="yes"/>
      <point x="308" y="-246"/>
      <point x="306" y="-250"/>
      <point x="302" y="-254" type="curve" smooth="yes"/>
      <point x="298" y="-257"/>
      <point x="294" y="-259"/>
      <point x="290" y="-259" type="curve" smooth="yes"/>
      <point x="282" y="-259"/>
      <point x="277" y="-256"/>
      <point x="275" y="-250" type="curve"/>
      <point x="249" y="-204"/>
      <point x="228" y="-159"/>
      <point x="210" y="-117" type="curve" smooth="yes"/>
      <point x="170" y="-24"/>
      <point x="141" y="71"/>
      <point x="121" y="170" type="curve" smooth="yes"/>
      <point x="100" y="271"/>
      <point x="90" y="374"/>
      <point x="90" y="478" type="curve" smooth="yes"/>
      <point x="90" y="583"/>
      <point x="100" y="686"/>
      <point x="121" y="786" type="curve" smooth="yes"/>
      <point x="141" y="886"/>
      <point x="170" y="982"/>
      <point x="210" y="1075" type="curve" smooth="yes"/>
      <point x="228" y="1117"/>
      <point x="249" y="1162"/>
      <point x="275" y="1209" type="curve" smooth="yes"/>
      <point x="277" y="1214"/>
      <point x="282" y="1217"/>
    </contour>
  </outline>
</glyph>
<glyph name="parenright" format="1">
  <advance width="384"/>
  <unicode hex="0029"/>
  <outline>
    <contour>
      <point x="97" y="1217" type="curve" smooth="yes"/>
      <point x="98" y="1217" type="line" smooth="yes"/>
      <point x="105" y="1217"/>
      <point x="110" y="1214"/>
      <point x="113" y="1209" type="curve" smooth="yes"/>
      <point x="138" y="1162"/>
      <point x="160" y="1117"/>
      <point x="178" y="1075" type="curve" smooth="yes"/>
      <point x="217" y="982"/>
      <point x="247" y="886"/>
      <point x="267" y="787" type="curve" smooth="yes"/>
      <point x="287" y="686"/>
      <point x="298" y="583"/>
      <point x="298" y="479" type="curve" smooth="yes"/>
      <point x="298" y="374"/>
      <point x="287" y="271"/>
      <point x="267" y="171" type="curve" smooth="yes"/>
      <point x="247" y="71"/>
      <point x="217" y="-24"/>
      <point x="178" y="-116" type="curve" smooth="yes"/>
      <point x="160" y="-159"/>
      <point x="138" y="-203"/>
      <point x="113" y="-249" type="curve" smooth="yes"/>
      <point x="110" y="-255"/>
      <point x="105" y="-258"/>
      <point x="98" y="-258" type="curve" smooth="yes"/>
      <point x="93" y="-258"/>
      <point x="89" y="-257"/>
      <point x="85" y="-253" type="curve" smooth="yes"/>
      <point x="81" y="-250"/>
      <point x="80" y="-246"/>
      <point x="80" y="-241" type="curve" smooth="yes"/>
      <point x="80" y="-238"/>
      <point x="81" y="-235"/>
      <point x="83" y="-232" type="curve" smooth="yes"/>
      <point x="106" y="-189"/>
      <point x="127" y="-146"/>
      <point x="145" y="-103" type="curve" smooth="yes"/>
      <point x="182" y="-15"/>
      <point x="211" y="78"/>
      <point x="232" y="178" type="curve" smooth="yes"/>
      <point x="252" y="274"/>
      <point x="262" y="374"/>
      <point x="262" y="479" type="curve" smooth="yes"/>
      <point x="262" y="583"/>
      <point x="252" y="684"/>
      <point x="232" y="780" type="curve" smooth="yes"/>
      <point x="212" y="878"/>
      <point x="183" y="971"/>
      <point x="145" y="1060" type="curve" smooth="yes"/>
      <point x="125" y="1106"/>
      <point x="105" y="1150"/>
      <point x="83" y="1192" type="curve" smooth="yes"/>
      <point x="81" y="1194"/>
      <point x="80" y="1196"/>
      <point x="80" y="1200" type="curve" smooth="yes"/>
      <point x="80" y="1204"/>
      <point x="81" y="1208"/>
      <point x="85" y="1212" type="curve" smooth="yes"/>
      <point x="88" y="1215"/>
      <point x="92" y="1217"/>
    </contour>
  </outline>
</glyph>
<glyph name="asterisk" format="1">
  <advance width="593"/>
  <unicode hex="002A"/>
  <outline>
    <contour>
      <point x="296" y="1217" type="curve" smooth="yes"/>
      <point x="301" y="1217"/>
      <point x="305" y="1215"/>
      <point x="308" y="1212" type="curve" smooth="yes"/>
      <point x="312" y="1208"/>
      <point x="313" y="1204"/>
      <point x="313" y="1200" type="curve" smooth="yes"/>
      <point x="313" y="1054" type="line"/>
      <point x="417" y="1157" type="line" smooth="yes"/>
      <point x="421" y="1160"/>
      <point x="426" y="1162"/>
      <point x="430" y="1162" type="curve" smooth="yes"/>
      <point x="435" y="1162"/>
      <point x="439" y="1160"/>
      <point x="443" y="1157" type="curve" smooth="yes"/>
      <point x="447" y="1153"/>
      <point x="449" y="1149"/>
      <point x="449" y="1144" type="curve" smooth="yes"/>
      <point x="449" y="1139"/>
      <point x="447" y="1135"/>
      <point x="443" y="1132" type="curve" smooth="yes"/>
      <point x="339" y="1029" type="line"/>
      <point x="485" y="1029" type="line"/>
      <point x="486" y="1029" type="line" smooth="yes"/>
      <point x="490" y="1029"/>
      <point x="494" y="1027"/>
      <point x="498" y="1023" type="curve" smooth="yes"/>
      <point x="502" y="1019"/>
      <point x="504" y="1015"/>
      <point x="504" y="1011" type="curve" smooth="yes"/>
      <point x="504" y="1006"/>
      <point x="502" y="1002"/>
      <point x="498" y="998" type="curve" smooth="yes"/>
      <point x="494" y="994"/>
      <point x="490" y="992"/>
      <point x="486" y="992" type="curve" smooth="yes"/>
      <point x="485" y="992" type="line"/>
      <point x="339" y="992" type="line"/>
      <point x="443" y="888" type="line" smooth="yes"/>
      <point x="446" y="886"/>
      <point x="448" y="882"/>
      <point x="448" y="877" type="curve" smooth="yes"/>
      <point x="448" y="872"/>
      <point x="446" y="868"/>
      <point x="442" y="864" type="curve" smooth="yes"/>
      <point x="438" y="860"/>
      <point x="434" y="858"/>
      <point x="430" y="858" type="curve" smooth="yes"/>
      <point x="425" y="858"/>
      <point x="421" y="860"/>
      <point x="418" y="863" type="curve" smooth="yes"/>
      <point x="314" y="967" type="line"/>
      <point x="314" y="821" type="line"/>
      <point x="314" y="820" type="line" smooth="yes"/>
      <point x="314" y="816"/>
      <point x="312" y="812"/>
      <point x="309" y="808" type="curve"/>
      <point x="305" y="805"/>
      <point x="301" y="803"/>
      <point x="296" y="803" type="curve" smooth="yes"/>
      <point x="291" y="803"/>
      <point x="287" y="805"/>
      <point x="284" y="808" type="curve" smooth="yes"/>
      <point x="280" y="812"/>
      <point x="279" y="816"/>
      <point x="279" y="820" type="curve" smooth="yes"/>
      <point x="279" y="821" type="line"/>
      <point x="279" y="967" type="line"/>
      <point x="176" y="863" type="line" smooth="yes"/>
      <point x="172" y="860"/>
      <point x="168" y="858"/>
      <point x="163" y="858" type="curve" smooth="yes"/>
      <point x="158" y="858"/>
      <point x="154" y="860"/>
      <point x="150" y="864" type="curve" smooth="yes"/>
      <point x="146" y="868"/>
      <point x="144" y="872"/>
      <point x="144" y="876" type="curve" smooth="yes"/>
      <point x="144" y="881"/>
      <point x="146" y="885"/>
      <point x="150" y="888" type="curve" smooth="yes"/>
      <point x="253" y="992" type="line"/>
      <point x="107" y="992" type="line" smooth="yes"/>
      <point x="102" y="992"/>
      <point x="98" y="994"/>
      <point x="95" y="998" type="curve" smooth="yes"/>
      <point x="91" y="1002"/>
      <point x="90" y="1006"/>
      <point x="90" y="1011" type="curve" smooth="yes"/>
      <point x="90" y="1015"/>
      <point x="91" y="1019"/>
      <point x="95" y="1023" type="curve" smooth="yes"/>
      <point x="98" y="1027"/>
      <point x="102" y="1029"/>
      <point x="108" y="1029" type="curve" smooth="yes"/>
      <point x="254" y="1029" type="line"/>
      <point x="151" y="1132" type="line" smooth="yes"/>
      <point x="147" y="1135"/>
      <point x="145" y="1139"/>
      <point x="145" y="1144" type="curve" smooth="yes"/>
      <point x="145" y="1149"/>
      <point x="146" y="1153"/>
      <point x="150" y="1157" type="curve" smooth="yes"/>
      <point x="154" y="1160"/>
      <point x="158" y="1162"/>
      <point x="163" y="1162" type="curve" smooth="yes"/>
      <point x="167" y="1162"/>
      <point x="172" y="1160"/>
      <point x="176" y="1157" type="curve" smooth="yes"/>
      <point x="279" y="1054" type="line"/>
      <point x="279" y="1200" type="line" smooth="yes"/>
      <point x="279" y="1204"/>
      <point x="280" y="1208"/>
      <point x="284" y="1212" type="curve" smooth="yes"/>
      <point x="287" y="1215"/>
      <point x="291" y="1217"/>
    </contour>
  </outline>
</glyph>
<glyph name="plus" format="1">
  <advance width="738"/>
  <unicode hex="002B"/>
  <outline>
    <contour>
      <point x="370" y="676" type="curve" smooth="yes"/>
      <point x="374" y="676"/>
      <point x="378" y="674"/>
      <point x="382" y="671" type="curve" smooth="yes"/>
      <point x="386" y="667"/>
      <point x="388" y="663"/>
      <point x="388" y="659" type="curve" smooth="yes"/>
      <point x="388" y="416" type="line"/>
      <point x="631" y="416" type="line" smooth="yes"/>
      <point x="635" y="416"/>
      <point x="639" y="414"/>
      <point x="643" y="410" type="curve" smooth="yes"/>
      <point x="647" y="406"/>
      <point x="649" y="402"/>
      <point x="649" y="397" type="curve" smooth="yes"/>
      <point x="649" y="392"/>
      <point x="647" y="388"/>
      <point x="643" y="385" type="curve" smooth="yes"/>
      <point x="639" y="381"/>
      <point x="635" y="380"/>
      <point x="631" y="380" type="curve" smooth="yes"/>
      <point x="388" y="380" type="line"/>
      <point x="388" y="137" type="line"/>
      <point x="388" y="136" type="line" smooth="yes"/>
      <point x="388" y="131"/>
      <point x="386" y="127"/>
      <point x="382" y="123" type="curve" smooth="yes"/>
      <point x="378" y="119"/>
      <point x="374" y="117"/>
      <point x="370" y="117" type="curve" smooth="yes"/>
      <point x="365" y="117"/>
      <point x="361" y="119"/>
      <point x="357" y="123" type="curve" smooth="yes"/>
      <point x="353" y="127"/>
      <point x="351" y="131"/>
      <point x="351" y="136" type="curve" smooth="yes"/>
      <point x="351" y="137" type="line"/>
      <point x="351" y="380" type="line"/>
      <point x="108" y="380" type="line" smooth="yes"/>
      <point x="104" y="380"/>
      <point x="100" y="381"/>
      <point x="96" y="385" type="curve" smooth="yes"/>
      <point x="93" y="388"/>
      <point x="91" y="392"/>
      <point x="91" y="397" type="curve" smooth="yes"/>
      <point x="91" y="402"/>
      <point x="93" y="406"/>
      <point x="96" y="410" type="curve" smooth="yes"/>
      <point x="100" y="414"/>
      <point x="104" y="416"/>
      <point x="108" y="416" type="curve" smooth="yes"/>
      <point x="351" y="416" type="line"/>
      <point x="351" y="659" type="line" smooth="yes"/>
      <point x="351" y="663"/>
      <point x="353" y="667"/>
      <point x="357" y="671" type="curve" smooth="yes"/>
      <point x="361" y="674"/>
      <point x="365" y="676"/>
    </contour>
  </outline>
</glyph>
<glyph name="comma" format="1">
  <advance width="299"/>
  <unicode hex="002C"/>
  <outline>
    <contour>
      <point x="153" y="110" type="curve" smooth="yes"/>
      <point x="168" y="110"/>
      <point x="181" y="104"/>
      <point x="192" y="94" type="curve" smooth="yes"/>
      <point x="203" y="83"/>
      <point x="209" y="70"/>
      <point x="209" y="55" type="curve" smooth="yes"/>
      <point x="209" y="46"/>
      <point x="206" y="38"/>
      <point x="202" y="30" type="curve"/>
      <point x="202" y="29" type="line"/>
      <point x="202" y="28" type="line"/>
      <point x="126" y="-122" type="line" smooth="yes"/>
      <point x="123" y="-128"/>
      <point x="118" y="-132"/>
      <point x="111" y="-132" type="curve" smooth="yes"/>
      <point x="106" y="-132"/>
      <point x="102" y="-130"/>
      <point x="98" y="-127" type="curve" smooth="yes"/>
      <point x="94" y="-123"/>
      <point x="93" y="-119"/>
      <point x="93" y="-114" type="curve" smooth="yes"/>
      <point x="93" y="-112"/>
      <point x="93" y="-110"/>
      <point x="95" y="-107" type="curve" smooth="yes"/>
      <point x="148" y="-0" type="line"/>
      <point x="134" y="1"/>
      <point x="122" y="7"/>
      <point x="112" y="18" type="curve" smooth="yes"/>
      <point x="102" y="28"/>
      <point x="98" y="41"/>
      <point x="98" y="55" type="curve" smooth="yes"/>
      <point x="98" y="70"/>
      <point x="103" y="83"/>
      <point x="114" y="94" type="curve" smooth="yes"/>
      <point x="124" y="104"/>
      <point x="137" y="110"/>
    </contour>
    <contour>
      <point x="153" y="75" type="curve" smooth="yes"/>
      <point x="147" y="75"/>
      <point x="143" y="73"/>
      <point x="139" y="69" type="curve" smooth="yes"/>
      <point x="135" y="65"/>
      <point x="134" y="61"/>
      <point x="134" y="55" type="curve" smooth="yes"/>
      <point x="134" y="49"/>
      <point x="135" y="44"/>
      <point x="139" y="40" type="curve" smooth="yes"/>
      <point x="143" y="36"/>
      <point x="147" y="35"/>
      <point x="153" y="35" type="curve" smooth="yes"/>
      <point x="157" y="35"/>
      <point x="160" y="34"/>
      <point x="164" y="32" type="curve"/>
      <point x="170" y="44" type="line"/>
      <point x="170" y="45" type="line"/>
      <point x="171" y="45" type="line"/>
      <point x="172" y="48"/>
      <point x="173" y="51"/>
      <point x="173" y="55" type="curve" smooth="yes"/>
      <point x="173" y="61"/>
      <point x="171" y="65"/>
      <point x="167" y="69" type="curve" smooth="yes"/>
      <point x="163" y="73"/>
      <point x="159" y="75"/>
    </contour>
  </outline>
</glyph>
<glyph name="hyphen" format="1">
  <advance width="758"/>
  <unicode hex="002D"/>
  <outline>
    <contour>
      <point x="116" y="416" type="curve" smooth="yes"/>
      <point x="644" y="416" type="line"/>
      <point x="645" y="416" type="line" smooth="yes"/>
      <point x="650" y="416"/>
      <point x="654" y="414"/>
      <point x="657" y="410" type="curve" smooth="yes"/>
      <point x="661" y="406"/>
      <point x="662" y="402"/>
      <point x="662" y="397" type="curve" smooth="yes"/>
      <point x="662" y="392"/>
      <point x="661" y="388"/>
      <point x="657" y="385" type="curve"/>
      <point x="654" y="381"/>
      <point x="650" y="380"/>
      <point x="645" y="380" type="curve" smooth="yes"/>
      <point x="644" y="380" type="line"/>
      <point x="115" y="380" type="line" smooth="yes"/>
      <point x="111" y="380"/>
      <point x="107" y="381"/>
      <point x="103" y="385" type="curve" smooth="yes"/>
      <point x="99" y="388"/>
      <point x="97" y="392"/>
      <point x="97" y="397" type="curve" smooth="yes"/>
      <point x="97" y="402"/>
      <point x="99" y="406"/>
      <point x="103" y="410" type="curve" smooth="yes"/>
      <point x="107" y="414"/>
      <point x="111" y="416"/>
    </contour>
  </outline>
</glyph>
<glyph name="period" format="1">
  <advance width="296"/>
  <unicode hex="002E"/>
  <outline>
    <contour>
      <point x="148" y="111" type="curve" smooth="yes"/>
      <point x="163" y="111"/>
      <point x="176" y="105"/>
      <point x="187" y="94" type="curve" smooth="yes"/>
      <point x="198" y="83"/>
      <point x="204" y="70"/>
      <point x="204" y="55" type="curve" smooth="yes"/>
      <point x="204" y="39"/>
      <point x="198" y="26"/>
      <point x="187" y="16" type="curve" smooth="yes"/>
      <point x="176" y="5"/>
      <point x="163" y="0"/>
      <point x="148" y="0" type="curve" smooth="yes"/>
      <point x="132" y="-0"/>
      <point x="119" y="5"/>
      <point x="109" y="16" type="curve"/>
      <point x="98" y="26"/>
      <point x="93" y="39"/>
      <point x="93" y="55" type="curve" smooth="yes"/>
      <point x="93" y="70"/>
      <point x="98" y="83"/>
      <point x="109" y="94" type="curve" smooth="yes"/>
      <point x="119" y="105"/>
      <point x="132" y="111"/>
    </contour>
    <contour>
      <point x="148" y="75" type="curve" smooth="yes"/>
      <point x="142" y="75"/>
      <point x="138" y="73"/>
      <point x="134" y="69" type="curve" smooth="yes"/>
      <point x="130" y="65"/>
      <point x="129" y="61"/>
      <point x="129" y="55" type="curve" smooth="yes"/>
      <point x="129" y="49"/>
      <point x="130" y="45"/>
      <point x="134" y="41" type="curve" smooth="yes"/>
      <point x="138" y="37"/>
      <point x="142" y="35"/>
      <point x="148" y="35" type="curve" smooth="yes"/>
      <point x="154" y="35"/>
      <point x="158" y="37"/>
      <point x="162" y="41" type="curve" smooth="yes"/>
      <point x="166" y="45"/>
      <point x="168" y="49"/>
      <point x="168" y="55" type="curve" smooth="yes"/>
      <point x="168" y="61"/>
      <point x="166" y="65"/>
      <point x="162" y="69" type="curve" smooth="yes"/>
      <point x="158" y="73"/>
      <point x="154" y="75"/>
    </contour>
  </outline>
</glyph>
<glyph name="zero" format="1">
  <advance width="896"/>
  <unicode hex="0030"/>
  <outline>
    <contour>
      <point x="449" y="1094" type="curve" smooth="yes"/>
      <point x="450" y="1094" type="line"/>
      <point x="514" y="1093"/>
      <point x="574" y="1077"/>
      <point x="629" y="1045" type="curve" smooth="yes"/>
      <point x="683" y="1013"/>
      <point x="727" y="969"/>
      <point x="759" y="915" type="curve" smooth="yes"/>
      <point x="791" y="860"/>
      <point x="807" y="800"/>
      <point x="807" y="736" type="curve" smooth="yes"/>
      <point x="807" y="358" type="line" smooth="yes"/>
      <point x="807" y="293"/>
      <point x="791" y="233"/>
      <point x="759" y="178" type="curve" smooth="yes"/>
      <point x="727" y="123"/>
      <point x="683" y="80"/>
      <point x="629" y="48" type="curve" smooth="yes"/>
      <point x="574" y="16"/>
      <point x="514" y="0"/>
      <point x="450" y="0" type="curve" smooth="yes"/>
      <point x="449" y="0" type="line" smooth="yes"/>
      <point x="384" y="0"/>
      <point x="324" y="16"/>
      <point x="269" y="48" type="curve" smooth="yes"/>
      <point x="214" y="80"/>
      <point x="171" y="123"/>
      <point x="139" y="178" type="curve" smooth="yes"/>
      <point x="107" y="233"/>
      <point x="92" y="293"/>
      <point x="92" y="358" type="curve" smooth="yes"/>
      <point x="92" y="736" type="line" smooth="yes"/>
      <point x="92" y="801"/>
      <point x="107" y="861"/>
      <point x="139" y="916" type="curve" smooth="yes"/>
      <point x="171" y="970"/>
      <point x="214" y="1014"/>
      <point x="269" y="1046" type="curve" smooth="yes"/>
      <point x="324" y="1078"/>
      <point x="384" y="1094"/>
    </contour>
    <contour>
      <point x="448" y="1059" type="curve" smooth="yes"/>
      <point x="390" y="1059"/>
      <point x="336" y="1044"/>
      <point x="287" y="1015" type="curve" smooth="yes"/>
      <point x="237" y="986"/>
      <point x="198" y="947"/>
      <point x="170" y="898" type="curve" smooth="yes"/>
      <point x="141" y="848"/>
      <point x="127" y="794"/>
      <point x="127" y="736" type="curve" smooth="yes"/>
      <point x="127" y="358" type="line" smooth="yes"/>
      <point x="127" y="299"/>
      <point x="141" y="245"/>
      <point x="170" y="196" type="curve"/>
      <point x="198" y="146"/>
      <point x="237" y="107"/>
      <point x="287" y="79" type="curve"/>
      <point x="336" y="50"/>
      <point x="390" y="36"/>
      <point x="449" y="36" type="curve" smooth="yes"/>
      <point x="450" y="36" type="line" smooth="yes"/>
      <point x="508" y="36"/>
      <point x="562" y="50"/>
      <point x="611" y="79" type="curve" smooth="yes"/>
      <point x="660" y="108"/>
      <point x="699" y="147"/>
      <point x="728" y="197" type="curve" smooth="yes"/>
      <point x="756" y="246"/>
      <point x="771" y="300"/>
      <point x="771" y="358" type="curve" smooth="yes"/>
      <point x="771" y="736" type="line" smooth="yes"/>
      <point x="771" y="794"/>
      <point x="756" y="848"/>
      <point x="728" y="898" type="curve"/>
      <point x="699" y="947"/>
      <point x="660" y="986"/>
      <point x="610" y="1015" type="curve" smooth="yes"/>
      <point x="560" y="1044"/>
      <point x="506" y="1059"/>
    </contour>
  </outline>
</glyph>
<glyph name="one" format="1">
  <advance width="516"/>
  <unicode hex="0031"/>
  <outline>
    <contour>
      <point x="401" y="1094" type="curve"/>
      <point x="401" y="1094" type="line"/>
      <point x="406" y="1094"/>
      <point x="410" y="1092"/>
      <point x="414" y="1089" type="curve" smooth="yes"/>
      <point x="418" y="1085"/>
      <point x="419" y="1081"/>
      <point x="419" y="1076" type="curve" smooth="yes"/>
      <point x="419" y="18" type="line" smooth="yes"/>
      <point x="419" y="13"/>
      <point x="418" y="9"/>
      <point x="414" y="5" type="curve" smooth="yes"/>
      <point x="410" y="1"/>
      <point x="406" y="-0"/>
      <point x="401" y="-0" type="curve" smooth="yes"/>
      <point x="396" y="-0"/>
      <point x="392" y="1"/>
      <point x="388" y="5" type="curve" smooth="yes"/>
      <point x="385" y="9"/>
      <point x="383" y="13"/>
      <point x="383" y="18" type="curve" smooth="yes"/>
      <point x="383" y="1025" type="line"/>
      <point x="112" y="687" type="line" smooth="yes"/>
      <point x="108" y="682"/>
      <point x="104" y="680"/>
      <point x="98" y="680" type="curve" smooth="yes"/>
      <point x="94" y="680"/>
      <point x="90" y="681"/>
      <point x="86" y="685" type="curve" smooth="yes"/>
      <point x="82" y="689"/>
      <point x="80" y="693"/>
      <point x="80" y="698" type="curve" smooth="yes"/>
      <point x="80" y="703"/>
      <point x="82" y="707"/>
      <point x="84" y="710" type="curve" smooth="yes"/>
      <point x="386" y="1088" type="line"/>
      <point x="391" y="1092"/>
      <point x="396" y="1094"/>
    </contour>
  </outline>
</glyph>
<glyph name="two" format="1">
  <advance width="734"/>
  <unicode hex="0032"/>
  <outline>
    <contour>
      <point x="367" y="1094" type="curve" smooth="yes"/>
      <point x="445" y="1094"/>
      <point x="511" y="1066"/>
      <point x="567" y="1011" type="curve"/>
      <point x="622" y="955"/>
      <point x="650" y="889"/>
      <point x="650" y="812" type="curve" smooth="yes"/>
      <point x="650" y="748"/>
      <point x="630" y="690"/>
      <point x="591" y="640" type="curve"/>
      <point x="138" y="36" type="line"/>
      <point x="632" y="36" type="line" smooth="yes"/>
      <point x="636" y="36"/>
      <point x="640" y="34"/>
      <point x="644" y="30" type="curve" smooth="yes"/>
      <point x="648" y="26"/>
      <point x="650" y="22"/>
      <point x="650" y="17" type="curve" smooth="yes"/>
      <point x="650" y="13"/>
      <point x="648" y="9"/>
      <point x="644" y="5" type="curve" smooth="yes"/>
      <point x="640" y="1"/>
      <point x="636" y="-0"/>
      <point x="632" y="-0" type="curve" smooth="yes"/>
      <point x="102" y="-0" type="line" smooth="yes"/>
      <point x="97" y="-0"/>
      <point x="93" y="1"/>
      <point x="89" y="5" type="curve" smooth="yes"/>
      <point x="85" y="9"/>
      <point x="84" y="13"/>
      <point x="84" y="17" type="curve" smooth="yes"/>
      <point x="84" y="20"/>
      <point x="85" y="23"/>
      <point x="88" y="27" type="curve" smooth="yes"/>
      <point x="563" y="661" type="line" smooth="yes"/>
      <point x="597" y="706"/>
      <point x="614" y="756"/>
      <point x="614" y="811" type="curve" smooth="yes"/>
      <point x="614" y="879"/>
      <point x="590" y="938"/>
      <point x="542" y="986" type="curve" smooth="yes"/>
      <point x="494" y="1034"/>
      <point x="435" y="1059"/>
      <point x="367" y="1059" type="curve" smooth="yes"/>
      <point x="298" y="1059"/>
      <point x="240" y="1034"/>
      <point x="192" y="986" type="curve" smooth="yes"/>
      <point x="144" y="938"/>
      <point x="120" y="879"/>
      <point x="120" y="811" type="curve" smooth="yes"/>
      <point x="120" y="743"/>
      <point x="144" y="685"/>
      <point x="192" y="637" type="curve" smooth="yes"/>
      <point x="240" y="589"/>
      <point x="298" y="565"/>
      <point x="367" y="565" type="curve" smooth="yes"/>
      <point x="368" y="565" type="line" smooth="yes"/>
      <point x="372" y="565"/>
      <point x="376" y="563"/>
      <point x="380" y="559" type="curve" smooth="yes"/>
      <point x="383" y="555"/>
      <point x="385" y="551"/>
      <point x="385" y="546" type="curve" smooth="yes"/>
      <point x="385" y="541"/>
      <point x="383" y="537"/>
      <point x="380" y="534" type="curve" smooth="yes"/>
      <point x="376" y="531"/>
      <point x="372" y="530"/>
      <point x="368" y="530" type="curve" smooth="yes"/>
      <point x="367" y="530" type="line" smooth="yes"/>
      <point x="289" y="530"/>
      <point x="222" y="557"/>
      <point x="167" y="612" type="curve" smooth="yes"/>
      <point x="112" y="667"/>
      <point x="85" y="733"/>
      <point x="85" y="811" type="curve" smooth="yes"/>
      <point x="85" y="889"/>
      <point x="112" y="955"/>
      <point x="167" y="1011" type="curve" smooth="yes"/>
      <point x="222" y="1066"/>
      <point x="289" y="1094"/>
    </contour>
  </outline>
</glyph>
<glyph name="three" format="1">
  <advance width="855"/>
  <unicode hex="0033"/>
  <outline>
    <contour>
      <point x="413" y="1094" type="curve" smooth="yes"/>
      <point x="491" y="1094"/>
      <point x="557" y="1066"/>
      <point x="613" y="1011" type="curve"/>
      <point x="668" y="955"/>
      <point x="696" y="889"/>
      <point x="696" y="812" type="curve" smooth="yes"/>
      <point x="696" y="746"/>
      <point x="676" y="688"/>
      <point x="636" y="637" type="curve"/>
      <point x="645" y="630"/>
      <point x="655" y="621"/>
      <point x="666" y="610" type="curve" smooth="yes"/>
      <point x="698" y="577"/>
      <point x="724" y="539"/>
      <point x="742" y="496" type="curve" smooth="yes"/>
      <point x="760" y="452"/>
      <point x="770" y="406"/>
      <point x="770" y="358" type="curve" smooth="yes"/>
      <point x="770" y="293"/>
      <point x="754" y="233"/>
      <point x="722" y="178" type="curve" smooth="yes"/>
      <point x="690" y="123"/>
      <point x="646" y="80"/>
      <point x="591" y="48" type="curve" smooth="yes"/>
      <point x="536" y="16"/>
      <point x="476" y="0"/>
      <point x="412" y="0" type="curve" smooth="yes"/>
      <point x="364" y="-0"/>
      <point x="318" y="9"/>
      <point x="273" y="28" type="curve" smooth="yes"/>
      <point x="230" y="46"/>
      <point x="192" y="71"/>
      <point x="160" y="104" type="curve" smooth="yes"/>
      <point x="126" y="138"/>
      <point x="100" y="176"/>
      <point x="83" y="219" type="curve"/>
      <point x="81" y="221"/>
      <point x="81" y="223"/>
      <point x="81" y="225" type="curve" smooth="yes"/>
      <point x="81" y="229"/>
      <point x="82" y="233"/>
      <point x="86" y="237" type="curve" smooth="yes"/>
      <point x="90" y="241"/>
      <point x="94" y="243"/>
      <point x="99" y="243" type="curve" smooth="yes"/>
      <point x="107" y="243"/>
      <point x="112" y="239"/>
      <point x="116" y="232" type="curve"/>
      <point x="132" y="193"/>
      <point x="155" y="159"/>
      <point x="185" y="130" type="curve"/>
      <point x="215" y="99"/>
      <point x="249" y="76"/>
      <point x="287" y="61" type="curve"/>
      <point x="327" y="44"/>
      <point x="368" y="36"/>
      <point x="412" y="36" type="curve" smooth="yes"/>
      <point x="470" y="36"/>
      <point x="524" y="50"/>
      <point x="574" y="79" type="curve" smooth="yes"/>
      <point x="623" y="107"/>
      <point x="662" y="146"/>
      <point x="691" y="196" type="curve" smooth="yes"/>
      <point x="720" y="245"/>
      <point x="735" y="299"/>
      <point x="735" y="358" type="curve" smooth="yes"/>
      <point x="735" y="447"/>
      <point x="703" y="523"/>
      <point x="641" y="586" type="curve"/>
      <point x="627" y="598"/>
      <point x="614" y="609"/>
      <point x="602" y="619" type="curve" smooth="yes"/>
      <point x="601" y="619"/>
      <point x="600" y="619"/>
      <point x="599" y="620" type="curve" smooth="yes"/>
      <point x="598" y="621" type="line"/>
      <point x="542" y="660"/>
      <point x="480" y="680"/>
      <point x="412" y="680" type="curve" smooth="yes"/>
      <point x="368" y="680"/>
      <point x="327" y="671"/>
      <point x="287" y="655" type="curve" smooth="yes"/>
      <point x="285" y="654"/>
      <point x="282" y="654"/>
      <point x="280" y="654" type="curve" smooth="yes"/>
      <point x="275" y="654"/>
      <point x="271" y="655"/>
      <point x="267" y="659" type="curve" smooth="yes"/>
      <point x="263" y="662"/>
      <point x="262" y="666"/>
      <point x="262" y="671" type="curve" smooth="yes"/>
      <point x="262" y="679"/>
      <point x="265" y="684"/>
      <point x="273" y="688" type="curve" smooth="yes"/>
      <point x="318" y="706"/>
      <point x="364" y="716"/>
      <point x="412" y="716" type="curve" smooth="yes"/>
      <point x="483" y="716"/>
      <point x="548" y="697"/>
      <point x="607" y="659" type="curve"/>
      <point x="642" y="703"/>
      <point x="660" y="754"/>
      <point x="660" y="812" type="curve" smooth="yes"/>
      <point x="660" y="880"/>
      <point x="636" y="938"/>
      <point x="588" y="986" type="curve" smooth="yes"/>
      <point x="540" y="1034"/>
      <point x="481" y="1059"/>
      <point x="413" y="1059" type="curve" smooth="yes"/>
      <point x="345" y="1059"/>
      <point x="287" y="1034"/>
      <point x="239" y="986" type="curve" smooth="yes"/>
      <point x="235" y="982"/>
      <point x="231" y="981"/>
      <point x="226" y="981" type="curve" smooth="yes"/>
      <point x="221" y="981"/>
      <point x="217" y="982"/>
      <point x="213" y="986" type="curve" smooth="yes"/>
      <point x="209" y="989"/>
      <point x="208" y="993"/>
      <point x="208" y="999" type="curve" smooth="yes"/>
      <point x="208" y="1003"/>
      <point x="210" y="1007"/>
      <point x="214" y="1011" type="curve" smooth="yes"/>
      <point x="268" y="1066"/>
      <point x="335" y="1094"/>
    </contour>
  </outline>
</glyph>
<glyph name="four" format="1">
  <advance width="882"/>
  <unicode hex="0034"/>
  <outline>
    <contour>
      <point x="480" y="1094" type="curve" smooth="yes"/>
      <point x="485" y="1094"/>
      <point x="489" y="1092"/>
      <point x="493" y="1089" type="curve"/>
      <point x="496" y="1085"/>
      <point x="498" y="1081"/>
      <point x="498" y="1076" type="curve" smooth="yes"/>
      <point x="498" y="1072"/>
      <point x="497" y="1070"/>
      <point x="496" y="1068" type="curve" smooth="yes"/>
      <point x="133" y="414" type="line"/>
      <point x="614" y="414" type="line"/>
      <point x="614" y="698" type="line" smooth="yes"/>
      <point x="614" y="703"/>
      <point x="615" y="707"/>
      <point x="619" y="711" type="curve" smooth="yes"/>
      <point x="623" y="714"/>
      <point x="627" y="716"/>
      <point x="632" y="716" type="curve" smooth="yes"/>
      <point x="636" y="716"/>
      <point x="640" y="714"/>
      <point x="644" y="711" type="curve" smooth="yes"/>
      <point x="648" y="707"/>
      <point x="650" y="703"/>
      <point x="650" y="698" type="curve" smooth="yes"/>
      <point x="650" y="414" type="line"/>
      <point x="782" y="414" type="line"/>
      <point x="783" y="414" type="line" smooth="yes"/>
      <point x="788" y="414"/>
      <point x="792" y="412"/>
      <point x="796" y="408" type="curve" smooth="yes"/>
      <point x="799" y="404"/>
      <point x="801" y="400"/>
      <point x="801" y="396" type="curve" smooth="yes"/>
      <point x="801" y="391"/>
      <point x="799" y="387"/>
      <point x="796" y="383" type="curve" smooth="yes"/>
      <point x="792" y="379"/>
      <point x="788" y="377"/>
      <point x="783" y="377" type="curve" smooth="yes"/>
      <point x="782" y="377" type="line"/>
      <point x="650" y="377" type="line"/>
      <point x="650" y="17" type="line" smooth="yes"/>
      <point x="650" y="13"/>
      <point x="648" y="9"/>
      <point x="644" y="5" type="curve" smooth="yes"/>
      <point x="640" y="1"/>
      <point x="636" y="-0"/>
      <point x="632" y="-0" type="curve" smooth="yes"/>
      <point x="627" y="-0"/>
      <point x="623" y="1"/>
      <point x="619" y="5" type="curve" smooth="yes"/>
      <point x="615" y="9"/>
      <point x="614" y="13"/>
      <point x="614" y="17" type="curve" smooth="yes"/>
      <point x="614" y="377" type="line"/>
      <point x="102" y="377" type="line" smooth="yes"/>
      <point x="97" y="377"/>
      <point x="93" y="379"/>
      <point x="89" y="383" type="curve" smooth="yes"/>
      <point x="85" y="387"/>
      <point x="84" y="391"/>
      <point x="84" y="396" type="curve" smooth="yes"/>
      <point x="84" y="399"/>
      <point x="85" y="402"/>
      <point x="87" y="405" type="curve" smooth="yes"/>
      <point x="465" y="1085" type="line" smooth="yes"/>
      <point x="468" y="1091"/>
      <point x="473" y="1094"/>
    </contour>
  </outline>
</glyph>
<glyph name="five" format="1">
  <advance width="855"/>
  <unicode hex="0035"/>
  <outline>
    <contour>
      <point x="148" y="1094" type="curve" smooth="yes"/>
      <point x="673" y="1094" type="line" smooth="yes"/>
      <point x="678" y="1094"/>
      <point x="682" y="1092"/>
      <point x="686" y="1089" type="curve" smooth="yes"/>
      <point x="690" y="1085"/>
      <point x="691" y="1081"/>
      <point x="691" y="1076" type="curve" smooth="yes"/>
      <point x="691" y="1071"/>
      <point x="690" y="1067"/>
      <point x="686" y="1064" type="curve" smooth="yes"/>
      <point x="682" y="1060"/>
      <point x="678" y="1059"/>
      <point x="673" y="1059" type="curve" smooth="yes"/>
      <point x="165" y="1059" type="line"/>
      <point x="165" y="616" type="line"/>
      <point x="234" y="682"/>
      <point x="316" y="715"/>
      <point x="411" y="715" type="curve" smooth="yes"/>
      <point x="476" y="715"/>
      <point x="536" y="699"/>
      <point x="591" y="667" type="curve" smooth="yes"/>
      <point x="646" y="635"/>
      <point x="689" y="592"/>
      <point x="721" y="537" type="curve" smooth="yes"/>
      <point x="753" y="482"/>
      <point x="769" y="422"/>
      <point x="769" y="357" type="curve" smooth="yes"/>
      <point x="769" y="293"/>
      <point x="753" y="233"/>
      <point x="721" y="178" type="curve" smooth="yes"/>
      <point x="689" y="123"/>
      <point x="646" y="79"/>
      <point x="591" y="47" type="curve" smooth="yes"/>
      <point x="536" y="15"/>
      <point x="476" y="-0"/>
      <point x="411" y="-0" type="curve" smooth="yes"/>
      <point x="364" y="-0"/>
      <point x="318" y="9"/>
      <point x="272" y="27" type="curve"/>
      <point x="230" y="45"/>
      <point x="192" y="71"/>
      <point x="159" y="103" type="curve" smooth="yes"/>
      <point x="125" y="137"/>
      <point x="100" y="176"/>
      <point x="82" y="218" type="curve" smooth="yes"/>
      <point x="81" y="220"/>
      <point x="80" y="222"/>
      <point x="80" y="224" type="curve" smooth="yes"/>
      <point x="80" y="229"/>
      <point x="82" y="233"/>
      <point x="86" y="237" type="curve" smooth="yes"/>
      <point x="90" y="241"/>
      <point x="94" y="242"/>
      <point x="98" y="242" type="curve" smooth="yes"/>
      <point x="106" y="242"/>
      <point x="112" y="239"/>
      <point x="115" y="231" type="curve" smooth="yes"/>
      <point x="131" y="193"/>
      <point x="154" y="159"/>
      <point x="184" y="129" type="curve" smooth="yes"/>
      <point x="214" y="99"/>
      <point x="248" y="76"/>
      <point x="286" y="60" type="curve" smooth="yes"/>
      <point x="326" y="44"/>
      <point x="368" y="35"/>
      <point x="411" y="35" type="curve" smooth="yes"/>
      <point x="470" y="35"/>
      <point x="524" y="50"/>
      <point x="573" y="78" type="curve" smooth="yes"/>
      <point x="623" y="107"/>
      <point x="662" y="146"/>
      <point x="691" y="195" type="curve" smooth="yes"/>
      <point x="720" y="245"/>
      <point x="734" y="299"/>
      <point x="734" y="357" type="curve" smooth="yes"/>
      <point x="734" y="416"/>
      <point x="720" y="470"/>
      <point x="691" y="519" type="curve" smooth="yes"/>
      <point x="662" y="569"/>
      <point x="623" y="608"/>
      <point x="573" y="636" type="curve"/>
      <point x="524" y="665"/>
      <point x="470" y="679"/>
      <point x="411" y="679" type="curve" smooth="yes"/>
      <point x="362" y="679"/>
      <point x="316" y="669"/>
      <point x="273" y="648" type="curve" smooth="yes"/>
      <point x="229" y="627"/>
      <point x="193" y="598"/>
      <point x="163" y="560" type="curve" smooth="yes"/>
      <point x="159" y="556"/>
      <point x="154" y="553"/>
      <point x="148" y="553" type="curve" smooth="yes"/>
      <point x="147" y="553" type="line"/>
      <point x="145" y="553" type="line"/>
      <point x="143" y="553" type="line"/>
      <point x="143" y="554" type="line"/>
      <point x="141" y="554" type="line"/>
      <point x="133" y="557"/>
      <point x="130" y="563"/>
      <point x="130" y="572" type="curve" smooth="yes"/>
      <point x="130" y="573" type="line"/>
      <point x="130" y="1076" type="line" smooth="yes"/>
      <point x="130" y="1081"/>
      <point x="131" y="1085"/>
      <point x="135" y="1089" type="curve" smooth="yes"/>
      <point x="139" y="1092"/>
      <point x="143" y="1094"/>
    </contour>
  </outline>
</glyph>
<glyph name="six" format="1">
  <advance width="892"/>
  <unicode hex="0036"/>
  <outline>
    <contour>
      <point x="450" y="1094" type="curve" smooth="yes"/>
      <point x="498" y="1094"/>
      <point x="545" y="1084"/>
      <point x="589" y="1066" type="curve"/>
      <point x="630" y="1048"/>
      <point x="668" y="1023"/>
      <point x="702" y="989" type="curve" smooth="yes"/>
      <point x="736" y="955"/>
      <point x="761" y="917"/>
      <point x="779" y="876" type="curve" smooth="yes"/>
      <point x="780" y="873"/>
      <point x="781" y="870"/>
      <point x="781" y="868" type="curve" smooth="yes"/>
      <point x="781" y="862"/>
      <point x="779" y="858"/>
      <point x="775" y="855" type="curve" smooth="yes"/>
      <point x="771" y="851"/>
      <point x="767" y="850"/>
      <point x="763" y="850" type="curve" smooth="yes"/>
      <point x="754" y="850"/>
      <point x="748" y="853"/>
      <point x="746" y="861" type="curve"/>
      <point x="730" y="899"/>
      <point x="707" y="934"/>
      <point x="677" y="964" type="curve" smooth="yes"/>
      <point x="647" y="994"/>
      <point x="613" y="1017"/>
      <point x="575" y="1033" type="curve" smooth="yes"/>
      <point x="533" y="1050"/>
      <point x="492" y="1059"/>
      <point x="450" y="1059" type="curve" smooth="yes"/>
      <point x="391" y="1059"/>
      <point x="337" y="1044"/>
      <point x="287" y="1015" type="curve" smooth="yes"/>
      <point x="237" y="986"/>
      <point x="198" y="947"/>
      <point x="170" y="898" type="curve" smooth="yes"/>
      <point x="141" y="848"/>
      <point x="127" y="794"/>
      <point x="127" y="736" type="curve" smooth="yes"/>
      <point x="127" y="514" type="line"/>
      <point x="157" y="574"/>
      <point x="200" y="623"/>
      <point x="258" y="660" type="curve" smooth="yes"/>
      <point x="316" y="697"/>
      <point x="380" y="716"/>
      <point x="450" y="716" type="curve" smooth="yes"/>
      <point x="514" y="716"/>
      <point x="574" y="700"/>
      <point x="629" y="668" type="curve" smooth="yes"/>
      <point x="683" y="636"/>
      <point x="727" y="592"/>
      <point x="759" y="537" type="curve" smooth="yes"/>
      <point x="791" y="482"/>
      <point x="807" y="422"/>
      <point x="807" y="358" type="curve" smooth="yes"/>
      <point x="807" y="293"/>
      <point x="791" y="233"/>
      <point x="759" y="178" type="curve" smooth="yes"/>
      <point x="727" y="123"/>
      <point x="683" y="80"/>
      <point x="629" y="48" type="curve" smooth="yes"/>
      <point x="574" y="16"/>
      <point x="514" y="0"/>
      <point x="449" y="0" type="curve" smooth="yes"/>
      <point x="384" y="0"/>
      <point x="324" y="16"/>
      <point x="269" y="48" type="curve" smooth="yes"/>
      <point x="214" y="80"/>
      <point x="171" y="123"/>
      <point x="139" y="178" type="curve" smooth="yes"/>
      <point x="107" y="233"/>
      <point x="92" y="293"/>
      <point x="92" y="358" type="curve" smooth="yes"/>
      <point x="92" y="736" type="line" smooth="yes"/>
      <point x="92" y="800"/>
      <point x="107" y="860"/>
      <point x="139" y="915" type="curve" smooth="yes"/>
      <point x="171" y="970"/>
      <point x="214" y="1014"/>
      <point x="269" y="1046" type="curve" smooth="yes"/>
      <point x="324" y="1078"/>
      <point x="384" y="1094"/>
    </contour>
    <contour>
      <point x="449" y="680" type="curve" smooth="yes"/>
      <point x="391" y="680"/>
      <point x="337" y="665"/>
      <point x="287" y="637" type="curve" smooth="yes"/>
      <point x="237" y="608"/>
      <point x="198" y="569"/>
      <point x="170" y="520" type="curve" smooth="yes"/>
      <point x="141" y="470"/>
      <point x="127" y="416"/>
      <point x="127" y="358" type="curve" smooth="yes"/>
      <point x="127" y="357" type="line"/>
      <point x="127" y="356" type="line" smooth="yes"/>
      <point x="127" y="267"/>
      <point x="159" y="191"/>
      <point x="222" y="129" type="curve" smooth="yes"/>
      <point x="284" y="67"/>
      <point x="360" y="36"/>
      <point x="450" y="36" type="curve" smooth="yes"/>
      <point x="508" y="36"/>
      <point x="561" y="50"/>
      <point x="611" y="79" type="curve" smooth="yes"/>
      <point x="661" y="107"/>
      <point x="700" y="146"/>
      <point x="729" y="196" type="curve" smooth="yes"/>
      <point x="757" y="245"/>
      <point x="772" y="299"/>
      <point x="772" y="358" type="curve" smooth="yes"/>
      <point x="772" y="416"/>
      <point x="757" y="470"/>
      <point x="729" y="520" type="curve"/>
      <point x="700" y="569"/>
      <point x="661" y="608"/>
      <point x="611" y="637" type="curve" smooth="yes"/>
      <point x="561" y="665"/>
      <point x="507" y="680"/>
    </contour>
  </outline>
</glyph>
<glyph name="seven" format="1">
  <advance width="801"/>
  <unicode hex="0037"/>
  <outline>
    <contour>
      <point x="100" y="1094" type="line"/>
      <point x="704" y="1094" type="line" smooth="yes"/>
      <point x="708" y="1094"/>
      <point x="712" y="1092"/>
      <point x="716" y="1089" type="curve" smooth="yes"/>
      <point x="720" y="1085"/>
      <point x="722" y="1081"/>
      <point x="722" y="1076" type="curve" smooth="yes"/>
      <point x="722" y="1073"/>
      <point x="721" y="1071"/>
      <point x="720" y="1069" type="curve" smooth="yes"/>
      <point x="440" y="413" type="line"/>
      <point x="553" y="413" type="line" smooth="yes"/>
      <point x="558" y="413"/>
      <point x="562" y="412"/>
      <point x="566" y="408" type="curve" smooth="yes"/>
      <point x="569" y="404"/>
      <point x="571" y="400"/>
      <point x="571" y="395" type="curve" smooth="yes"/>
      <point x="571" y="391"/>
      <point x="569" y="387"/>
      <point x="566" y="383" type="curve" smooth="yes"/>
      <point x="562" y="379"/>
      <point x="558" y="377"/>
      <point x="553" y="377" type="curve" smooth="yes"/>
      <point x="424" y="377" type="line"/>
      <point x="266" y="10" type="line" smooth="yes"/>
      <point x="263" y="3"/>
      <point x="258" y="-0"/>
      <point x="250" y="-0" type="curve" smooth="yes"/>
      <point x="245" y="-0"/>
      <point x="241" y="1"/>
      <point x="237" y="5" type="curve" smooth="yes"/>
      <point x="233" y="9"/>
      <point x="231" y="13"/>
      <point x="231" y="17" type="curve" smooth="yes"/>
      <point x="231" y="20"/>
      <point x="232" y="22"/>
      <point x="233" y="24" type="curve" smooth="yes"/>
      <point x="385" y="377" type="line"/>
      <point x="249" y="377" type="line" smooth="yes"/>
      <point x="245" y="377"/>
      <point x="241" y="379"/>
      <point x="237" y="383" type="curve" smooth="yes"/>
      <point x="233" y="387"/>
      <point x="231" y="391"/>
      <point x="231" y="395" type="curve" smooth="yes"/>
      <point x="231" y="400"/>
      <point x="233" y="404"/>
      <point x="237" y="408" type="curve" smooth="yes"/>
      <point x="241" y="412"/>
      <point x="245" y="414"/>
      <point x="249" y="414" type="curve" smooth="yes"/>
      <point x="400" y="414" type="line"/>
      <point x="676" y="1059" type="line"/>
      <point x="99" y="1059" type="line"/>
      <point x="98" y="1059" type="line" smooth="yes"/>
      <point x="94" y="1059"/>
      <point x="90" y="1060"/>
      <point x="86" y="1064" type="curve" smooth="yes"/>
      <point x="82" y="1067"/>
      <point x="80" y="1071"/>
      <point x="80" y="1076" type="curve" smooth="yes"/>
      <point x="80" y="1081"/>
      <point x="82" y="1085"/>
      <point x="86" y="1089" type="curve" smooth="yes"/>
      <point x="90" y="1092"/>
      <point x="94" y="1094"/>
      <point x="99" y="1094" type="curve" smooth="yes"/>
    </contour>
  </outline>
</glyph>
<glyph name="eight" format="1">
  <advance width="890"/>
  <unicode hex="0038"/>
  <outline>
    <contour>
      <point x="224" y="638" type="curve"/>
      <point x="184" y="688"/>
      <point x="164" y="746"/>
      <point x="164" y="811" type="curve" smooth="yes"/>
      <point x="164" y="857"/>
      <point x="174" y="901"/>
      <point x="195" y="941" type="curve" smooth="yes"/>
      <point x="216" y="981"/>
      <point x="245" y="1015"/>
      <point x="281" y="1041" type="curve"/>
      <point x="281" y="1041"/>
      <point x="281" y="1042"/>
      <point x="282" y="1042" type="curve" smooth="yes"/>
      <point x="284" y="1042" type="line"/>
      <point x="331" y="1076"/>
      <point x="385" y="1094"/>
      <point x="446" y="1094" type="curve" smooth="yes"/>
      <point x="523" y="1094"/>
      <point x="589" y="1066"/>
      <point x="645" y="1011" type="curve"/>
      <point x="700" y="955"/>
      <point x="728" y="889"/>
      <point x="728" y="812" type="curve" smooth="yes"/>
      <point x="728" y="747"/>
      <point x="708" y="689"/>
      <point x="668" y="638" type="curve"/>
      <point x="710" y="604"/>
      <point x="743" y="563"/>
      <point x="767" y="515" type="curve" smooth="yes"/>
      <point x="791" y="466"/>
      <point x="804" y="414"/>
      <point x="804" y="358" type="curve" smooth="yes"/>
      <point x="804" y="293"/>
      <point x="788" y="233"/>
      <point x="756" y="178" type="curve" smooth="yes"/>
      <point x="724" y="123"/>
      <point x="680" y="80"/>
      <point x="625" y="48" type="curve" smooth="yes"/>
      <point x="570" y="16"/>
      <point x="510" y="0"/>
      <point x="445" y="0" type="curve" smooth="yes"/>
      <point x="380" y="0"/>
      <point x="320" y="16"/>
      <point x="266" y="48" type="curve" smooth="yes"/>
      <point x="211" y="80"/>
      <point x="168" y="123"/>
      <point x="136" y="178" type="curve" smooth="yes"/>
      <point x="104" y="233"/>
      <point x="88" y="293"/>
      <point x="88" y="358" type="curve" smooth="yes"/>
      <point x="88" y="414"/>
      <point x="100" y="466"/>
      <point x="124" y="515" type="curve" smooth="yes"/>
      <point x="148" y="563"/>
      <point x="181" y="604"/>
    </contour>
    <contour>
      <point x="769" y="357" type="curve" smooth="yes"/>
      <point x="769" y="415"/>
      <point x="754" y="468"/>
      <point x="726" y="518" type="curve" smooth="yes"/>
      <point x="698" y="567"/>
      <point x="660" y="606"/>
      <point x="610" y="636" type="curve" smooth="yes"/>
      <point x="560" y="665"/>
      <point x="505" y="680"/>
      <point x="445" y="680" type="curve" smooth="yes"/>
      <point x="409" y="680"/>
      <point x="376" y="675"/>
      <point x="345" y="665" type="curve"/>
      <point x="343" y="663"/>
      <point x="341" y="663"/>
      <point x="338" y="663" type="curve" smooth="yes"/>
      <point x="334" y="663"/>
      <point x="330" y="664"/>
      <point x="326" y="668" type="curve" smooth="yes"/>
      <point x="323" y="672"/>
      <point x="321" y="676"/>
      <point x="321" y="681" type="curve" smooth="yes"/>
      <point x="321" y="685"/>
      <point x="323" y="688"/>
      <point x="325" y="692" type="curve"/>
      <point x="328" y="695"/>
      <point x="331" y="697"/>
      <point x="334" y="698" type="curve" smooth="yes"/>
      <point x="371" y="710"/>
      <point x="408" y="716"/>
      <point x="445" y="716" type="curve" smooth="yes"/>
      <point x="516" y="716"/>
      <point x="581" y="697"/>
      <point x="639" y="659" type="curve"/>
      <point x="675" y="703"/>
      <point x="692" y="754"/>
      <point x="692" y="812" type="curve" smooth="yes"/>
      <point x="692" y="880"/>
      <point x="668" y="938"/>
      <point x="620" y="986" type="curve" smooth="yes"/>
      <point x="572" y="1034"/>
      <point x="513" y="1059"/>
      <point x="445" y="1059" type="curve" smooth="yes"/>
      <point x="375" y="1059"/>
      <point x="316" y="1034"/>
      <point x="269" y="986" type="curve" smooth="yes"/>
      <point x="222" y="937"/>
      <point x="198" y="879"/>
      <point x="198" y="812" type="curve" smooth="yes"/>
      <point x="198" y="757"/>
      <point x="213" y="710"/>
      <point x="241" y="670" type="curve" smooth="yes"/>
      <point x="269" y="630"/>
      <point x="305" y="602"/>
      <point x="349" y="584" type="curve" smooth="yes"/>
      <point x="357" y="581"/>
      <point x="360" y="576"/>
      <point x="360" y="568" type="curve" smooth="yes"/>
      <point x="360" y="563"/>
      <point x="359" y="559"/>
      <point x="355" y="555" type="curve" smooth="yes"/>
      <point x="352" y="551"/>
      <point x="348" y="549"/>
      <point x="343" y="549" type="curve" smooth="yes"/>
      <point x="340" y="549"/>
      <point x="338" y="550"/>
      <point x="336" y="551" type="curve" smooth="yes"/>
      <point x="301" y="566"/>
      <point x="271" y="586"/>
      <point x="247" y="611" type="curve"/>
      <point x="208" y="581"/>
      <point x="178" y="543"/>
      <point x="156" y="499" type="curve" smooth="yes"/>
      <point x="134" y="455"/>
      <point x="123" y="408"/>
      <point x="123" y="357" type="curve" smooth="yes"/>
      <point x="123" y="299"/>
      <point x="137" y="245"/>
      <point x="166" y="195" type="curve" smooth="yes"/>
      <point x="194" y="146"/>
      <point x="233" y="107"/>
      <point x="283" y="78" type="curve" smooth="yes"/>
      <point x="333" y="50"/>
      <point x="387" y="35"/>
      <point x="445" y="35" type="curve" smooth="yes"/>
      <point x="503" y="35"/>
      <point x="557" y="50"/>
      <point x="607" y="78" type="curve" smooth="yes"/>
      <point x="657" y="107"/>
      <point x="696" y="146"/>
      <point x="725" y="195" type="curve" smooth="yes"/>
      <point x="754" y="245"/>
      <point x="769" y="299"/>
    </contour>
  </outline>
</glyph>
<glyph name="nine" format="1">
  <advance width="891"/>
  <unicode hex="0039"/>
  <outline>
    <contour>
      <point x="442" y="1094" type="curve" smooth="yes"/>
      <point x="506" y="1094"/>
      <point x="566" y="1078"/>
      <point x="621" y="1046" type="curve" smooth="yes"/>
      <point x="676" y="1014"/>
      <point x="720" y="971"/>
      <point x="752" y="917" type="curve" smooth="yes"/>
      <point x="784" y="862"/>
      <point x="800" y="802"/>
      <point x="800" y="738" type="curve" smooth="yes"/>
      <point x="800" y="736" type="line"/>
      <point x="800" y="358" type="line" smooth="yes"/>
      <point x="800" y="293"/>
      <point x="784" y="233"/>
      <point x="752" y="178" type="curve" smooth="yes"/>
      <point x="720" y="123"/>
      <point x="676" y="80"/>
      <point x="621" y="48" type="curve" smooth="yes"/>
      <point x="566" y="16"/>
      <point x="506" y="0"/>
      <point x="442" y="0" type="curve" smooth="yes"/>
      <point x="394" y="-0"/>
      <point x="348" y="9"/>
      <point x="303" y="28" type="curve" smooth="yes"/>
      <point x="260" y="46"/>
      <point x="222" y="71"/>
      <point x="190" y="104" type="curve" smooth="yes"/>
      <point x="156" y="138"/>
      <point x="130" y="176"/>
      <point x="113" y="219" type="curve"/>
      <point x="111" y="221"/>
      <point x="111" y="223"/>
      <point x="111" y="225" type="curve" smooth="yes"/>
      <point x="111" y="229"/>
      <point x="112" y="233"/>
      <point x="116" y="237" type="curve" smooth="yes"/>
      <point x="119" y="241"/>
      <point x="123" y="243"/>
      <point x="129" y="243" type="curve" smooth="yes"/>
      <point x="137" y="243"/>
      <point x="142" y="239"/>
      <point x="146" y="232" type="curve"/>
      <point x="162" y="193"/>
      <point x="185" y="159"/>
      <point x="215" y="130" type="curve"/>
      <point x="245" y="99"/>
      <point x="279" y="76"/>
      <point x="317" y="61" type="curve"/>
      <point x="357" y="44"/>
      <point x="398" y="36"/>
      <point x="442" y="36" type="curve" smooth="yes"/>
      <point x="500" y="36"/>
      <point x="554" y="50"/>
      <point x="604" y="79" type="curve" smooth="yes"/>
      <point x="653" y="107"/>
      <point x="692" y="146"/>
      <point x="721" y="196" type="curve" smooth="yes"/>
      <point x="750" y="245"/>
      <point x="765" y="299"/>
      <point x="765" y="358" type="curve" smooth="yes"/>
      <point x="765" y="581" type="line"/>
      <point x="735" y="519"/>
      <point x="691" y="470"/>
      <point x="633" y="433" type="curve" smooth="yes"/>
      <point x="575" y="396"/>
      <point x="512" y="378"/>
      <point x="442" y="378" type="curve" smooth="yes"/>
      <point x="377" y="378"/>
      <point x="317" y="394"/>
      <point x="262" y="426" type="curve" smooth="yes"/>
      <point x="207" y="458"/>
      <point x="164" y="501"/>
      <point x="132" y="556" type="curve" smooth="yes"/>
      <point x="100" y="611"/>
      <point x="84" y="671"/>
      <point x="84" y="736" type="curve" smooth="yes"/>
      <point x="84" y="800"/>
      <point x="100" y="860"/>
      <point x="132" y="915" type="curve" smooth="yes"/>
      <point x="164" y="970"/>
      <point x="207" y="1014"/>
      <point x="262" y="1046" type="curve" smooth="yes"/>
      <point x="317" y="1078"/>
      <point x="377" y="1094"/>
    </contour>
    <contour>
      <point x="442" y="1059" type="curve" smooth="yes"/>
      <point x="384" y="1059"/>
      <point x="330" y="1044"/>
      <point x="280" y="1015" type="curve" smooth="yes"/>
      <point x="230" y="986"/>
      <point x="191" y="947"/>
      <point x="162" y="898" type="curve"/>
      <point x="134" y="848"/>
      <point x="119" y="794"/>
      <point x="119" y="736" type="curve" smooth="yes"/>
      <point x="119" y="678"/>
      <point x="134" y="624"/>
      <point x="162" y="574" type="curve" smooth="yes"/>
      <point x="191" y="524"/>
      <point x="230" y="485"/>
      <point x="280" y="457" type="curve" smooth="yes"/>
      <point x="330" y="428"/>
      <point x="384" y="414"/>
      <point x="442" y="414" type="curve" smooth="yes"/>
      <point x="500" y="414"/>
      <point x="554" y="428"/>
      <point x="603" y="457" type="curve"/>
      <point x="653" y="485"/>
      <point x="692" y="524"/>
      <point x="721" y="574" type="curve" smooth="yes"/>
      <point x="750" y="624"/>
      <point x="764" y="678"/>
      <point x="764" y="736" type="curve" smooth="yes"/>
      <point x="764" y="794"/>
      <point x="750" y="848"/>
      <point x="721" y="898" type="curve" smooth="yes"/>
      <point x="692" y="947"/>
      <point x="653" y="986"/>
      <point x="603" y="1015" type="curve" smooth="yes"/>
      <point x="554" y="1044"/>
      <point x="500" y="1059"/>
    </contour>
  </outline>
</glyph>
<glyph name="colon" format="1">
  <advance width="302"/>
  <unicode hex="003A"/>
  <outline>
    <contour>
      <point x="151" y="716" type="curve" smooth="yes"/>
      <point x="167" y="716"/>
      <point x="180" y="710"/>
      <point x="191" y="699" type="curve" smooth="yes"/>
      <point x="201" y="688"/>
      <point x="207" y="675"/>
      <point x="207" y="660" type="curve" smooth="yes"/>
      <point x="207" y="644"/>
      <point x="201" y="631"/>
      <point x="191" y="621" type="curve" smooth="yes"/>
      <point x="180" y="610"/>
      <point x="167" y="605"/>
      <point x="151" y="605" type="curve" smooth="yes"/>
      <point x="135" y="605"/>
      <point x="122" y="610"/>
      <point x="111" y="621" type="curve" smooth="yes"/>
      <point x="101" y="631"/>
      <point x="95" y="644"/>
      <point x="95" y="660" type="curve" smooth="yes"/>
      <point x="95" y="675"/>
      <point x="101" y="688"/>
      <point x="111" y="699" type="curve" smooth="yes"/>
      <point x="122" y="710"/>
      <point x="135" y="716"/>
    </contour>
    <contour>
      <point x="151" y="680" type="curve" smooth="yes"/>
      <point x="145" y="680"/>
      <point x="141" y="678"/>
      <point x="137" y="674" type="curve" smooth="yes"/>
      <point x="133" y="670"/>
      <point x="132" y="666"/>
      <point x="132" y="660" type="curve" smooth="yes"/>
      <point x="132" y="654"/>
      <point x="133" y="650"/>
      <point x="137" y="646" type="curve" smooth="yes"/>
      <point x="141" y="642"/>
      <point x="145" y="641"/>
      <point x="151" y="641" type="curve" smooth="yes"/>
      <point x="157" y="641"/>
      <point x="162" y="642"/>
      <point x="166" y="646" type="curve" smooth="yes"/>
      <point x="170" y="650"/>
      <point x="172" y="654"/>
      <point x="172" y="660" type="curve" smooth="yes"/>
      <point x="172" y="666"/>
      <point x="170" y="670"/>
      <point x="166" y="674" type="curve" smooth="yes"/>
      <point x="162" y="678"/>
      <point x="157" y="680"/>
    </contour>
    <contour>
      <point x="151" y="414" type="curve" smooth="yes"/>
      <point x="167" y="414"/>
      <point x="180" y="408"/>
      <point x="191" y="397" type="curve" smooth="yes"/>
      <point x="201" y="386"/>
      <point x="207" y="373"/>
      <point x="207" y="358" type="curve" smooth="yes"/>
      <point x="207" y="342"/>
      <point x="201" y="329"/>
      <point x="191" y="319" type="curve" smooth="yes"/>
      <point x="180" y="308"/>
      <point x="167" y="303"/>
      <point x="151" y="303" type="curve" smooth="yes"/>
      <point x="135" y="303"/>
      <point x="122" y="308"/>
      <point x="112" y="319" type="curve"/>
      <point x="101" y="329"/>
      <point x="96" y="342"/>
      <point x="96" y="358" type="curve" smooth="yes"/>
      <point x="96" y="373"/>
      <point x="101" y="386"/>
      <point x="112" y="397" type="curve" smooth="yes"/>
      <point x="122" y="408"/>
      <point x="135" y="414"/>
    </contour>
    <contour>
      <point x="151" y="378" type="curve" smooth="yes"/>
      <point x="145" y="378"/>
      <point x="141" y="376"/>
      <point x="137" y="372" type="curve" smooth="yes"/>
      <point x="133" y="368"/>
      <point x="132" y="364"/>
      <point x="132" y="358" type="curve" smooth="yes"/>
      <point x="132" y="352"/>
      <point x="133" y="348"/>
      <point x="137" y="344" type="curve" smooth="yes"/>
      <point x="141" y="340"/>
      <point x="145" y="339"/>
      <point x="151" y="339" type="curve" smooth="yes"/>
      <point x="157" y="339"/>
      <point x="162" y="340"/>
      <point x="166" y="344" type="curve" smooth="yes"/>
      <point x="170" y="348"/>
      <point x="172" y="352"/>
      <point x="172" y="358" type="curve" smooth="yes"/>
      <point x="172" y="364"/>
      <point x="170" y="368"/>
      <point x="166" y="372" type="curve" smooth="yes"/>
      <point x="162" y="376"/>
      <point x="157" y="378"/>
    </contour>
  </outline>
</glyph>
<glyph name="semicolon" format="1">
  <advance width="304"/>
  <unicode hex="003B"/>
  <outline>
    <contour>
      <point x="155" y="466" type="curve" smooth="yes"/>
      <point x="170" y="466"/>
      <point x="183" y="460"/>
      <point x="194" y="449" type="curve" smooth="yes"/>
      <point x="205" y="438"/>
      <point x="211" y="425"/>
      <point x="211" y="410" type="curve" smooth="yes"/>
      <point x="211" y="394"/>
      <point x="205" y="381"/>
      <point x="194" y="371" type="curve" smooth="yes"/>
      <point x="183" y="360"/>
      <point x="170" y="355"/>
      <point x="155" y="355" type="curve" smooth="yes"/>
      <point x="139" y="355"/>
      <point x="126" y="360"/>
      <point x="116" y="371" type="curve"/>
      <point x="105" y="381"/>
      <point x="100" y="394"/>
      <point x="100" y="410" type="curve" smooth="yes"/>
      <point x="100" y="425"/>
      <point x="105" y="438"/>
      <point x="116" y="449" type="curve" smooth="yes"/>
      <point x="126" y="460"/>
      <point x="139" y="466"/>
    </contour>
    <contour>
      <point x="154" y="430" type="curve" smooth="yes"/>
      <point x="148" y="430"/>
      <point x="144" y="428"/>
      <point x="140" y="424" type="curve" smooth="yes"/>
      <point x="136" y="420"/>
      <point x="135" y="415"/>
      <point x="135" y="409" type="curve" smooth="yes"/>
      <point x="135" y="403"/>
      <point x="136" y="399"/>
      <point x="140" y="395" type="curve" smooth="yes"/>
      <point x="144" y="391"/>
      <point x="148" y="389"/>
      <point x="154" y="389" type="curve" smooth="yes"/>
      <point x="160" y="389"/>
      <point x="165" y="391"/>
      <point x="169" y="395" type="curve" smooth="yes"/>
      <point x="173" y="399"/>
      <point x="175" y="403"/>
      <point x="175" y="409" type="curve" smooth="yes"/>
      <point x="175" y="415"/>
      <point x="173" y="420"/>
      <point x="169" y="424" type="curve" smooth="yes"/>
      <point x="165" y="428"/>
      <point x="160" y="430"/>
    </contour>
    <contour>
      <point x="155" y="163" type="curve" smooth="yes"/>
      <point x="170" y="163"/>
      <point x="183" y="157"/>
      <point x="194" y="146" type="curve" smooth="yes"/>
      <point x="205" y="136"/>
      <point x="211" y="123"/>
      <point x="211" y="107" type="curve" smooth="yes"/>
      <point x="211" y="98"/>
      <point x="209" y="90"/>
      <point x="205" y="82" type="curve"/>
      <point x="204" y="81" type="line"/>
      <point x="203" y="80" type="line"/>
      <point x="203" y="79" type="line"/>
      <point x="128" y="-70" type="line" smooth="yes"/>
      <point x="125" y="-76"/>
      <point x="120" y="-79"/>
      <point x="113" y="-79" type="curve" smooth="yes"/>
      <point x="107" y="-79"/>
      <point x="103" y="-77"/>
      <point x="100" y="-74" type="curve" smooth="yes"/>
      <point x="96" y="-70"/>
      <point x="95" y="-66"/>
      <point x="95" y="-62" type="curve" smooth="yes"/>
      <point x="95" y="-59"/>
      <point x="95" y="-56"/>
      <point x="96" y="-53" type="curve" smooth="yes"/>
      <point x="150" y="52" type="line"/>
      <point x="136" y="53"/>
      <point x="124" y="59"/>
      <point x="114" y="69" type="curve" smooth="yes"/>
      <point x="104" y="80"/>
      <point x="100" y="93"/>
      <point x="100" y="108" type="curve" smooth="yes"/>
      <point x="100" y="123"/>
      <point x="105" y="136"/>
      <point x="116" y="147" type="curve" smooth="yes"/>
      <point x="126" y="157"/>
      <point x="139" y="163"/>
    </contour>
    <contour>
      <point x="154" y="127" type="curve" smooth="yes"/>
      <point x="148" y="127"/>
      <point x="144" y="125"/>
      <point x="140" y="121" type="curve" smooth="yes"/>
      <point x="136" y="117"/>
      <point x="135" y="113"/>
      <point x="135" y="107" type="curve" smooth="yes"/>
      <point x="135" y="101"/>
      <point x="136" y="96"/>
      <point x="140" y="92" type="curve" smooth="yes"/>
      <point x="144" y="88"/>
      <point x="149" y="86"/>
      <point x="155" y="86" type="curve" smooth="yes"/>
      <point x="156" y="86" type="line" smooth="yes"/>
      <point x="158" y="86"/>
      <point x="161" y="85"/>
      <point x="165" y="83" type="curve"/>
      <point x="172" y="95" type="line"/>
      <point x="172" y="96" type="line"/>
      <point x="173" y="97" type="line"/>
      <point x="174" y="101"/>
      <point x="175" y="104"/>
      <point x="175" y="107" type="curve" smooth="yes"/>
      <point x="175" y="113"/>
      <point x="173" y="117"/>
      <point x="169" y="121" type="curve" smooth="yes"/>
      <point x="165" y="125"/>
      <point x="160" y="127"/>
    </contour>
  </outline>
</glyph>
<glyph name="less" format="1">
  <advance width="667"/>
  <unicode hex="003C"/>
  <outline>
    <contour>
      <point x="561" y="716" type="curve" smooth="yes"/>
      <point x="566" y="716"/>
      <point x="570" y="714"/>
      <point x="574" y="710" type="curve" smooth="yes"/>
      <point x="577" y="707"/>
      <point x="579" y="703"/>
      <point x="579" y="698" type="curve" smooth="yes"/>
      <point x="579" y="692"/>
      <point x="576" y="687"/>
      <point x="571" y="684" type="curve" smooth="yes"/>
      <point x="139" y="396" type="line"/>
      <point x="571" y="108" type="line" smooth="yes"/>
      <point x="576" y="104"/>
      <point x="579" y="99"/>
      <point x="579" y="93" type="curve" smooth="yes"/>
      <point x="579" y="88"/>
      <point x="577" y="84"/>
      <point x="574" y="80" type="curve" smooth="yes"/>
      <point x="570" y="76"/>
      <point x="566" y="75"/>
      <point x="561" y="75" type="curve" smooth="yes"/>
      <point x="557" y="75"/>
      <point x="554" y="76"/>
      <point x="551" y="79" type="curve" smooth="yes"/>
      <point x="97" y="381" type="line" smooth="yes"/>
      <point x="92" y="385"/>
      <point x="90" y="390"/>
      <point x="90" y="396" type="curve" smooth="yes"/>
      <point x="90" y="402"/>
      <point x="92" y="407"/>
      <point x="97" y="411" type="curve" smooth="yes"/>
      <point x="551" y="713" type="line" smooth="yes"/>
      <point x="554" y="715"/>
      <point x="557" y="716"/>
    </contour>
  </outline>
</glyph>
<glyph name="equal" format="1">
  <advance width="677"/>
  <unicode hex="003D"/>
  <outline>
    <contour>
      <point x="113" y="501" type="curve" smooth="yes"/>
      <point x="565" y="501" type="line" smooth="yes"/>
      <point x="570" y="501"/>
      <point x="574" y="499"/>
      <point x="578" y="496" type="curve" smooth="yes"/>
      <point x="582" y="492"/>
      <point x="584" y="488"/>
      <point x="584" y="483" type="curve" smooth="yes"/>
      <point x="584" y="478"/>
      <point x="582" y="474"/>
      <point x="578" y="471" type="curve" smooth="yes"/>
      <point x="574" y="467"/>
      <point x="570" y="466"/>
      <point x="565" y="466" type="curve" smooth="yes"/>
      <point x="112" y="466" type="line" smooth="yes"/>
      <point x="107" y="466"/>
      <point x="103" y="467"/>
      <point x="100" y="471" type="curve"/>
      <point x="96" y="474"/>
      <point x="95" y="478"/>
      <point x="95" y="483" type="curve" smooth="yes"/>
      <point x="95" y="488"/>
      <point x="96" y="492"/>
      <point x="100" y="496" type="curve" smooth="yes"/>
      <point x="103" y="499"/>
      <point x="107" y="501"/>
    </contour>
    <contour>
      <point x="112" y="198" type="curve" smooth="yes"/>
      <point x="565" y="198" type="line" smooth="yes"/>
      <point x="570" y="198"/>
      <point x="574" y="196"/>
      <point x="578" y="193" type="curve" smooth="yes"/>
      <point x="582" y="189"/>
      <point x="583" y="185"/>
      <point x="583" y="180" type="curve" smooth="yes"/>
      <point x="583" y="175"/>
      <point x="582" y="171"/>
      <point x="578" y="168" type="curve" smooth="yes"/>
      <point x="574" y="164"/>
      <point x="570" y="163"/>
      <point x="565" y="163" type="curve" smooth="yes"/>
      <point x="112" y="163" type="line" smooth="yes"/>
      <point x="107" y="163"/>
      <point x="103" y="164"/>
      <point x="99" y="168" type="curve" smooth="yes"/>
      <point x="96" y="171"/>
      <point x="94" y="175"/>
      <point x="94" y="180" type="curve" smooth="yes"/>
      <point x="94" y="185"/>
      <point x="96" y="189"/>
      <point x="99" y="193" type="curve"/>
      <point x="103" y="196"/>
      <point x="107" y="198"/>
    </contour>
  </outline>
</glyph>
<glyph name="greater" format="1">
  <advance width="667"/>
  <unicode hex="003E"/>
  <outline>
    <contour>
      <point x="108" y="716" type="curve" smooth="yes"/>
      <point x="111" y="716"/>
      <point x="114" y="715"/>
      <point x="116" y="713" type="curve" smooth="yes"/>
      <point x="570" y="411" type="line" smooth="yes"/>
      <point x="576" y="406"/>
      <point x="578" y="401"/>
      <point x="578" y="396" type="curve" smooth="yes"/>
      <point x="578" y="390"/>
      <point x="576" y="385"/>
      <point x="570" y="381" type="curve" smooth="yes"/>
      <point x="116" y="79" type="line"/>
      <point x="114" y="76"/>
      <point x="111" y="75"/>
      <point x="107" y="75" type="curve" smooth="yes"/>
      <point x="102" y="75"/>
      <point x="98" y="76"/>
      <point x="95" y="80" type="curve" smooth="yes"/>
      <point x="91" y="84"/>
      <point x="90" y="88"/>
      <point x="90" y="93" type="curve" smooth="yes"/>
      <point x="90" y="99"/>
      <point x="92" y="104"/>
      <point x="98" y="108" type="curve" smooth="yes"/>
      <point x="530" y="396" type="line"/>
      <point x="98" y="684" type="line" smooth="yes"/>
      <point x="92" y="687"/>
      <point x="90" y="692"/>
      <point x="90" y="698" type="curve" smooth="yes"/>
      <point x="90" y="703"/>
      <point x="91" y="707"/>
      <point x="95" y="711" type="curve" smooth="yes"/>
      <point x="98" y="714"/>
      <point x="102" y="716"/>
    </contour>
  </outline>
</glyph>
<glyph name="question" format="1">
  <advance width="732"/>
  <unicode hex="003F"/>
  <outline>
    <contour>
      <point x="367" y="1088" type="curve" smooth="yes"/>
      <point x="376" y="1088" type="line"/>
      <point x="437" y="1086"/>
      <point x="492" y="1065"/>
      <point x="540" y="1027" type="curve" smooth="yes"/>
      <point x="589" y="989"/>
      <point x="622" y="939"/>
      <point x="638" y="879" type="curve" smooth="yes"/>
      <point x="645,15" y="852,924"/>
      <point x="648,762" y="827,202"/>
      <point x="648,762" y="801,759" type="curve" smooth="yes"/>
      <point x="648,762" y="766,708"/>
      <point x="641,906" y="732,186"/>
      <point x="628" y="698" type="curve"/>
      <point x="627" y="697" type="line"/>
      <point x="414" y="240" type="line" smooth="yes"/>
      <point x="411" y="232"/>
      <point x="406" y="228"/>
      <point x="398" y="228" type="curve" smooth="yes"/>
      <point x="393" y="228"/>
      <point x="389" y="230"/>
      <point x="385" y="234" type="curve" smooth="yes"/>
      <point x="382" y="238"/>
      <point x="380" y="242"/>
      <point x="380" y="247" type="curve"/>
      <point x="380" y="247"/>
      <point x="381" y="250"/>
      <point x="382" y="255" type="curve"/>
      <point x="594" y="713" type="line"/>
      <point x="606,937" y="743,578"/>
      <point x="613,304" y="774,157"/>
      <point x="613,304" y="805,142" type="curve" smooth="yes"/>
      <point x="613,304" y="826,849"/>
      <point x="610,179" y="848,755"/>
      <point x="604" y="871" type="curve" smooth="yes"/>
      <point x="586" y="937"/>
      <point x="548" y="986"/>
      <point x="489" y="1020" type="curve" smooth="yes"/>
      <point x="450,561" y="1041,5"/>
      <point x="410,424" y="1052,39"/>
      <point x="368,866" y="1052,39" type="curve" smooth="yes"/>
      <point x="346,636" y="1052,39"/>
      <point x="324" y="1049,27"/>
      <point x="301" y="1043" type="curve" smooth="yes"/>
      <point x="235" y="1025"/>
      <point x="186" y="987"/>
      <point x="152" y="928" type="curve" smooth="yes"/>
      <point x="129,769" y="888,769"/>
      <point x="118,654" y="848,683"/>
      <point x="118,654" y="807,184" type="curve" smooth="yes"/>
      <point x="118,654" y="785,213"/>
      <point x="121,769" y="762,846"/>
      <point x="128" y="740" type="curve" smooth="yes"/>
      <point x="146" y="674"/>
      <point x="184" y="624"/>
      <point x="243" y="590" type="curve" smooth="yes"/>
      <point x="281,702" y="568,069"/>
      <point x="321,237" y="557,371"/>
      <point x="362,14" y="557,371" type="curve" smooth="yes"/>
      <point x="384,649" y="557,371"/>
      <point x="407,573" y="560,611"/>
      <point x="431" y="567" type="curve"/>
      <point x="434" y="567" type="line" smooth="yes"/>
      <point x="435" y="567"/>
      <point x="436" y="568"/>
      <point x="436" y="568" type="curve"/>
      <point x="441" y="568"/>
      <point x="445" y="566"/>
      <point x="448" y="562" type="curve" smooth="yes"/>
      <point x="452" y="558"/>
      <point x="453" y="554"/>
      <point x="453" y="550" type="curve" smooth="yes"/>
      <point x="453" y="546"/>
      <point x="452" y="542"/>
      <point x="450" y="539" type="curve" smooth="yes"/>
      <point x="448" y="535"/>
      <point x="444" y="533"/>
      <point x="440" y="533" type="curve" smooth="yes"/>
      <point x="414,5" y="527"/>
      <point x="389,5" y="524"/>
      <point x="365" y="524" type="curve" smooth="yes"/>
      <point x="340,5" y="524"/>
      <point x="316,5" y="527"/>
      <point x="293" y="533" type="curve" smooth="yes"/>
      <point x="247" y="545"/>
      <point x="205" y="568"/>
      <point x="169" y="604" type="curve" smooth="yes"/>
      <point x="133" y="640"/>
      <point x="108" y="682"/>
      <point x="94" y="731" type="curve"/>
      <point x="88" y="757"/>
      <point x="85" y="782,25"/>
      <point x="85" y="806,875" type="curve" smooth="yes"/>
      <point x="85" y="831,5"/>
      <point x="88" y="855,5"/>
      <point x="94" y="879" type="curve" smooth="yes"/>
      <point x="106" y="925"/>
      <point x="129" y="967"/>
      <point x="165" y="1003" type="curve" smooth="yes"/>
      <point x="201" y="1039"/>
      <point x="243" y="1064"/>
      <point x="292" y="1078" type="curve" smooth="yes"/>
      <point x="316" y="1084"/>
      <point x="341" y="1088"/>
    </contour>
    <contour>
      <point x="398" y="110" type="curve" smooth="yes"/>
      <point x="414" y="110"/>
      <point x="427" y="105"/>
      <point x="437" y="94" type="curve" smooth="yes"/>
      <point x="448" y="83"/>
      <point x="453" y="70"/>
      <point x="453" y="55" type="curve" smooth="yes"/>
      <point x="453" y="40"/>
      <point x="448" y="27"/>
      <point x="437" y="16" type="curve" smooth="yes"/>
      <point x="427" y="5"/>
      <point x="414" y="-0"/>
      <point x="398" y="-0" type="curve" smooth="yes"/>
      <point x="383" y="-0"/>
      <point x="370" y="5"/>
      <point x="359" y="16" type="curve" smooth="yes"/>
      <point x="348" y="27"/>
      <point x="342" y="40"/>
      <point x="342" y="55" type="curve" smooth="yes"/>
      <point x="342" y="70"/>
      <point x="348" y="83"/>
      <point x="359" y="94" type="curve" smooth="yes"/>
      <point x="370" y="105"/>
      <point x="383" y="110"/>
    </contour>
    <contour>
      <point x="398" y="74" type="curve" smooth="yes"/>
      <point x="392" y="74"/>
      <point x="388" y="73"/>
      <point x="384" y="69" type="curve" smooth="yes"/>
      <point x="380" y="65"/>
      <point x="378" y="61"/>
      <point x="378" y="55" type="curve" smooth="yes"/>
      <point x="378" y="49"/>
      <point x="380" y="45"/>
      <point x="384" y="41" type="curve" smooth="yes"/>
      <point x="388" y="37"/>
      <point x="392" y="35"/>
      <point x="398" y="35" type="curve" smooth="yes"/>
      <point x="404" y="35"/>
      <point x="409" y="37"/>
      <point x="413" y="41" type="curve" smooth="yes"/>
      <point x="417" y="45"/>
      <point x="418" y="49"/>
      <point x="418" y="55" type="curve" smooth="yes"/>
      <point x="418" y="61"/>
      <point x="417" y="65"/>
      <point x="413" y="69" type="curve" smooth="yes"/>
      <point x="409" y="73"/>
      <point x="404" y="74"/>
    </contour>
  </outline>
</glyph>
<glyph name="at" format="1">
  <advance width="899"/>
  <unicode hex="0040"/>
  <outline>
    <contour>
      <point x="449" y="1094" type="curve" smooth="yes"/>
      <point x="514" y="1094"/>
      <point x="574" y="1078"/>
      <point x="629" y="1046" type="curve" smooth="yes"/>
      <point x="683" y="1014"/>
      <point x="727" y="970"/>
      <point x="759" y="915" type="curve" smooth="yes"/>
      <point x="791" y="861"/>
      <point x="807" y="801"/>
      <point x="807" y="735" type="curve" smooth="yes"/>
      <point x="807" y="293" type="line"/>
      <point x="807" y="291" type="line"/>
      <point x="806" y="266"/>
      <point x="797" y="245"/>
      <point x="779" y="228" type="curve" smooth="yes"/>
      <point x="761" y="210"/>
      <point x="740" y="202"/>
      <point x="716" y="202" type="curve" smooth="yes"/>
      <point x="691" y="202"/>
      <point x="670" y="210"/>
      <point x="652" y="228" type="curve" smooth="yes"/>
      <point x="634" y="246"/>
      <point x="625" y="267"/>
      <point x="625" y="292" type="curve" smooth="yes"/>
      <point x="625" y="294" type="line"/>
      <point x="625" y="347" type="line"/>
      <point x="577" y="299"/>
      <point x="519" y="276"/>
      <point x="452" y="276" type="curve" smooth="yes"/>
      <point x="384" y="276"/>
      <point x="325" y="300"/>
      <point x="277" y="348" type="curve" smooth="yes"/>
      <point x="229" y="396"/>
      <point x="205" y="455"/>
      <point x="205" y="523" type="curve" smooth="yes"/>
      <point x="205" y="591"/>
      <point x="229" y="649"/>
      <point x="277" y="697" type="curve" smooth="yes"/>
      <point x="325" y="745"/>
      <point x="384" y="770"/>
      <point x="452" y="770" type="curve" smooth="yes"/>
      <point x="519" y="770"/>
      <point x="577" y="746"/>
      <point x="625" y="700" type="curve"/>
      <point x="625" y="752" type="line" smooth="yes"/>
      <point x="625" y="757"/>
      <point x="626" y="761"/>
      <point x="630" y="765" type="curve" smooth="yes"/>
      <point x="633" y="768"/>
      <point x="637" y="770"/>
      <point x="642" y="770" type="curve" smooth="yes"/>
      <point x="647" y="770"/>
      <point x="651" y="768"/>
      <point x="655" y="765" type="curve"/>
      <point x="658" y="761"/>
      <point x="660" y="757"/>
      <point x="660" y="752" type="curve" smooth="yes"/>
      <point x="660" y="653" type="line"/>
      <point x="660" y="650" type="line"/>
      <point x="660" y="647" type="line"/>
      <point x="660" y="400" type="line"/>
      <point x="660" y="396" type="line"/>
      <point x="660" y="393" type="line"/>
      <point x="660" y="294" type="line" smooth="yes"/>
      <point x="660" y="278"/>
      <point x="665" y="265"/>
      <point x="676" y="254" type="curve" smooth="yes"/>
      <point x="687" y="243"/>
      <point x="700" y="238"/>
      <point x="716" y="238" type="curve" smooth="yes"/>
      <point x="731" y="238"/>
      <point x="744" y="243"/>
      <point x="755" y="254" type="curve" smooth="yes"/>
      <point x="766" y="265"/>
      <point x="772" y="278"/>
      <point x="772" y="294" type="curve" smooth="yes"/>
      <point x="772" y="736" type="line" smooth="yes"/>
      <point x="772" y="794"/>
      <point x="757" y="848"/>
      <point x="729" y="898" type="curve"/>
      <point x="700" y="947"/>
      <point x="661" y="986"/>
      <point x="611" y="1015" type="curve" smooth="yes"/>
      <point x="561" y="1044"/>
      <point x="507" y="1059"/>
      <point x="449" y="1059" type="curve" smooth="yes"/>
      <point x="391" y="1059"/>
      <point x="337" y="1044"/>
      <point x="287" y="1015" type="curve" smooth="yes"/>
      <point x="237" y="986"/>
      <point x="198" y="947"/>
      <point x="169" y="898" type="curve"/>
      <point x="141" y="848"/>
      <point x="126" y="794"/>
      <point x="126" y="736" type="curve" smooth="yes"/>
      <point x="126" y="358" type="line" smooth="yes"/>
      <point x="126" y="299"/>
      <point x="141" y="245"/>
      <point x="169" y="196" type="curve" smooth="yes"/>
      <point x="198" y="146"/>
      <point x="237" y="107"/>
      <point x="287" y="79" type="curve" smooth="yes"/>
      <point x="337" y="50"/>
      <point x="391" y="36"/>
      <point x="450" y="36" type="curve" smooth="yes"/>
      <point x="538" y="36"/>
      <point x="614" y="67"/>
      <point x="677" y="130" type="curve" smooth="yes"/>
      <point x="680" y="132"/>
      <point x="684" y="134"/>
      <point x="689" y="134" type="curve" smooth="yes"/>
      <point x="694" y="134"/>
      <point x="698" y="132"/>
      <point x="702" y="129" type="curve"/>
      <point x="705" y="125"/>
      <point x="707" y="121"/>
      <point x="707" y="116" type="curve" smooth="yes"/>
      <point x="707" y="111"/>
      <point x="705" y="107"/>
      <point x="702" y="104" type="curve" smooth="yes"/>
      <point x="669" y="71"/>
      <point x="631" y="45"/>
      <point x="587" y="27" type="curve" smooth="yes"/>
      <point x="543" y="9"/>
      <point x="498" y="0"/>
      <point x="450" y="0" type="curve" smooth="yes"/>
      <point x="384" y="0"/>
      <point x="324" y="16"/>
      <point x="269" y="48" type="curve" smooth="yes"/>
      <point x="214" y="80"/>
      <point x="171" y="123"/>
      <point x="139" y="178" type="curve" smooth="yes"/>
      <point x="107" y="233"/>
      <point x="92" y="293"/>
      <point x="92" y="358" type="curve" smooth="yes"/>
      <point x="92" y="736" type="line" smooth="yes"/>
      <point x="92" y="800"/>
      <point x="107" y="860"/>
      <point x="139" y="915" type="curve" smooth="yes"/>
      <point x="171" y="970"/>
      <point x="214" y="1014"/>
      <point x="269" y="1046" type="curve" smooth="yes"/>
      <point x="324" y="1078"/>
      <point x="384" y="1094"/>
    </contour>
    <contour>
      <point x="452" y="734" type="curve" smooth="yes"/>
      <point x="394" y="734"/>
      <point x="344" y="714"/>
      <point x="303" y="672" type="curve"/>
      <point x="261" y="631"/>
      <point x="241" y="581"/>
      <point x="241" y="523" type="curve" smooth="yes"/>
      <point x="241" y="465"/>
      <point x="261" y="415"/>
      <point x="302" y="374" type="curve" smooth="yes"/>
      <point x="343" y="332"/>
      <point x="393" y="312"/>
      <point x="452" y="312" type="curve" smooth="yes"/>
      <point x="487" y="312"/>
      <point x="520" y="320"/>
      <point x="550" y="336" type="curve" smooth="yes"/>
      <point x="580" y="352"/>
      <point x="605" y="373"/>
      <point x="625" y="401" type="curve"/>
      <point x="625" y="645" type="line"/>
      <point x="605" y="672"/>
      <point x="580" y="694"/>
      <point x="550" y="710" type="curve" smooth="yes"/>
      <point x="520" y="726"/>
      <point x="487" y="734"/>
    </contour>
  </outline>
</glyph>
<glyph name="B" format="1">
  <advance width="899"/>
  <unicode hex="0042"/>
  <outline>
    <contour>
      <point x="113" y="1094" type="curve"/>
      <point x="113" y="1094" type="line"/>
      <point x="119" y="1094"/>
      <point x="123" y="1092"/>
      <point x="126" y="1089" type="curve" smooth="yes"/>
      <point x="130" y="1085"/>
      <point x="131" y="1081"/>
      <point x="131" y="1076" type="curve" smooth="yes"/>
      <point x="131" y="918" type="line"/>
      <point x="158" y="969"/>
      <point x="196" y="1010"/>
      <point x="246" y="1040" type="curve" smooth="yes"/>
      <point x="296" y="1070"/>
      <point x="350" y="1086"/>
      <point x="409" y="1086" type="curve" smooth="yes"/>
      <point x="495" y="1086"/>
      <point x="568" y="1055"/>
      <point x="630" y="994" type="curve" smooth="yes"/>
      <point x="691" y="933"/>
      <point x="722" y="859"/>
      <point x="722" y="773" type="curve" smooth="yes"/>
      <point x="722" y="723"/>
      <point x="710" y="675"/>
      <point x="686" y="629" type="curve"/>
      <point x="725" y="596"/>
      <point x="756" y="556"/>
      <point x="778" y="508" type="curve" smooth="yes"/>
      <point x="800" y="461"/>
      <point x="812" y="411"/>
      <point x="812" y="358" type="curve" smooth="yes"/>
      <point x="812" y="293"/>
      <point x="796" y="233"/>
      <point x="764" y="178" type="curve" smooth="yes"/>
      <point x="732" y="123"/>
      <point x="689" y="80"/>
      <point x="634" y="48" type="curve" smooth="yes"/>
      <point x="579" y="16"/>
      <point x="519" y="0"/>
      <point x="454" y="0" type="curve" smooth="yes"/>
      <point x="384" y="0"/>
      <point x="321" y="18"/>
      <point x="263" y="55" type="curve" smooth="yes"/>
      <point x="205" y="92"/>
      <point x="162" y="141"/>
      <point x="132" y="202" type="curve"/>
      <point x="132" y="18" type="line" smooth="yes"/>
      <point x="132" y="13"/>
      <point x="130" y="9"/>
      <point x="127" y="5" type="curve" smooth="yes"/>
      <point x="123" y="1"/>
      <point x="119" y="-0"/>
      <point x="114" y="-0" type="curve" smooth="yes"/>
      <point x="109" y="-0"/>
      <point x="105" y="1"/>
      <point x="101" y="5" type="curve" smooth="yes"/>
      <point x="97" y="9"/>
      <point x="96" y="13"/>
      <point x="96" y="18" type="curve" smooth="yes"/>
      <point x="96" y="358" type="line"/>
      <point x="96" y="359" type="line"/>
      <point x="96" y="774" type="line"/>
      <point x="96" y="1076" type="line" smooth="yes"/>
      <point x="96" y="1081"/>
      <point x="97" y="1085"/>
      <point x="101" y="1089" type="curve" smooth="yes"/>
      <point x="104" y="1092"/>
      <point x="108" y="1094"/>
    </contour>
    <contour>
      <point x="408" y="1051" type="curve" smooth="yes"/>
      <point x="332" y="1051"/>
      <point x="266" y="1023"/>
      <point x="212" y="969" type="curve" smooth="yes"/>
      <point x="158" y="915"/>
      <point x="131" y="849"/>
      <point x="131" y="773" type="curve" smooth="yes"/>
      <point x="131" y="357" type="line" smooth="yes"/>
      <point x="131" y="299"/>
      <point x="146" y="245"/>
      <point x="174" y="195" type="curve"/>
      <point x="203" y="146"/>
      <point x="242" y="107"/>
      <point x="292" y="78" type="curve" smooth="yes"/>
      <point x="342" y="50"/>
      <point x="396" y="35"/>
      <point x="454" y="35" type="curve" smooth="yes"/>
      <point x="512" y="35"/>
      <point x="566" y="50"/>
      <point x="616" y="78" type="curve" smooth="yes"/>
      <point x="666" y="107"/>
      <point x="705" y="146"/>
      <point x="733" y="195" type="curve" smooth="yes"/>
      <point x="762" y="245"/>
      <point x="776" y="299"/>
      <point x="776" y="357" type="curve" smooth="yes"/>
      <point x="776" y="407"/>
      <point x="766" y="454"/>
      <point x="744" y="498" type="curve" smooth="yes"/>
      <point x="722" y="542"/>
      <point x="692" y="579"/>
      <point x="654" y="609" type="curve" smooth="yes"/>
      <point x="652" y="611"/>
      <point x="651" y="612"/>
      <point x="649" y="613" type="curve" smooth="yes"/>
      <point x="593" y="657"/>
      <point x="527" y="679"/>
      <point x="453" y="679" type="curve" smooth="yes"/>
      <point x="377" y="679"/>
      <point x="310" y="656"/>
      <point x="251" y="608" type="curve" smooth="yes"/>
      <point x="248" y="605"/>
      <point x="244" y="603"/>
      <point x="239" y="603" type="curve" smooth="yes"/>
      <point x="234" y="603"/>
      <point x="230" y="605"/>
      <point x="226" y="609" type="curve" smooth="yes"/>
      <point x="223" y="613"/>
      <point x="221" y="617"/>
      <point x="221" y="621" type="curve" smooth="yes"/>
      <point x="221" y="627"/>
      <point x="224" y="632"/>
      <point x="228" y="636" type="curve" smooth="yes"/>
      <point x="294" y="689"/>
      <point x="369" y="715"/>
      <point x="453" y="715" type="curve" smooth="yes"/>
      <point x="529" y="715"/>
      <point x="597" y="694"/>
      <point x="657" y="651" type="curve"/>
      <point x="676" y="690"/>
      <point x="685" y="731"/>
      <point x="685" y="773" type="curve" smooth="yes"/>
      <point x="685" y="849"/>
      <point x="658" y="915"/>
      <point x="604" y="969" type="curve" smooth="yes"/>
      <point x="550" y="1023"/>
      <point x="485" y="1051"/>
    </contour>
  </outline>
</glyph>
<glyph name="C" format="1">
  <advance width="813"/>
  <unicode hex="0043"/>
  <outline>
    <contour>
      <point x="444" y="1094" type="curve" smooth="yes"/>
      <point x="504" y="1094"/>
      <point x="561" y="1079"/>
      <point x="614" y="1051" type="curve"/>
      <point x="666" y="1022"/>
      <point x="709" y="983"/>
      <point x="742" y="935" type="curve" smooth="yes"/>
      <point x="744" y="931"/>
      <point x="745" y="928"/>
      <point x="745" y="925" type="curve" smooth="yes"/>
      <point x="745" y="920"/>
      <point x="743" y="916"/>
      <point x="740" y="912" type="curve" smooth="yes"/>
      <point x="736" y="908"/>
      <point x="732" y="907"/>
      <point x="727" y="907" type="curve" smooth="yes"/>
      <point x="721" y="907"/>
      <point x="716" y="909"/>
      <point x="712" y="915" type="curve" smooth="yes"/>
      <point x="682" y="959"/>
      <point x="644" y="994"/>
      <point x="597" y="1020" type="curve" smooth="yes"/>
      <point x="549" y="1046"/>
      <point x="498" y="1059"/>
      <point x="444" y="1059" type="curve" smooth="yes"/>
      <point x="385" y="1059"/>
      <point x="331" y="1044"/>
      <point x="282" y="1015" type="curve" smooth="yes"/>
      <point x="232" y="986"/>
      <point x="193" y="947"/>
      <point x="165" y="898" type="curve" smooth="yes"/>
      <point x="136" y="848"/>
      <point x="122" y="794"/>
      <point x="122" y="736" type="curve" smooth="yes"/>
      <point x="122" y="358" type="line" smooth="yes"/>
      <point x="122" y="299"/>
      <point x="136" y="245"/>
      <point x="165" y="196" type="curve"/>
      <point x="193" y="146"/>
      <point x="232" y="107"/>
      <point x="282" y="79" type="curve"/>
      <point x="331" y="50"/>
      <point x="385" y="36"/>
      <point x="444" y="36" type="curve" smooth="yes"/>
      <point x="498" y="36"/>
      <point x="549" y="48"/>
      <point x="597" y="74" type="curve" smooth="yes"/>
      <point x="644" y="100"/>
      <point x="682" y="135"/>
      <point x="712" y="179" type="curve" smooth="yes"/>
      <point x="716" y="184"/>
      <point x="721" y="187"/>
      <point x="727" y="187" type="curve" smooth="yes"/>
      <point x="732" y="187"/>
      <point x="736" y="185"/>
      <point x="740" y="182" type="curve"/>
      <point x="743" y="178"/>
      <point x="745" y="174"/>
      <point x="745" y="169" type="curve" smooth="yes"/>
      <point x="745" y="165"/>
      <point x="744" y="162"/>
      <point x="742" y="159" type="curve" smooth="yes"/>
      <point x="709" y="110"/>
      <point x="666" y="71"/>
      <point x="614" y="43" type="curve" smooth="yes"/>
      <point x="561" y="14"/>
      <point x="504" y="0"/>
      <point x="444" y="0" type="curve" smooth="yes"/>
      <point x="379" y="0"/>
      <point x="319" y="16"/>
      <point x="264" y="48" type="curve" smooth="yes"/>
      <point x="209" y="80"/>
      <point x="166" y="123"/>
      <point x="134" y="178" type="curve" smooth="yes"/>
      <point x="102" y="233"/>
      <point x="86" y="293"/>
      <point x="86" y="358" type="curve" smooth="yes"/>
      <point x="86" y="736" type="line" smooth="yes"/>
      <point x="86" y="800"/>
      <point x="102" y="860"/>
      <point x="134" y="915" type="curve" smooth="yes"/>
      <point x="166" y="970"/>
      <point x="209" y="1014"/>
      <point x="264" y="1046" type="curve" smooth="yes"/>
      <point x="319" y="1078"/>
      <point x="379" y="1094"/>
    </contour>
  </outline>
</glyph>
<glyph name="D" format="1">
  <advance width="843"/>
  <unicode hex="0044"/>
  <outline>
    <contour>
      <point x="394" y="1094" type="curve" smooth="yes"/>
      <point x="458" y="1094"/>
      <point x="518" y="1078"/>
      <point x="573" y="1046" type="curve" smooth="yes"/>
      <point x="628" y="1014"/>
      <point x="672" y="970"/>
      <point x="704" y="915" type="curve" smooth="yes"/>
      <point x="736" y="860"/>
      <point x="752" y="800"/>
      <point x="752" y="735" type="curve" smooth="yes"/>
      <point x="752" y="357" type="line" smooth="yes"/>
      <point x="752" y="293"/>
      <point x="736" y="233"/>
      <point x="704" y="178" type="curve" smooth="yes"/>
      <point x="672" y="123"/>
      <point x="628" y="79"/>
      <point x="573" y="47" type="curve" smooth="yes"/>
      <point x="518" y="15"/>
      <point x="458" y="-0"/>
      <point x="394" y="-0" type="curve" smooth="yes"/>
      <point x="342" y="-0"/>
      <point x="293" y="10"/>
      <point x="247" y="30" type="curve" smooth="yes"/>
      <point x="201" y="51"/>
      <point x="162" y="80"/>
      <point x="129" y="117" type="curve"/>
      <point x="129" y="18" type="line" smooth="yes"/>
      <point x="129" y="13"/>
      <point x="127" y="9"/>
      <point x="123" y="5" type="curve" smooth="yes"/>
      <point x="119" y="1"/>
      <point x="115" y="-0"/>
      <point x="111" y="-0" type="curve" smooth="yes"/>
      <point x="106" y="-0"/>
      <point x="102" y="1"/>
      <point x="98" y="5" type="curve" smooth="yes"/>
      <point x="94" y="9"/>
      <point x="93" y="13"/>
      <point x="93" y="18" type="curve" smooth="yes"/>
      <point x="93" y="168" type="line"/>
      <point x="93" y="169" type="line"/>
      <point x="93" y="171" type="line"/>
      <point x="93" y="923" type="line"/>
      <point x="93" y="924" type="line"/>
      <point x="93" y="928" type="line"/>
      <point x="93" y="929" type="line"/>
      <point x="94" y="930" type="line"/>
      <point x="94" y="932" type="line"/>
      <point x="95" y="934"/>
      <point x="96" y="935"/>
      <point x="97" y="937" type="curve" smooth="yes"/>
      <point x="131" y="985"/>
      <point x="173" y="1024"/>
      <point x="225" y="1052" type="curve" smooth="yes"/>
      <point x="277" y="1080"/>
      <point x="333" y="1094"/>
    </contour>
    <contour>
      <point x="394" y="1059" type="curve" smooth="yes"/>
      <point x="340" y="1059"/>
      <point x="289" y="1046"/>
      <point x="243" y="1021" type="curve" smooth="yes"/>
      <point x="196" y="996"/>
      <point x="158" y="962"/>
      <point x="129" y="918" type="curve"/>
      <point x="129" y="174" type="line"/>
      <point x="158" y="132"/>
      <point x="196" y="98"/>
      <point x="243" y="73" type="curve" smooth="yes"/>
      <point x="289" y="48"/>
      <point x="340" y="35"/>
      <point x="394" y="35" type="curve" smooth="yes"/>
      <point x="452" y="35"/>
      <point x="505" y="50"/>
      <point x="555" y="78" type="curve" smooth="yes"/>
      <point x="605" y="107"/>
      <point x="644" y="146"/>
      <point x="673" y="195" type="curve"/>
      <point x="701" y="245"/>
      <point x="716" y="299"/>
      <point x="716" y="357" type="curve" smooth="yes"/>
      <point x="716" y="735" type="line" smooth="yes"/>
      <point x="716" y="794"/>
      <point x="701" y="848"/>
      <point x="673" y="897" type="curve" smooth="yes"/>
      <point x="644" y="947"/>
      <point x="605" y="986"/>
      <point x="555" y="1015" type="curve" smooth="yes"/>
      <point x="505" y="1044"/>
      <point x="452" y="1059"/>
    </contour>
  </outline>
</glyph>
<glyph name="F" format="1">
  <advance width="801"/>
  <unicode hex="0046"/>
  <outline>
    <contour>
      <point x="114" y="1094" type="curve" smooth="yes"/>
      <point x="719" y="1094" type="line" smooth="yes"/>
      <point x="724" y="1094"/>
      <point x="728" y="1092"/>
      <point x="732" y="1089" type="curve"/>
      <point x="735" y="1085"/>
      <point x="737" y="1081"/>
      <point x="737" y="1076" type="curve" smooth="yes"/>
      <point x="737" y="1071"/>
      <point x="735" y="1067"/>
      <point x="732" y="1064" type="curve" smooth="yes"/>
      <point x="728" y="1060"/>
      <point x="724" y="1059"/>
      <point x="719" y="1059" type="curve" smooth="yes"/>
      <point x="132" y="1059" type="line"/>
      <point x="132" y="407" type="line"/>
      <point x="643" y="407" type="line"/>
      <point x="644" y="407" type="line" smooth="yes"/>
      <point x="648" y="407"/>
      <point x="652" y="405"/>
      <point x="656" y="401" type="curve" smooth="yes"/>
      <point x="660" y="397"/>
      <point x="662" y="393"/>
      <point x="662" y="389" type="curve" smooth="yes"/>
      <point x="662" y="384"/>
      <point x="660" y="380"/>
      <point x="656" y="376" type="curve" smooth="yes"/>
      <point x="652" y="372"/>
      <point x="648" y="371"/>
      <point x="643" y="371" type="curve" smooth="yes"/>
      <point x="642" y="371" type="line"/>
      <point x="131" y="371" type="line"/>
      <point x="131" y="18" type="line" smooth="yes"/>
      <point x="131" y="13"/>
      <point x="130" y="9"/>
      <point x="126" y="5" type="curve" smooth="yes"/>
      <point x="123" y="1"/>
      <point x="119" y="-0"/>
      <point x="114" y="-0" type="curve" smooth="yes"/>
      <point x="109" y="-0"/>
      <point x="105" y="1"/>
      <point x="101" y="5" type="curve" smooth="yes"/>
      <point x="97" y="9"/>
      <point x="95" y="13"/>
      <point x="95" y="18" type="curve" smooth="yes"/>
      <point x="95" y="386" type="line"/>
      <point x="95" y="389" type="line"/>
      <point x="95" y="391" type="line"/>
      <point x="95" y="1076" type="line" smooth="yes"/>
      <point x="95" y="1081"/>
      <point x="97" y="1085"/>
      <point x="101" y="1089" type="curve" smooth="yes"/>
      <point x="105" y="1092"/>
      <point x="109" y="1094"/>
    </contour>
  </outline>
</glyph>
<glyph name="G" format="1">
  <advance width="842"/>
  <unicode hex="0047"/>
  <outline>
    <contour>
      <point x="444" y="1094" type="curve" smooth="yes"/>
      <point x="504" y="1094"/>
      <point x="561" y="1079"/>
      <point x="614" y="1051" type="curve"/>
      <point x="666" y="1022"/>
      <point x="709" y="983"/>
      <point x="742" y="935" type="curve" smooth="yes"/>
      <point x="744" y="931"/>
      <point x="745" y="928"/>
      <point x="745" y="925" type="curve" smooth="yes"/>
      <point x="745" y="920"/>
      <point x="743" y="916"/>
      <point x="740" y="912" type="curve" smooth="yes"/>
      <point x="736" y="908"/>
      <point x="732" y="907"/>
      <point x="727" y="907" type="curve" smooth="yes"/>
      <point x="721" y="907"/>
      <point x="716" y="909"/>
      <point x="712" y="915" type="curve" smooth="yes"/>
      <point x="682" y="959"/>
      <point x="644" y="994"/>
      <point x="597" y="1020" type="curve" smooth="yes"/>
      <point x="549" y="1046"/>
      <point x="498" y="1059"/>
      <point x="444" y="1059" type="curve" smooth="yes"/>
      <point x="385" y="1059"/>
      <point x="331" y="1044"/>
      <point x="282" y="1015" type="curve" smooth="yes"/>
      <point x="232" y="986"/>
      <point x="193" y="947"/>
      <point x="165" y="898" type="curve" smooth="yes"/>
      <point x="136" y="848"/>
      <point x="122" y="794"/>
      <point x="122" y="736" type="curve" smooth="yes"/>
      <point x="122" y="358" type="line" smooth="yes"/>
      <point x="122" y="299"/>
      <point x="136" y="245"/>
      <point x="165" y="196" type="curve"/>
      <point x="193" y="146"/>
      <point x="232" y="107"/>
      <point x="282" y="79" type="curve"/>
      <point x="331" y="50"/>
      <point x="385" y="36"/>
      <point x="444" y="36" type="curve" smooth="yes"/>
      <point x="498" y="36"/>
      <point x="548" y="48"/>
      <point x="595" y="73" type="curve" smooth="yes"/>
      <point x="641" y="98"/>
      <point x="680" y="132"/>
      <point x="710" y="175" type="curve"/>
      <point x="710" y="605" type="line"/>
      <point x="639" y="676" type="line" smooth="yes"/>
      <point x="635" y="679"/>
      <point x="633" y="683"/>
      <point x="633" y="688" type="curve" smooth="yes"/>
      <point x="633" y="693"/>
      <point x="634" y="697"/>
      <point x="638" y="701" type="curve" smooth="yes"/>
      <point x="642" y="704"/>
      <point x="646" y="706"/>
      <point x="651" y="706" type="curve" smooth="yes"/>
      <point x="656" y="706"/>
      <point x="660" y="704"/>
      <point x="664" y="701" type="curve" smooth="yes"/>
      <point x="740" y="625" type="line" smooth="yes"/>
      <point x="743" y="621"/>
      <point x="745" y="617"/>
      <point x="745" y="613" type="curve" smooth="yes"/>
      <point x="745" y="171" type="line"/>
      <point x="745" y="169" type="line"/>
      <point x="745" y="167" type="line"/>
      <point x="745" y="-218" type="line" smooth="yes"/>
      <point x="745" y="-223"/>
      <point x="743" y="-227"/>
      <point x="740" y="-231" type="curve" smooth="yes"/>
      <point x="736" y="-235"/>
      <point x="732" y="-237"/>
      <point x="727" y="-237" type="curve" smooth="yes"/>
      <point x="722" y="-237"/>
      <point x="718" y="-235"/>
      <point x="715" y="-231" type="curve" smooth="yes"/>
      <point x="711" y="-227"/>
      <point x="710" y="-223"/>
      <point x="710" y="-218" type="curve" smooth="yes"/>
      <point x="710" y="117" type="line"/>
      <point x="676" y="80"/>
      <point x="636" y="51"/>
      <point x="590" y="31" type="curve" smooth="yes"/>
      <point x="544" y="10"/>
      <point x="495" y="0"/>
      <point x="444" y="0" type="curve" smooth="yes"/>
      <point x="379" y="0"/>
      <point x="319" y="16"/>
      <point x="264" y="48" type="curve" smooth="yes"/>
      <point x="209" y="80"/>
      <point x="166" y="123"/>
      <point x="134" y="178" type="curve" smooth="yes"/>
      <point x="102" y="233"/>
      <point x="86" y="293"/>
      <point x="86" y="358" type="curve" smooth="yes"/>
      <point x="86" y="736" type="line" smooth="yes"/>
      <point x="86" y="800"/>
      <point x="102" y="860"/>
      <point x="134" y="915" type="curve" smooth="yes"/>
      <point x="166" y="970"/>
      <point x="209" y="1014"/>
      <point x="264" y="1046" type="curve" smooth="yes"/>
      <point x="319" y="1078"/>
      <point x="379" y="1094"/>
    </contour>
  </outline>
</glyph>
<glyph name="H" format="1">
  <advance width="835"/>
  <unicode hex="0048"/>
  <outline>
    <contour>
      <point x="114" y="1094" type="curve" smooth="yes"/>
      <point x="119" y="1094"/>
      <point x="123" y="1092"/>
      <point x="127" y="1089" type="curve"/>
      <point x="130" y="1085"/>
      <point x="132" y="1081"/>
      <point x="132" y="1076" type="curve" smooth="yes"/>
      <point x="132" y="414" type="line"/>
      <point x="701" y="414" type="line"/>
      <point x="701" y="1076" type="line" smooth="yes"/>
      <point x="701" y="1081"/>
      <point x="702" y="1085"/>
      <point x="706" y="1089" type="curve" smooth="yes"/>
      <point x="710" y="1092"/>
      <point x="714" y="1094"/>
      <point x="719" y="1094" type="curve" smooth="yes"/>
      <point x="724" y="1094"/>
      <point x="728" y="1092"/>
      <point x="732" y="1089" type="curve"/>
      <point x="735" y="1085"/>
      <point x="737" y="1081"/>
      <point x="737" y="1076" type="curve" smooth="yes"/>
      <point x="737" y="399" type="line"/>
      <point x="737" y="396" type="line"/>
      <point x="737" y="393" type="line"/>
      <point x="737" y="18" type="line" smooth="yes"/>
      <point x="737" y="13"/>
      <point x="735" y="9"/>
      <point x="732" y="5" type="curve" smooth="yes"/>
      <point x="728" y="1"/>
      <point x="724" y="-0"/>
      <point x="719" y="-0" type="curve" smooth="yes"/>
      <point x="714" y="-0"/>
      <point x="710" y="1"/>
      <point x="706" y="5" type="curve" smooth="yes"/>
      <point x="702" y="9"/>
      <point x="701" y="13"/>
      <point x="701" y="18" type="curve" smooth="yes"/>
      <point x="701" y="378" type="line"/>
      <point x="132" y="378" type="line"/>
      <point x="132" y="18" type="line" smooth="yes"/>
      <point x="132" y="13"/>
      <point x="130" y="9"/>
      <point x="127" y="5" type="curve" smooth="yes"/>
      <point x="123" y="1"/>
      <point x="119" y="-0"/>
      <point x="114" y="-0" type="curve" smooth="yes"/>
      <point x="109" y="-0"/>
      <point x="105" y="1"/>
      <point x="101" y="5" type="curve" smooth="yes"/>
      <point x="97" y="9"/>
      <point x="96" y="13"/>
      <point x="96" y="18" type="curve" smooth="yes"/>
      <point x="96" y="393" type="line"/>
      <point x="96" y="396" type="line"/>
      <point x="96" y="399" type="line"/>
      <point x="96" y="1076" type="line" smooth="yes"/>
      <point x="96" y="1081"/>
      <point x="97" y="1085"/>
      <point x="101" y="1089" type="curve" smooth="yes"/>
      <point x="105" y="1092"/>
      <point x="109" y="1094"/>
    </contour>
  </outline>
</glyph>
<glyph name="J" format="1">
  <advance width="810"/>
  <unicode hex="004A"/>
  <outline>
    <contour>
      <point x="695" y="1094" type="curve" smooth="yes"/>
      <point x="700" y="1094"/>
      <point x="704" y="1092"/>
      <point x="708" y="1089" type="curve" smooth="yes"/>
      <point x="712" y="1085"/>
      <point x="713" y="1081"/>
      <point x="713" y="1076" type="curve" smooth="yes"/>
      <point x="713" y="138" type="line" smooth="yes"/>
      <point x="713" y="74"/>
      <point x="697" y="14"/>
      <point x="665" y="-40" type="curve" smooth="yes"/>
      <point x="633" y="-95"/>
      <point x="590" y="-139"/>
      <point x="535" y="-171" type="curve" smooth="yes"/>
      <point x="480" y="-203"/>
      <point x="420" y="-219"/>
      <point x="355" y="-219" type="curve" smooth="yes"/>
      <point x="294" y="-219"/>
      <point x="237" y="-204"/>
      <point x="185" y="-176" type="curve" smooth="yes"/>
      <point x="133" y="-147"/>
      <point x="90" y="-108"/>
      <point x="58" y="-60" type="curve" smooth="yes"/>
      <point x="56" y="-56"/>
      <point x="55" y="-53"/>
      <point x="55" y="-49" type="curve" smooth="yes"/>
      <point x="55" y="-44"/>
      <point x="56" y="-40"/>
      <point x="60" y="-37" type="curve" smooth="yes"/>
      <point x="64" y="-33"/>
      <point x="68" y="-32"/>
      <point x="73" y="-32" type="curve" smooth="yes"/>
      <point x="79" y="-32"/>
      <point x="83" y="-34"/>
      <point x="87" y="-40" type="curve" smooth="yes"/>
      <point x="116" y="-84"/>
      <point x="154" y="-118"/>
      <point x="202" y="-144" type="curve" smooth="yes"/>
      <point x="249" y="-170"/>
      <point x="300" y="-183"/>
      <point x="355" y="-183" type="curve" smooth="yes"/>
      <point x="413" y="-183"/>
      <point x="467" y="-168"/>
      <point x="517" y="-140" type="curve" smooth="yes"/>
      <point x="567" y="-111"/>
      <point x="606" y="-72"/>
      <point x="635" y="-22" type="curve" smooth="yes"/>
      <point x="663" y="27"/>
      <point x="678" y="81"/>
      <point x="678" y="139" type="curve" smooth="yes"/>
      <point x="678" y="1076" type="line" smooth="yes"/>
      <point x="678" y="1081"/>
      <point x="679" y="1085"/>
      <point x="683" y="1089" type="curve" smooth="yes"/>
      <point x="686" y="1092"/>
      <point x="690" y="1094"/>
    </contour>
  </outline>
</glyph>
<glyph name="K" format="1">
  <advance width="801"/>
  <unicode hex="004B"/>
  <outline>
    <contour>
      <point x="114" y="1094" type="curve" smooth="yes"/>
      <point x="119" y="1094"/>
      <point x="123" y="1092"/>
      <point x="127" y="1089" type="curve"/>
      <point x="130" y="1085"/>
      <point x="132" y="1081"/>
      <point x="132" y="1076" type="curve" smooth="yes"/>
      <point x="132" y="661" type="line"/>
      <point x="632" y="1089" type="line" smooth="yes"/>
      <point x="635" y="1092"/>
      <point x="639" y="1094"/>
      <point x="643" y="1094" type="curve" smooth="yes"/>
      <point x="647" y="1094"/>
      <point x="651" y="1092"/>
      <point x="655" y="1089" type="curve" smooth="yes"/>
      <point x="659" y="1085"/>
      <point x="661" y="1081"/>
      <point x="661" y="1076" type="curve" smooth="yes"/>
      <point x="661" y="1070"/>
      <point x="659" y="1066"/>
      <point x="655" y="1063" type="curve" smooth="yes"/>
      <point x="406" y="848" type="line"/>
      <point x="735" y="23" type="line"/>
      <point x="735" y="23"/>
      <point x="736" y="21"/>
      <point x="736" y="17" type="curve" smooth="yes"/>
      <point x="736" y="12"/>
      <point x="734" y="8"/>
      <point x="731" y="5" type="curve" smooth="yes"/>
      <point x="727" y="1"/>
      <point x="723" y="0"/>
      <point x="719" y="0" type="curve" smooth="yes"/>
      <point x="711" y="0"/>
      <point x="705" y="3"/>
      <point x="702" y="11" type="curve" smooth="yes"/>
      <point x="377" y="825" type="line"/>
      <point x="132" y="615" type="line"/>
      <point x="132" y="18" type="line" smooth="yes"/>
      <point x="132" y="13"/>
      <point x="130" y="9"/>
      <point x="127" y="5" type="curve" smooth="yes"/>
      <point x="123" y="1"/>
      <point x="119" y="-0"/>
      <point x="114" y="-0" type="curve" smooth="yes"/>
      <point x="109" y="-0"/>
      <point x="105" y="1"/>
      <point x="101" y="5" type="curve" smooth="yes"/>
      <point x="97" y="9"/>
      <point x="96" y="13"/>
      <point x="96" y="18" type="curve" smooth="yes"/>
      <point x="96" y="620" type="line"/>
      <point x="96" y="623" type="line"/>
      <point x="96" y="625" type="line"/>
      <point x="96" y="1076" type="line" smooth="yes"/>
      <point x="96" y="1081"/>
      <point x="97" y="1085"/>
      <point x="101" y="1089" type="curve" smooth="yes"/>
      <point x="105" y="1092"/>
      <point x="109" y="1094"/>
    </contour>
  </outline>
</glyph>
<glyph name="L" format="1">
  <advance width="805"/>
  <unicode hex="004C"/>
  <outline>
    <contour>
      <point x="113" y="1094" type="curve" smooth="yes"/>
      <point x="114" y="1094" type="line" smooth="yes"/>
      <point x="119" y="1094"/>
      <point x="123" y="1092"/>
      <point x="127" y="1089" type="curve"/>
      <point x="130" y="1085"/>
      <point x="132" y="1081"/>
      <point x="132" y="1076" type="curve" smooth="yes"/>
      <point x="132" y="36" type="line"/>
      <point x="718" y="36" type="line"/>
      <point x="719" y="36" type="line" smooth="yes"/>
      <point x="724" y="36"/>
      <point x="728" y="34"/>
      <point x="732" y="30" type="curve" smooth="yes"/>
      <point x="735" y="26"/>
      <point x="737" y="22"/>
      <point x="737" y="18" type="curve" smooth="yes"/>
      <point x="737" y="13"/>
      <point x="735" y="9"/>
      <point x="732" y="5" type="curve" smooth="yes"/>
      <point x="728" y="1"/>
      <point x="724" y="-0"/>
      <point x="719" y="-0" type="curve" smooth="yes"/>
      <point x="718" y="-0" type="line"/>
      <point x="114" y="-0" type="line" smooth="yes"/>
      <point x="109" y="-0"/>
      <point x="105" y="1"/>
      <point x="101" y="5" type="curve" smooth="yes"/>
      <point x="97" y="9"/>
      <point x="96" y="13"/>
      <point x="96" y="18" type="curve" smooth="yes"/>
      <point x="96" y="1076" type="line" smooth="yes"/>
      <point x="96" y="1081"/>
      <point x="97" y="1085"/>
      <point x="101" y="1089" type="curve" smooth="yes"/>
      <point x="104" y="1092"/>
      <point x="108" y="1094"/>
    </contour>
  </outline>
</glyph>
<glyph name="M" format="1">
  <advance width="947"/>
  <unicode hex="004D"/>
  <outline>
    <contour>
      <point x="114" y="1094" type="line" smooth="yes"/>
      <point x="120" y="1094"/>
      <point x="125" y="1091"/>
      <point x="129" y="1087" type="curve" smooth="yes"/>
      <point x="457" y="726" type="line"/>
      <point x="816" y="1087" type="line" smooth="yes"/>
      <point x="820" y="1091"/>
      <point x="825" y="1094"/>
      <point x="831" y="1094" type="curve" smooth="yes"/>
      <point x="833" y="1094" type="line"/>
      <point x="836" y="1094" type="line"/>
      <point x="838" y="1094" type="line"/>
      <point x="838" y="1093" type="line"/>
      <point x="839" y="1093" type="line"/>
      <point x="839" y="1092" type="line"/>
      <point x="841" y="1090"/>
      <point x="842" y="1089"/>
      <point x="843" y="1089" type="curve" smooth="yes"/>
      <point x="847" y="1085"/>
      <point x="849" y="1081"/>
      <point x="849" y="1076" type="curve" smooth="yes"/>
      <point x="849" y="1074" type="line"/>
      <point x="849" y="18" type="line" smooth="yes"/>
      <point x="849" y="13"/>
      <point x="847" y="9"/>
      <point x="843" y="5" type="curve" smooth="yes"/>
      <point x="839" y="1"/>
      <point x="835" y="-0"/>
      <point x="831" y="-0" type="curve" smooth="yes"/>
      <point x="826" y="-0"/>
      <point x="822" y="1"/>
      <point x="818" y="5" type="curve" smooth="yes"/>
      <point x="814" y="9"/>
      <point x="813" y="13"/>
      <point x="813" y="18" type="curve" smooth="yes"/>
      <point x="813" y="1034" type="line"/>
      <point x="481" y="701" type="line"/>
      <point x="542" y="635" type="line" smooth="yes"/>
      <point x="545" y="631"/>
      <point x="547" y="627"/>
      <point x="547" y="622" type="curve" smooth="yes"/>
      <point x="547" y="617"/>
      <point x="545" y="613"/>
      <point x="541" y="609" type="curve" smooth="yes"/>
      <point x="537" y="605"/>
      <point x="533" y="604"/>
      <point x="529" y="604" type="curve" smooth="yes"/>
      <point x="524" y="604"/>
      <point x="519" y="606"/>
      <point x="515" y="611" type="curve" smooth="yes"/>
      <point x="446" y="687" type="line"/>
      <point x="444" y="687"/>
      <point x="442" y="689"/>
      <point x="441" y="692" type="curve"/>
      <point x="132" y="1030" type="line"/>
      <point x="132" y="18" type="line" smooth="yes"/>
      <point x="132" y="13"/>
      <point x="130" y="9"/>
      <point x="127" y="5" type="curve" smooth="yes"/>
      <point x="123" y="1"/>
      <point x="119" y="-0"/>
      <point x="114" y="-0" type="curve" smooth="yes"/>
      <point x="109" y="-0"/>
      <point x="105" y="1"/>
      <point x="101" y="5" type="curve" smooth="yes"/>
      <point x="97" y="9"/>
      <point x="96" y="13"/>
      <point x="96" y="18" type="curve" smooth="yes"/>
      <point x="96" y="1074" type="line"/>
      <point x="96" y="1076" type="line" smooth="yes"/>
      <point x="96" y="1081"/>
      <point x="98" y="1086"/>
      <point x="103" y="1090" type="curve" smooth="yes"/>
      <point x="104" y="1091" type="line"/>
      <point x="105" y="1092" type="line"/>
      <point x="106" y="1093" type="line"/>
      <point x="108" y="1094" type="line"/>
      <point x="109" y="1094" type="line"/>
      <point x="111" y="1094" type="line"/>
      <point x="113" y="1094" type="line"/>
    </contour>
  </outline>
</glyph>
<glyph name="N" format="1">
  <advance width="837"/>
  <unicode hex="004E"/>
  <outline>
    <contour>
      <point x="719" y="1094" type="curve" smooth="yes"/>
      <point x="720" y="1094" type="line" smooth="yes"/>
      <point x="724" y="1094"/>
      <point x="728" y="1092"/>
      <point x="732" y="1089" type="curve" smooth="yes"/>
      <point x="736" y="1085"/>
      <point x="738" y="1081"/>
      <point x="738" y="1076" type="curve" smooth="yes"/>
      <point x="738" y="18" type="line" smooth="yes"/>
      <point x="738" y="13"/>
      <point x="736" y="9"/>
      <point x="732" y="5" type="curve" smooth="yes"/>
      <point x="728" y="1"/>
      <point x="724" y="-0"/>
      <point x="719" y="-0" type="curve" smooth="yes"/>
      <point x="715" y="-0"/>
      <point x="711" y="1"/>
      <point x="707" y="5" type="curve" smooth="yes"/>
      <point x="703" y="9"/>
      <point x="701" y="13"/>
      <point x="701" y="18" type="curve" smooth="yes"/>
      <point x="701" y="763" type="line"/>
      <point x="131" y="1052" type="line"/>
      <point x="131" y="18" type="line"/>
      <point x="131" y="15" type="line"/>
      <point x="130" y="14" type="line"/>
      <point x="130" y="12" type="line"/>
      <point x="130" y="11" type="line"/>
      <point x="129" y="10" type="line"/>
      <point x="129" y="9" type="line"/>
      <point x="128" y="7" type="line"/>
      <point x="128" y="7"/>
      <point x="127" y="7"/>
      <point x="126" y="5" type="curve" smooth="yes"/>
      <point x="124" y="3" type="line" smooth="yes"/>
      <point x="121" y="1"/>
      <point x="117" y="0"/>
      <point x="113" y="0" type="curve" smooth="yes"/>
      <point x="110" y="0"/>
      <point x="108" y="1"/>
      <point x="107" y="1" type="curve" smooth="yes"/>
      <point x="106" y="1" type="line"/>
      <point x="105" y="1" type="line"/>
      <point x="105" y="2"/>
      <point x="105" y="3"/>
      <point x="104" y="3" type="curve" smooth="yes"/>
      <point x="102" y="3" type="line"/>
      <point x="102" y="3"/>
      <point x="101" y="4"/>
      <point x="99" y="5" type="curve" smooth="yes"/>
      <point x="99" y="6"/>
      <point x="99" y="7"/>
      <point x="98" y="9" type="curve" smooth="yes"/>
      <point x="97" y="10" type="line" smooth="yes"/>
      <point x="97" y="11"/>
      <point x="97" y="12"/>
      <point x="96" y="13" type="curve" smooth="yes"/>
      <point x="96" y="13"/>
      <point x="95" y="14"/>
      <point x="95" y="15" type="curve" smooth="yes"/>
      <point x="95" y="18" type="line"/>
      <point x="95" y="1076" type="line"/>
      <point x="95" y="1080" type="line"/>
      <point x="96" y="1081" type="line"/>
      <point x="96" y="1082" type="line"/>
      <point x="97" y="1083" type="line"/>
      <point x="97" y="1083" type="line"/>
      <point x="98" y="1084" type="line"/>
      <point x="98" y="1085" type="line"/>
      <point x="99" y="1086" type="line"/>
      <point x="100" y="1087" type="line"/>
      <point x="101" y="1089" type="line" smooth="yes"/>
      <point x="102" y="1089"/>
      <point x="103" y="1090"/>
      <point x="104" y="1090" type="curve"/>
      <point x="104" y="1091" type="line"/>
      <point x="105" y="1091" type="line"/>
      <point x="106" y="1092" type="line"/>
      <point x="107" y="1092" type="line"/>
      <point x="107" y="1092"/>
      <point x="107" y="1093"/>
      <point x="108" y="1093" type="curve" smooth="yes"/>
      <point x="108" y="1093"/>
      <point x="110" y="1094"/>
      <point x="114" y="1094" type="curve" smooth="yes"/>
      <point x="115" y="1094" type="line"/>
      <point x="117" y="1094" type="line"/>
      <point x="118" y="1094" type="line"/>
      <point x="121" y="1094" type="line"/>
      <point x="122" y="1094" type="line"/>
      <point x="123" y="1094" type="line" smooth="yes"/>
      <point x="125" y="1094"/>
      <point x="127" y="1093"/>
      <point x="129" y="1093" type="curve"/>
      <point x="130" y="1092" type="line"/>
      <point x="702" y="803" type="line"/>
      <point x="702" y="1076" type="line" smooth="yes"/>
      <point x="702" y="1081"/>
      <point x="703" y="1085"/>
      <point x="707" y="1089" type="curve" smooth="yes"/>
      <point x="710" y="1092"/>
      <point x="714" y="1094"/>
    </contour>
  </outline>
</glyph>
<glyph name="P" format="1">
  <advance width="890"/>
  <unicode hex="0050"/>
  <outline>
    <contour>
      <point x="113" y="1094" type="curve" smooth="yes"/>
      <point x="114" y="1094" type="line" smooth="yes"/>
      <point x="119" y="1094"/>
      <point x="123" y="1092"/>
      <point x="127" y="1089" type="curve"/>
      <point x="130" y="1085"/>
      <point x="132" y="1081"/>
      <point x="132" y="1076" type="curve" smooth="yes"/>
      <point x="132" y="892" type="line"/>
      <point x="161" y="952"/>
      <point x="204" y="1001"/>
      <point x="262" y="1038" type="curve" smooth="yes"/>
      <point x="320" y="1075"/>
      <point x="383" y="1094"/>
      <point x="453" y="1094" type="curve" smooth="yes"/>
      <point x="454" y="1094" type="line"/>
      <point x="455" y="1094" type="line" smooth="yes"/>
      <point x="519" y="1094"/>
      <point x="579" y="1078"/>
      <point x="634" y="1046" type="curve" smooth="yes"/>
      <point x="689" y="1014"/>
      <point x="732" y="970"/>
      <point x="764" y="915" type="curve" smooth="yes"/>
      <point x="796" y="860"/>
      <point x="812" y="800"/>
      <point x="812" y="736" type="curve" smooth="yes"/>
      <point x="812" y="671"/>
      <point x="796" y="611"/>
      <point x="764" y="557" type="curve" smooth="yes"/>
      <point x="732" y="502"/>
      <point x="689" y="459"/>
      <point x="635" y="427" type="curve" smooth="yes"/>
      <point x="580" y="395"/>
      <point x="520" y="378"/>
      <point x="456" y="378" type="curve" smooth="yes"/>
      <point x="454" y="378" type="line"/>
      <point x="453" y="378" type="line" smooth="yes"/>
      <point x="383" y="378"/>
      <point x="320" y="397"/>
      <point x="262" y="434" type="curve" smooth="yes"/>
      <point x="204" y="471"/>
      <point x="161" y="520"/>
      <point x="132" y="581" type="curve"/>
      <point x="132" y="18" type="line" smooth="yes"/>
      <point x="132" y="13"/>
      <point x="130" y="9"/>
      <point x="127" y="5" type="curve" smooth="yes"/>
      <point x="123" y="1"/>
      <point x="119" y="-0"/>
      <point x="114" y="-0" type="curve" smooth="yes"/>
      <point x="109" y="-0"/>
      <point x="105" y="1"/>
      <point x="101" y="5" type="curve" smooth="yes"/>
      <point x="97" y="9"/>
      <point x="96" y="13"/>
      <point x="96" y="18" type="curve" smooth="yes"/>
      <point x="96" y="736" type="line"/>
      <point x="96" y="1076" type="line" smooth="yes"/>
      <point x="96" y="1081"/>
      <point x="97" y="1085"/>
      <point x="101" y="1089" type="curve" smooth="yes"/>
      <point x="104" y="1092"/>
      <point x="108" y="1094"/>
    </contour>
    <contour>
      <point x="454" y="1059" type="curve" smooth="yes"/>
      <point x="396" y="1059"/>
      <point x="342" y="1044"/>
      <point x="292" y="1015" type="curve" smooth="yes"/>
      <point x="242" y="986"/>
      <point x="203" y="947"/>
      <point x="175" y="898" type="curve" smooth="yes"/>
      <point x="146" y="848"/>
      <point x="132" y="794"/>
      <point x="132" y="736" type="curve" smooth="yes"/>
      <point x="132" y="678"/>
      <point x="146" y="624"/>
      <point x="175" y="574" type="curve" smooth="yes"/>
      <point x="203" y="524"/>
      <point x="242" y="485"/>
      <point x="292" y="457" type="curve" smooth="yes"/>
      <point x="342" y="428"/>
      <point x="396" y="414"/>
      <point x="454" y="414" type="curve" smooth="yes"/>
      <point x="512" y="414"/>
      <point x="566" y="428"/>
      <point x="616" y="457" type="curve" smooth="yes"/>
      <point x="666" y="485"/>
      <point x="705" y="524"/>
      <point x="734" y="574" type="curve" smooth="yes"/>
      <point x="762" y="624"/>
      <point x="777" y="678"/>
      <point x="777" y="736" type="curve" smooth="yes"/>
      <point x="777" y="794"/>
      <point x="762" y="848"/>
      <point x="734" y="898" type="curve"/>
      <point x="705" y="947"/>
      <point x="666" y="986"/>
      <point x="616" y="1015" type="curve" smooth="yes"/>
      <point x="566" y="1044"/>
      <point x="512" y="1059"/>
    </contour>
  </outline>
</glyph>
<glyph name="Q" format="1">
  <advance width="894"/>
  <unicode hex="0051"/>
  <outline>
    <contour>
      <point x="444" y="1094" type="curve" smooth="yes"/>
      <point x="508" y="1094"/>
      <point x="568" y="1078"/>
      <point x="623" y="1046" type="curve" smooth="yes"/>
      <point x="678" y="1014"/>
      <point x="722" y="970"/>
      <point x="754" y="915" type="curve" smooth="yes"/>
      <point x="786" y="860"/>
      <point x="802" y="800"/>
      <point x="802" y="736" type="curve" smooth="yes"/>
      <point x="802" y="358" type="line" smooth="yes"/>
      <point x="802" y="288"/>
      <point x="784" y="224"/>
      <point x="748" y="168" type="curve" smooth="yes"/>
      <point x="744" y="162"/>
      <point x="738" y="159"/>
      <point x="732" y="159" type="curve" smooth="yes"/>
      <point x="727" y="159"/>
      <point x="723" y="160"/>
      <point x="719" y="164" type="curve" smooth="yes"/>
      <point x="715" y="167"/>
      <point x="714" y="171"/>
      <point x="714" y="176" type="curve" smooth="yes"/>
      <point x="714" y="180"/>
      <point x="715" y="183"/>
      <point x="717" y="185" type="curve" smooth="yes"/>
      <point x="749" y="237"/>
      <point x="766" y="295"/>
      <point x="766" y="357" type="curve" smooth="yes"/>
      <point x="766" y="735" type="line" smooth="yes"/>
      <point x="766" y="794"/>
      <point x="751" y="848"/>
      <point x="723" y="897" type="curve" smooth="yes"/>
      <point x="694" y="947"/>
      <point x="655" y="986"/>
      <point x="606" y="1015" type="curve" smooth="yes"/>
      <point x="556" y="1044"/>
      <point x="502" y="1059"/>
      <point x="444" y="1059" type="curve" smooth="yes"/>
      <point x="385" y="1059"/>
      <point x="331" y="1044"/>
      <point x="282" y="1015" type="curve" smooth="yes"/>
      <point x="232" y="986"/>
      <point x="193" y="947"/>
      <point x="165" y="897" type="curve"/>
      <point x="136" y="848"/>
      <point x="122" y="794"/>
      <point x="122" y="735" type="curve" smooth="yes"/>
      <point x="122" y="357" type="line" smooth="yes"/>
      <point x="122" y="299"/>
      <point x="136" y="245"/>
      <point x="165" y="195" type="curve" smooth="yes"/>
      <point x="193" y="146"/>
      <point x="232" y="107"/>
      <point x="282" y="78" type="curve" smooth="yes"/>
      <point x="331" y="50"/>
      <point x="385" y="35"/>
      <point x="444" y="35" type="curve" smooth="yes"/>
      <point x="522" y="35"/>
      <point x="591" y="60"/>
      <point x="651" y="110" type="curve"/>
      <point x="386" y="375" type="line" smooth="yes"/>
      <point x="382" y="379"/>
      <point x="381" y="383"/>
      <point x="381" y="387" type="curve" smooth="yes"/>
      <point x="381" y="392"/>
      <point x="382" y="396"/>
      <point x="386" y="400" type="curve" smooth="yes"/>
      <point x="389" y="404"/>
      <point x="393" y="406"/>
      <point x="399" y="406" type="curve" smooth="yes"/>
      <point x="404" y="406"/>
      <point x="408" y="404"/>
      <point x="411" y="401" type="curve" smooth="yes"/>
      <point x="689" y="122" type="line"/>
      <point x="790" y="23" type="line" smooth="yes"/>
      <point x="793" y="19"/>
      <point x="795" y="15"/>
      <point x="795" y="10" type="curve" smooth="yes"/>
      <point x="795" y="5"/>
      <point x="793" y="1"/>
      <point x="789" y="-2" type="curve" smooth="yes"/>
      <point x="785" y="-5"/>
      <point x="781" y="-7"/>
      <point x="776" y="-7" type="curve" smooth="yes"/>
      <point x="771" y="-7"/>
      <point x="767" y="-5"/>
      <point x="764" y="-2" type="curve" smooth="yes"/>
      <point x="676" y="86" type="line"/>
      <point x="609" y="28"/>
      <point x="532" y="0"/>
      <point x="444" y="0" type="curve" smooth="yes"/>
      <point x="379" y="0"/>
      <point x="319" y="16"/>
      <point x="264" y="48" type="curve" smooth="yes"/>
      <point x="209" y="80"/>
      <point x="166" y="123"/>
      <point x="134" y="178" type="curve" smooth="yes"/>
      <point x="102" y="233"/>
      <point x="86" y="293"/>
      <point x="86" y="358" type="curve" smooth="yes"/>
      <point x="86" y="736" type="line" smooth="yes"/>
      <point x="86" y="800"/>
      <point x="102" y="860"/>
      <point x="134" y="915" type="curve" smooth="yes"/>
      <point x="166" y="970"/>
      <point x="209" y="1014"/>
      <point x="264" y="1046" type="curve" smooth="yes"/>
      <point x="319" y="1078"/>
      <point x="379" y="1094"/>
    </contour>
  </outline>
</glyph>
<glyph name="R" format="1">
  <advance width="891"/>
  <unicode hex="0052"/>
  <outline>
    <contour>
      <point x="113" y="1094" type="curve" smooth="yes"/>
      <point x="114" y="1094" type="line" smooth="yes"/>
      <point x="119" y="1094"/>
      <point x="123" y="1092"/>
      <point x="127" y="1089" type="curve"/>
      <point x="130" y="1085"/>
      <point x="132" y="1081"/>
      <point x="132" y="1076" type="curve" smooth="yes"/>
      <point x="132" y="892" type="line"/>
      <point x="162" y="952"/>
      <point x="205" y="1001"/>
      <point x="263" y="1038" type="curve" smooth="yes"/>
      <point x="321" y="1075"/>
      <point x="384" y="1094"/>
      <point x="454" y="1094" type="curve" smooth="yes"/>
      <point x="519" y="1094"/>
      <point x="579" y="1078"/>
      <point x="634" y="1046" type="curve" smooth="yes"/>
      <point x="689" y="1014"/>
      <point x="732" y="970"/>
      <point x="764" y="915" type="curve" smooth="yes"/>
      <point x="796" y="860"/>
      <point x="812" y="800"/>
      <point x="812" y="736" type="curve" smooth="yes"/>
      <point x="812" y="671"/>
      <point x="796" y="611"/>
      <point x="764" y="556" type="curve" smooth="yes"/>
      <point x="732" y="501"/>
      <point x="689" y="458"/>
      <point x="634" y="426" type="curve" smooth="yes"/>
      <point x="579" y="394"/>
      <point x="519" y="378"/>
      <point x="454" y="378" type="curve" smooth="yes"/>
      <point x="427" y="378"/>
      <point x="399" y="381"/>
      <point x="370" y="389" type="curve"/>
      <point x="806" y="32" type="line"/>
      <point x="810" y="27"/>
      <point x="812" y="22"/>
      <point x="812" y="18" type="curve" smooth="yes"/>
      <point x="812" y="13"/>
      <point x="810" y="9"/>
      <point x="807" y="5" type="curve" smooth="yes"/>
      <point x="803" y="1"/>
      <point x="799" y="0"/>
      <point x="794" y="0" type="curve" smooth="yes"/>
      <point x="789" y="-0"/>
      <point x="785" y="1"/>
      <point x="783" y="4" type="curve"/>
      <point x="231" y="457" type="line"/>
      <point x="230" y="457" type="line"/>
      <point x="230" y="458" type="line"/>
      <point x="228" y="458" type="line"/>
      <point x="228" y="459" type="line"/>
      <point x="228" y="460" type="line"/>
      <point x="227" y="462" type="line"/>
      <point x="226" y="462" type="line"/>
      <point x="226" y="463" type="line"/>
      <point x="225" y="463" type="line"/>
      <point x="225" y="465" type="line"/>
      <point x="224" y="465" type="line"/>
      <point x="224" y="467" type="line" smooth="yes"/>
      <point x="224" y="469" type="line"/>
      <point x="224" y="470" type="line"/>
      <point x="224" y="471" type="line"/>
      <point x="224" y="472" type="line"/>
      <point x="224" y="474" type="line"/>
      <point x="224" y="475" type="line"/>
      <point x="225" y="477" type="line"/>
      <point x="225" y="477" type="line"/>
      <point x="225" y="477"/>
      <point x="226" y="477"/>
      <point x="226" y="478" type="curve" smooth="yes"/>
      <point x="226" y="479" type="line"/>
      <point x="227" y="480" type="line"/>
      <point x="228" y="481" type="line"/>
      <point x="229" y="483" type="line"/>
      <point x="230" y="484" type="line"/>
      <point x="230" y="484"/>
      <point x="230" y="485"/>
      <point x="231" y="485" type="curve" smooth="yes"/>
      <point x="233" y="486" type="line"/>
      <point x="234" y="486" type="line"/>
      <point x="234" y="487" type="line"/>
      <point x="235" y="487" type="line"/>
      <point x="235" y="487"/>
      <point x="236" y="488"/>
      <point x="237" y="488" type="curve" smooth="yes"/>
      <point x="238" y="488" type="line"/>
      <point x="239" y="488" type="line"/>
      <point x="240" y="488" type="line"/>
      <point x="241" y="488" type="line"/>
      <point x="242" y="488" type="line"/>
      <point x="243" y="488" type="line"/>
      <point x="244" y="488" type="line"/>
      <point x="245" y="488" type="line"/>
      <point x="247" y="488" type="line" smooth="yes"/>
      <point x="248" y="488"/>
      <point x="249" y="487"/>
      <point x="250" y="486" type="curve" smooth="yes"/>
      <point x="252" y="485" type="line"/>
      <point x="252" y="484" type="line"/>
      <point x="254" y="484" type="line" smooth="yes"/>
      <point x="312" y="437"/>
      <point x="378" y="414"/>
      <point x="454" y="414" type="curve" smooth="yes"/>
      <point x="512" y="414"/>
      <point x="566" y="428"/>
      <point x="616" y="457" type="curve" smooth="yes"/>
      <point x="666" y="485"/>
      <point x="705" y="524"/>
      <point x="734" y="574" type="curve" smooth="yes"/>
      <point x="762" y="624"/>
      <point x="777" y="678"/>
      <point x="777" y="736" type="curve" smooth="yes"/>
      <point x="777" y="794"/>
      <point x="762" y="848"/>
      <point x="734" y="898" type="curve"/>
      <point x="705" y="947"/>
      <point x="666" y="986"/>
      <point x="616" y="1015" type="curve" smooth="yes"/>
      <point x="566" y="1044"/>
      <point x="512" y="1059"/>
      <point x="454" y="1059" type="curve" smooth="yes"/>
      <point x="396" y="1059"/>
      <point x="342" y="1044"/>
      <point x="292" y="1015" type="curve" smooth="yes"/>
      <point x="242" y="986"/>
      <point x="203" y="947"/>
      <point x="175" y="898" type="curve" smooth="yes"/>
      <point x="146" y="848"/>
      <point x="132" y="794"/>
      <point x="132" y="736" type="curve" smooth="yes"/>
      <point x="132" y="735" type="line"/>
      <point x="132" y="18" type="line" smooth="yes"/>
      <point x="132" y="13"/>
      <point x="130" y="9"/>
      <point x="127" y="5" type="curve" smooth="yes"/>
      <point x="123" y="1"/>
      <point x="119" y="-0"/>
      <point x="114" y="-0" type="curve" smooth="yes"/>
      <point x="109" y="-0"/>
      <point x="105" y="1"/>
      <point x="101" y="5" type="curve" smooth="yes"/>
      <point x="97" y="9"/>
      <point x="96" y="13"/>
      <point x="96" y="18" type="curve" smooth="yes"/>
      <point x="96" y="736" type="line"/>
      <point x="96" y="1076" type="line" smooth="yes"/>
      <point x="96" y="1081"/>
      <point x="97" y="1085"/>
      <point x="101" y="1089" type="curve" smooth="yes"/>
      <point x="104" y="1092"/>
      <point x="108" y="1094"/>
    </contour>
  </outline>
</glyph>
<glyph name="S" format="1">
  <advance width="874"/>
  <unicode hex="0053"/>
  <outline>
    <contour>
      <point x="431" y="1094" type="curve" smooth="yes"/>
      <point x="509" y="1094"/>
      <point x="575" y="1066"/>
      <point x="631" y="1011" type="curve"/>
      <point x="686" y="955"/>
      <point x="714" y="889"/>
      <point x="714" y="812" type="curve" smooth="yes"/>
      <point x="714" y="806"/>
      <point x="712" y="802"/>
      <point x="708" y="799" type="curve" smooth="yes"/>
      <point x="704" y="795"/>
      <point x="700" y="794"/>
      <point x="695" y="794" type="curve" smooth="yes"/>
      <point x="690" y="794"/>
      <point x="686" y="795"/>
      <point x="683" y="799" type="curve"/>
      <point x="679" y="802"/>
      <point x="678" y="806"/>
      <point x="678" y="812" type="curve" smooth="yes"/>
      <point x="678" y="880"/>
      <point x="654" y="938"/>
      <point x="606" y="986" type="curve" smooth="yes"/>
      <point x="558" y="1034"/>
      <point x="499" y="1059"/>
      <point x="431" y="1059" type="curve" smooth="yes"/>
      <point x="362" y="1059"/>
      <point x="304" y="1034"/>
      <point x="256" y="986" type="curve" smooth="yes"/>
      <point x="208" y="938"/>
      <point x="184" y="880"/>
      <point x="184" y="812" type="curve" smooth="yes"/>
      <point x="184" y="754"/>
      <point x="201" y="703"/>
      <point x="237" y="659" type="curve"/>
      <point x="296" y="697"/>
      <point x="361" y="716"/>
      <point x="431" y="716" type="curve" smooth="yes"/>
      <point x="495" y="716"/>
      <point x="555" y="700"/>
      <point x="610" y="668" type="curve" smooth="yes"/>
      <point x="665" y="636"/>
      <point x="709" y="592"/>
      <point x="741" y="537" type="curve" smooth="yes"/>
      <point x="773" y="482"/>
      <point x="789" y="422"/>
      <point x="789" y="358" type="curve" smooth="yes"/>
      <point x="789" y="293"/>
      <point x="773" y="233"/>
      <point x="741" y="178" type="curve" smooth="yes"/>
      <point x="709" y="123"/>
      <point x="665" y="80"/>
      <point x="610" y="48" type="curve" smooth="yes"/>
      <point x="555" y="16"/>
      <point x="495" y="0"/>
      <point x="431" y="0" type="curve" smooth="yes"/>
      <point x="366" y="0"/>
      <point x="306" y="16"/>
      <point x="251" y="48" type="curve" smooth="yes"/>
      <point x="196" y="80"/>
      <point x="153" y="123"/>
      <point x="121" y="178" type="curve" smooth="yes"/>
      <point x="89" y="233"/>
      <point x="73" y="293"/>
      <point x="73" y="358" type="curve" smooth="yes"/>
      <point x="73" y="362"/>
      <point x="74" y="366"/>
      <point x="78" y="370" type="curve" smooth="yes"/>
      <point x="81" y="374"/>
      <point x="85" y="376"/>
      <point x="90" y="376" type="curve" smooth="yes"/>
      <point x="95" y="376"/>
      <point x="99" y="374"/>
      <point x="103" y="370" type="curve" smooth="yes"/>
      <point x="107" y="366"/>
      <point x="109" y="362"/>
      <point x="109" y="358" type="curve" smooth="yes"/>
      <point x="109" y="299"/>
      <point x="123" y="245"/>
      <point x="152" y="196" type="curve"/>
      <point x="180" y="146"/>
      <point x="219" y="107"/>
      <point x="269" y="79" type="curve"/>
      <point x="318" y="50"/>
      <point x="372" y="36"/>
      <point x="431" y="36" type="curve" smooth="yes"/>
      <point x="489" y="36"/>
      <point x="543" y="50"/>
      <point x="593" y="79" type="curve" smooth="yes"/>
      <point x="642" y="107"/>
      <point x="681" y="146"/>
      <point x="710" y="196" type="curve" smooth="yes"/>
      <point x="738" y="245"/>
      <point x="753" y="299"/>
      <point x="753" y="358" type="curve" smooth="yes"/>
      <point x="753" y="416"/>
      <point x="738" y="470"/>
      <point x="710" y="520" type="curve"/>
      <point x="681" y="569"/>
      <point x="642" y="608"/>
      <point x="593" y="637" type="curve"/>
      <point x="543" y="665"/>
      <point x="489" y="680"/>
      <point x="431" y="680" type="curve" smooth="yes"/>
      <point x="370" y="680"/>
      <point x="314" y="664"/>
      <point x="262" y="632" type="curve"/>
      <point x="277" y="617"/>
      <point x="293" y="605"/>
      <point x="310" y="596" type="curve" smooth="yes"/>
      <point x="316" y="593"/>
      <point x="319" y="588"/>
      <point x="319" y="581" type="curve" smooth="yes"/>
      <point x="319" y="575"/>
      <point x="317" y="571"/>
      <point x="314" y="568" type="curve" smooth="yes"/>
      <point x="310" y="564"/>
      <point x="306" y="563"/>
      <point x="301" y="563" type="curve" smooth="yes"/>
      <point x="297" y="563"/>
      <point x="294" y="563"/>
      <point x="292" y="565" type="curve" smooth="yes"/>
      <point x="266" y="579"/>
      <point x="243" y="598"/>
      <point x="223" y="620" type="curve" smooth="yes"/>
      <point x="220" y="623"/>
      <point x="218" y="625"/>
      <point x="218" y="626" type="curve" smooth="yes"/>
      <point x="171" y="679"/>
      <point x="148" y="741"/>
      <point x="148" y="812" type="curve" smooth="yes"/>
      <point x="148" y="889"/>
      <point x="175" y="955"/>
      <point x="231" y="1011" type="curve" smooth="yes"/>
      <point x="286" y="1066"/>
      <point x="353" y="1094"/>
    </contour>
  </outline>
</glyph>
<glyph name="T" format="1">
  <advance width="838"/>
  <unicode hex="0054"/>
  <outline>
    <contour>
      <point x="418" y="1094" type="line"/>
      <point x="421" y="1094" type="line"/>
      <point x="758" y="1094" type="line" smooth="yes"/>
      <point x="762" y="1094"/>
      <point x="766" y="1092"/>
      <point x="770" y="1089" type="curve" smooth="yes"/>
      <point x="774" y="1085"/>
      <point x="776" y="1081"/>
      <point x="776" y="1076" type="curve" smooth="yes"/>
      <point x="776" y="1071"/>
      <point x="774" y="1067"/>
      <point x="770" y="1064" type="curve" smooth="yes"/>
      <point x="766" y="1060"/>
      <point x="762" y="1059"/>
      <point x="758" y="1059" type="curve" smooth="yes"/>
      <point x="436" y="1059" type="line"/>
      <point x="436" y="18" type="line" smooth="yes"/>
      <point x="436" y="13"/>
      <point x="434" y="9"/>
      <point x="430" y="5" type="curve" smooth="yes"/>
      <point x="426" y="1"/>
      <point x="422" y="-0"/>
      <point x="418" y="-0" type="curve" smooth="yes"/>
      <point x="413" y="-0"/>
      <point x="409" y="1"/>
      <point x="405" y="5" type="curve" smooth="yes"/>
      <point x="401" y="9"/>
      <point x="400" y="13"/>
      <point x="400" y="18" type="curve" smooth="yes"/>
      <point x="400" y="1059" type="line"/>
      <point x="78" y="1059" type="line" smooth="yes"/>
      <point x="72" y="1059"/>
      <point x="68" y="1060"/>
      <point x="65" y="1064" type="curve"/>
      <point x="61" y="1067"/>
      <point x="60" y="1071"/>
      <point x="60" y="1076" type="curve" smooth="yes"/>
      <point x="60" y="1081"/>
      <point x="61" y="1085"/>
      <point x="65" y="1089" type="curve" smooth="yes"/>
      <point x="68" y="1092"/>
      <point x="72" y="1094"/>
      <point x="78" y="1094" type="curve" smooth="yes"/>
      <point x="415" y="1094" type="line"/>
    </contour>
  </outline>
</glyph>
<glyph name="U" format="1">
  <advance width="901"/>
  <unicode hex="0055"/>
  <outline>
    <contour>
      <point x="109" y="1094" type="curve" smooth="yes"/>
      <point x="114" y="1094"/>
      <point x="118" y="1092"/>
      <point x="121" y="1089" type="curve" smooth="yes"/>
      <point x="125" y="1085"/>
      <point x="126" y="1081"/>
      <point x="126" y="1076" type="curve" smooth="yes"/>
      <point x="126" y="358" type="line" smooth="yes"/>
      <point x="126" y="299"/>
      <point x="141" y="245"/>
      <point x="169" y="196" type="curve" smooth="yes"/>
      <point x="198" y="146"/>
      <point x="237" y="107"/>
      <point x="287" y="79" type="curve" smooth="yes"/>
      <point x="337" y="50"/>
      <point x="391" y="36"/>
      <point x="449" y="36" type="curve" smooth="yes"/>
      <point x="507" y="36"/>
      <point x="561" y="50"/>
      <point x="611" y="79" type="curve" smooth="yes"/>
      <point x="661" y="107"/>
      <point x="700" y="146"/>
      <point x="729" y="196" type="curve" smooth="yes"/>
      <point x="757" y="245"/>
      <point x="772" y="299"/>
      <point x="772" y="358" type="curve" smooth="yes"/>
      <point x="772" y="1076" type="line" smooth="yes"/>
      <point x="772" y="1081"/>
      <point x="773" y="1085"/>
      <point x="777" y="1089" type="curve" smooth="yes"/>
      <point x="780" y="1092"/>
      <point x="784" y="1094"/>
      <point x="789" y="1094" type="curve" smooth="yes"/>
      <point x="793" y="1094"/>
      <point x="797" y="1092"/>
      <point x="801" y="1089" type="curve" smooth="yes"/>
      <point x="805" y="1085"/>
      <point x="807" y="1081"/>
      <point x="807" y="1076" type="curve" smooth="yes"/>
      <point x="807" y="358" type="line" smooth="yes"/>
      <point x="807" y="293"/>
      <point x="791" y="233"/>
      <point x="759" y="178" type="curve" smooth="yes"/>
      <point x="727" y="123"/>
      <point x="683" y="80"/>
      <point x="629" y="48" type="curve" smooth="yes"/>
      <point x="574" y="16"/>
      <point x="514" y="0"/>
      <point x="449" y="0" type="curve" smooth="yes"/>
      <point x="384" y="0"/>
      <point x="324" y="16"/>
      <point x="269" y="48" type="curve" smooth="yes"/>
      <point x="214" y="80"/>
      <point x="171" y="123"/>
      <point x="139" y="178" type="curve" smooth="yes"/>
      <point x="107" y="233"/>
      <point x="92" y="293"/>
      <point x="92" y="358" type="curve" smooth="yes"/>
      <point x="92" y="1076" type="line" smooth="yes"/>
      <point x="92" y="1081"/>
      <point x="93" y="1085"/>
      <point x="96" y="1089" type="curve" smooth="yes"/>
      <point x="99" y="1092"/>
      <point x="103" y="1094"/>
    </contour>
  </outline>
</glyph>
<glyph name="V" format="1">
  <advance width="916"/>
  <unicode hex="0056"/>
  <outline>
    <contour>
      <point x="78" y="1094" type="curve"/>
      <point x="78" y="1094" type="line"/>
      <point x="86" y="1094"/>
      <point x="92" y="1090"/>
      <point x="95" y="1082" type="curve" smooth="yes"/>
      <point x="456" y="69" type="line"/>
      <point x="817" y="1082" type="line"/>
      <point x="821" y="1090"/>
      <point x="826" y="1094"/>
      <point x="834" y="1094" type="curve" smooth="yes"/>
      <point x="839" y="1094"/>
      <point x="843" y="1092"/>
      <point x="847" y="1089" type="curve" smooth="yes"/>
      <point x="851" y="1085"/>
      <point x="853" y="1081"/>
      <point x="853" y="1076" type="curve" smooth="yes"/>
      <point x="853" y="1073"/>
      <point x="852" y="1071"/>
      <point x="852" y="1070" type="curve" smooth="yes"/>
      <point x="474" y="11" type="line"/>
      <point x="470" y="3"/>
      <point x="465" y="-0"/>
      <point x="457" y="-0" type="curve" smooth="yes"/>
      <point x="449" y="-0"/>
      <point x="443" y="3"/>
      <point x="441" y="11" type="curve" smooth="yes"/>
      <point x="62" y="1070" type="line"/>
      <point x="62" y="1076" type="line" smooth="yes"/>
      <point x="62" y="1080"/>
      <point x="63" y="1084"/>
      <point x="66" y="1088" type="curve" smooth="yes"/>
      <point x="69" y="1092"/>
      <point x="73" y="1094"/>
    </contour>
  </outline>
</glyph>
<glyph name="W" format="1">
  <advance width="1295"/>
  <unicode hex="0057"/>
  <outline>
    <contour>
      <point x="78" y="1094" type="curve"/>
      <point x="78" y="1094" type="line"/>
      <point x="87" y="1094"/>
      <point x="93" y="1090"/>
      <point x="95" y="1082" type="curve" smooth="yes"/>
      <point x="456" y="69" type="line"/>
      <point x="626" y="546" type="line"/>
      <point x="440" y="1070" type="line" smooth="yes"/>
      <point x="439" y="1072"/>
      <point x="438" y="1074"/>
      <point x="438" y="1076" type="curve" smooth="yes"/>
      <point x="438" y="1081"/>
      <point x="440" y="1085"/>
      <point x="444" y="1089" type="curve" smooth="yes"/>
      <point x="448" y="1092"/>
      <point x="452" y="1094"/>
      <point x="456" y="1094" type="curve" smooth="yes"/>
      <point x="464" y="1094"/>
      <point x="470" y="1090"/>
      <point x="473" y="1082" type="curve" smooth="yes"/>
      <point x="645" y="599" type="line"/>
      <point x="817" y="1082" type="line"/>
      <point x="821" y="1090"/>
      <point x="826" y="1094"/>
      <point x="834" y="1094" type="curve" smooth="yes"/>
      <point x="839" y="1094"/>
      <point x="843" y="1092"/>
      <point x="847" y="1089" type="curve" smooth="yes"/>
      <point x="851" y="1085"/>
      <point x="853" y="1081"/>
      <point x="853" y="1076" type="curve" smooth="yes"/>
      <point x="853" y="1073"/>
      <point x="852" y="1071"/>
      <point x="852" y="1070" type="curve" smooth="yes"/>
      <point x="665" y="546" type="line"/>
      <point x="835" y="69" type="line"/>
      <point x="1196" y="1082" type="line" smooth="yes"/>
      <point x="1199" y="1090"/>
      <point x="1205" y="1094"/>
      <point x="1213" y="1094" type="curve" smooth="yes"/>
      <point x="1218" y="1094"/>
      <point x="1222" y="1092"/>
      <point x="1226" y="1089" type="curve"/>
      <point x="1229" y="1085"/>
      <point x="1231" y="1081"/>
      <point x="1231" y="1076" type="curve" smooth="yes"/>
      <point x="1231" y="1074"/>
      <point x="1230" y="1072"/>
      <point x="1230" y="1070" type="curve" smooth="yes"/>
      <point x="852" y="11" type="line" smooth="yes"/>
      <point x="849" y="3"/>
      <point x="843" y="-0"/>
      <point x="835" y="-0" type="curve" smooth="yes"/>
      <point x="827" y="-0"/>
      <point x="821" y="3"/>
      <point x="818" y="11" type="curve" smooth="yes"/>
      <point x="646" y="493" type="line"/>
      <point x="474" y="11" type="line"/>
      <point x="470" y="3"/>
      <point x="465" y="-0"/>
      <point x="457" y="-0" type="curve" smooth="yes"/>
      <point x="449" y="-0"/>
      <point x="443" y="3"/>
      <point x="441" y="11" type="curve" smooth="yes"/>
      <point x="62" y="1070" type="line"/>
      <point x="62" y="1076" type="line" smooth="yes"/>
      <point x="62" y="1080"/>
      <point x="63" y="1084"/>
      <point x="66" y="1088" type="curve" smooth="yes"/>
      <point x="69" y="1092"/>
      <point x="73" y="1094"/>
    </contour>
  </outline>
</glyph>
<glyph name="X" format="1">
  <advance width="923"/>
  <unicode hex="0058"/>
  <outline>
    <contour>
      <point x="87" y="1091" type="curve" smooth="yes"/>
      <point x="93" y="1091"/>
      <point x="98" y="1088"/>
      <point x="102" y="1084" type="curve" smooth="yes"/>
      <point x="462" y="575" type="line"/>
      <point x="822" y="1084" type="line" smooth="yes"/>
      <point x="826" y="1088"/>
      <point x="831" y="1091"/>
      <point x="837" y="1091" type="curve" smooth="yes"/>
      <point x="841" y="1091"/>
      <point x="845" y="1089"/>
      <point x="849" y="1086" type="curve" smooth="yes"/>
      <point x="853" y="1082"/>
      <point x="855" y="1078"/>
      <point x="855" y="1073" type="curve" smooth="yes"/>
      <point x="855" y="1069"/>
      <point x="853" y="1066"/>
      <point x="851" y="1063" type="curve" smooth="yes"/>
      <point x="484" y="545" type="line"/>
      <point x="851" y="28" type="line" smooth="yes"/>
      <point x="853" y="24"/>
      <point x="855" y="21"/>
      <point x="855" y="18" type="curve" smooth="yes"/>
      <point x="855" y="13"/>
      <point x="853" y="9"/>
      <point x="849" y="5" type="curve" smooth="yes"/>
      <point x="845" y="1"/>
      <point x="841" y="0"/>
      <point x="837" y="0" type="curve" smooth="yes"/>
      <point x="831" y="-0"/>
      <point x="826" y="2"/>
      <point x="822" y="7" type="curve" smooth="yes"/>
      <point x="462" y="515" type="line"/>
      <point x="102" y="7" type="line" smooth="yes"/>
      <point x="98" y="2"/>
      <point x="93" y="0"/>
      <point x="87" y="0" type="curve" smooth="yes"/>
      <point x="82" y="-0"/>
      <point x="78" y="1"/>
      <point x="75" y="5" type="curve" smooth="yes"/>
      <point x="71" y="9"/>
      <point x="70" y="13"/>
      <point x="70" y="18" type="curve" smooth="yes"/>
      <point x="70" y="21"/>
      <point x="71" y="24"/>
      <point x="73" y="28" type="curve" smooth="yes"/>
      <point x="441" y="545" type="line"/>
      <point x="73" y="1063" type="line" smooth="yes"/>
      <point x="71" y="1066"/>
      <point x="70" y="1069"/>
      <point x="70" y="1073" type="curve" smooth="yes"/>
      <point x="70" y="1078"/>
      <point x="71" y="1082"/>
      <point x="74" y="1086" type="curve" smooth="yes"/>
      <point x="77" y="1089"/>
      <point x="81" y="1091"/>
    </contour>
  </outline>
</glyph>
<glyph name="Z" format="1">
  <advance width="933"/>
  <unicode hex="005A"/>
  <outline>
    <contour>
      <point x="87" y="1094" type="curve" smooth="yes"/>
      <point x="844" y="1094" type="line" smooth="yes"/>
      <point x="848" y="1094"/>
      <point x="852" y="1092"/>
      <point x="856" y="1089" type="curve"/>
      <point x="859" y="1085"/>
      <point x="861" y="1081"/>
      <point x="861" y="1076" type="curve" smooth="yes"/>
      <point x="861" y="1072"/>
      <point x="860" y="1069"/>
      <point x="858" y="1066" type="curve" smooth="yes"/>
      <point x="122" y="36" type="line"/>
      <point x="844" y="36" type="line" smooth="yes"/>
      <point x="848" y="36"/>
      <point x="852" y="34"/>
      <point x="856" y="30" type="curve" smooth="yes"/>
      <point x="860" y="26"/>
      <point x="862" y="22"/>
      <point x="862" y="18" type="curve" smooth="yes"/>
      <point x="862" y="13"/>
      <point x="860" y="9"/>
      <point x="856" y="5" type="curve" smooth="yes"/>
      <point x="852" y="1"/>
      <point x="848" y="0"/>
      <point x="844" y="0" type="curve" smooth="yes"/>
      <point x="87" y="0" type="line" smooth="yes"/>
      <point x="82" y="-0"/>
      <point x="78" y="1"/>
      <point x="75" y="5" type="curve" smooth="yes"/>
      <point x="71" y="9"/>
      <point x="70" y="13"/>
      <point x="70" y="18" type="curve" smooth="yes"/>
      <point x="70" y="21"/>
      <point x="71" y="24"/>
      <point x="73" y="28" type="curve" smooth="yes"/>
      <point x="809" y="1059" type="line"/>
      <point x="87" y="1059" type="line" smooth="yes"/>
      <point x="82" y="1059"/>
      <point x="78" y="1060"/>
      <point x="75" y="1064" type="curve"/>
      <point x="71" y="1067"/>
      <point x="70" y="1071"/>
      <point x="70" y="1076" type="curve" smooth="yes"/>
      <point x="70" y="1081"/>
      <point x="71" y="1085"/>
      <point x="75" y="1089" type="curve" smooth="yes"/>
      <point x="78" y="1092"/>
      <point x="82" y="1094"/>
    </contour>
  </outline>
</glyph>
<glyph name="bracketleft" format="1">
  <advance width="325"/>
  <unicode hex="005B"/>
  <outline>
    <contour>
      <point x="229" y="1217" type="curve" smooth="yes"/>
      <point x="234" y="1217"/>
      <point x="238" y="1215"/>
      <point x="241" y="1212" type="curve" smooth="yes"/>
      <point x="245" y="1208"/>
      <point x="246" y="1204"/>
      <point x="246" y="1199" type="curve" smooth="yes"/>
      <point x="246" y="1194"/>
      <point x="245" y="1190"/>
      <point x="241" y="1187" type="curve"/>
      <point x="238" y="1183"/>
      <point x="234" y="1182"/>
      <point x="229" y="1182" type="curve" smooth="yes"/>
      <point x="203" y="1182"/>
      <point x="180" y="1172"/>
      <point x="162" y="1154" type="curve" smooth="yes"/>
      <point x="143" y="1135"/>
      <point x="134" y="1112"/>
      <point x="134" y="1086" type="curve" smooth="yes"/>
      <point x="134" y="28" type="line" smooth="yes"/>
      <point x="134" y="2"/>
      <point x="143" y="-20"/>
      <point x="162" y="-38" type="curve"/>
      <point x="180" y="-57"/>
      <point x="203" y="-66"/>
      <point x="229" y="-66" type="curve" smooth="yes"/>
      <point x="234" y="-66"/>
      <point x="238" y="-68"/>
      <point x="241" y="-72" type="curve" smooth="yes"/>
      <point x="245" y="-76"/>
      <point x="246" y="-80"/>
      <point x="246" y="-85" type="curve" smooth="yes"/>
      <point x="246" y="-89"/>
      <point x="245" y="-93"/>
      <point x="241" y="-97" type="curve" smooth="yes"/>
      <point x="238" y="-101"/>
      <point x="234" y="-103"/>
      <point x="229" y="-103" type="curve" smooth="yes"/>
      <point x="193" y="-103"/>
      <point x="162" y="-90"/>
      <point x="136" y="-64" type="curve" smooth="yes"/>
      <point x="110" y="-38"/>
      <point x="98" y="-8"/>
      <point x="98" y="28" type="curve" smooth="yes"/>
      <point x="98" y="1086" type="line" smooth="yes"/>
      <point x="98" y="1122"/>
      <point x="110" y="1152"/>
      <point x="136" y="1178" type="curve" smooth="yes"/>
      <point x="162" y="1204"/>
      <point x="193" y="1217"/>
    </contour>
  </outline>
</glyph>
<glyph name="backslash" format="1">
  <advance width="872"/>
  <unicode hex="005C"/>
  <outline>
    <contour>
      <point x="777" y="-254" type="curve" smooth="yes"/>
      <point x="776" y="-254" type="line" smooth="yes"/>
      <point x="768" y="-254"/>
      <point x="762" y="-250"/>
      <point x="760" y="-244" type="curve" smooth="yes"/>
      <point x="79" y="1192" type="line" smooth="yes"/>
      <point x="78" y="1194"/>
      <point x="78" y="1197"/>
      <point x="78" y="1200" type="curve" smooth="yes"/>
      <point x="78" y="1204"/>
      <point x="79" y="1208"/>
      <point x="83" y="1212" type="curve" smooth="yes"/>
      <point x="86" y="1215"/>
      <point x="90" y="1217"/>
      <point x="95" y="1217" type="curve" smooth="yes"/>
      <point x="103" y="1217"/>
      <point x="109" y="1214"/>
      <point x="111" y="1208" type="curve" smooth="yes"/>
      <point x="791" y="-228" type="line" smooth="yes"/>
      <point x="793" y="-231"/>
      <point x="793" y="-234"/>
      <point x="793" y="-237" type="curve" smooth="yes"/>
      <point x="793" y="-241"/>
      <point x="792" y="-245"/>
      <point x="788" y="-249" type="curve" smooth="yes"/>
      <point x="785" y="-252"/>
      <point x="781" y="-254"/>
    </contour>
  </outline>
</glyph>
<glyph name="bracketright" format="1">
  <advance width="325"/>
  <unicode hex="005D"/>
  <outline>
    <contour>
      <point x="98" y="1217" type="line" smooth="yes"/>
      <point x="134" y="1217"/>
      <point x="164" y="1204"/>
      <point x="190" y="1178" type="curve" smooth="yes"/>
      <point x="215" y="1152"/>
      <point x="228" y="1122"/>
      <point x="228" y="1086" type="curve" smooth="yes"/>
      <point x="228" y="27" type="line" smooth="yes"/>
      <point x="228" y="-8"/>
      <point x="215" y="-38"/>
      <point x="190" y="-64" type="curve" smooth="yes"/>
      <point x="164" y="-90"/>
      <point x="134" y="-103"/>
      <point x="98" y="-103" type="curve" smooth="yes"/>
      <point x="97" y="-103" type="line" smooth="yes"/>
      <point x="92" y="-103"/>
      <point x="88" y="-101"/>
      <point x="84" y="-97" type="curve" smooth="yes"/>
      <point x="80" y="-93"/>
      <point x="78" y="-89"/>
      <point x="78" y="-85" type="curve" smooth="yes"/>
      <point x="78" y="-80"/>
      <point x="80" y="-76"/>
      <point x="84" y="-72" type="curve" smooth="yes"/>
      <point x="88" y="-68"/>
      <point x="92" y="-67"/>
      <point x="97" y="-67" type="curve" smooth="yes"/>
      <point x="98" y="-67" type="line" smooth="yes"/>
      <point x="124" y="-67"/>
      <point x="146" y="-57"/>
      <point x="165" y="-39" type="curve" smooth="yes"/>
      <point x="184" y="-20"/>
      <point x="194" y="1"/>
      <point x="194" y="27" type="curve" smooth="yes"/>
      <point x="194" y="1086" type="line" smooth="yes"/>
      <point x="194" y="1112"/>
      <point x="184" y="1135"/>
      <point x="165" y="1154" type="curve" smooth="yes"/>
      <point x="146" y="1172"/>
      <point x="124" y="1182"/>
      <point x="98" y="1182" type="curve" smooth="yes"/>
      <point x="97" y="1182" type="line" smooth="yes"/>
      <point x="92" y="1182"/>
      <point x="88" y="1183"/>
      <point x="84" y="1187" type="curve" smooth="yes"/>
      <point x="80" y="1190"/>
      <point x="78" y="1194"/>
      <point x="78" y="1199" type="curve" smooth="yes"/>
      <point x="78" y="1204"/>
      <point x="80" y="1208"/>
      <point x="84" y="1212" type="curve" smooth="yes"/>
      <point x="88" y="1215"/>
      <point x="92" y="1217"/>
      <point x="97" y="1217" type="curve" smooth="yes"/>
    </contour>
  </outline>
</glyph>
<glyph name="asciicircum" format="1">
  <advance width="508"/>
  <unicode hex="005E"/>
  <outline>
    <contour>
      <point x="255" y="1094" type="curve" smooth="yes"/>
      <point x="259" y="1094"/>
      <point x="263" y="1092"/>
      <point x="267" y="1089" type="curve" smooth="yes"/>
      <point x="419" y="938" type="line"/>
      <point x="394" y="913" type="line"/>
      <point x="255" y="1051" type="line"/>
      <point x="117" y="913" type="line"/>
      <point x="92" y="938" type="line"/>
      <point x="242" y="1089" type="line" smooth="yes"/>
      <point x="245" y="1092"/>
      <point x="249" y="1094"/>
    </contour>
  </outline>
</glyph>
